<svg width="37" height="53" viewBox="0 0 37 53" fill="none" xmlns="http://www.w3.org/2000/svg"><g clip-path="url(#clip0_1_48)" fill="#fff"><path d="M2.205 0c.225 8.254 5.176 13.113 11.387 16.962 3.351 2.077 6.948 3.73 10.368 5.692 4.915 2.819 9.2 6.35 11.677 11.738 2.77 6.022 1.195 14.424-3.617 18.608.166-1.251.315-2.322.45-3.395.654-5.234-1.09-9.525-5.22-12.563-2.893-2.129-6.112-3.787-9.132-5.743-3.503-2.268-7.167-4.355-10.363-7.023-4.48-3.74-7.351-8.633-7.72-14.755C-.169 6.155.523 2.974 2.204 0zM9.87 52.928H.064v-11.74l9.806 11.74zM23.021 0h9.807v11.74L23.021 0z"/></g><defs><clipPath id="clip0_1_48"><path fill="#fff" d="M0 0h37v53H0z"/></clipPath></defs></svg>