<svg width="1860" height="933" viewBox="0 0 1860 933" fill="none" xmlns="http://www.w3.org/2000/svg"><rect width="1860" height="933" rx="23" fill="#162225"/><path d="M131.672 70.8h16.352V173h-16.352v-45.26H82.324V173H65.972V70.8h16.352v43.508h49.348V70.8zm25.344 81.906c0-14.016 10.268-21.997 30.806-23.944l21.608-2.044v-5.84c0-4.477-1.412-8.079-4.234-10.804-2.726-2.725-6.862-4.088-12.41-4.088-4.964 0-9.052 1.168-12.264 3.504-3.212 2.239-4.964 5.548-5.256 9.928h-14.308c.292-8.468 3.358-14.697 9.198-18.688 5.84-3.99 13.383-5.986 22.63-5.986 10.414 0 18.396 2.482 23.944 7.446 5.548 4.964 8.322 12.264 8.322 21.9V173h-14.454v-14.892c-2.434 5.256-6.084 9.344-10.95 12.264-4.867 2.92-10.756 4.38-17.666 4.38-8.274 0-14.503-2.044-18.688-6.132-4.186-4.088-6.278-9.393-6.278-15.914zm15.476-.73c0 3.504 1.168 6.375 3.504 8.614 2.433 2.141 6.034 3.212 10.804 3.212 6.91 0 12.41-2.141 16.498-6.424 4.088-4.38 6.132-9.977 6.132-16.79V136.5l-19.564 1.898c-11.583 1.168-17.374 5.694-17.374 13.578zm109.42-55.48h15.622V173h-15.622v-30.66c-8.858 1.947-16.644 2.92-23.36 2.92-17.812 0-26.718-8.906-26.718-26.718V96.496h15.622v20.148c0 5.743 1.265 9.831 3.796 12.264 2.628 2.336 6.862 3.504 12.702 3.504 5.061 0 11.047-.973 17.958-2.92V96.496zm22.404 56.21c0-14.016 10.269-21.997 30.806-23.944l21.608-2.044v-5.84c0-4.477-1.411-8.079-4.234-10.804-2.725-2.725-6.862-4.088-12.41-4.088-4.964 0-9.052 1.168-12.264 3.504-3.212 2.239-4.964 5.548-5.256 9.928h-14.308c.292-8.468 3.358-14.697 9.198-18.688 5.84-3.99 13.383-5.986 22.63-5.986 10.415 0 18.396 2.482 23.944 7.446 5.548 4.964 8.322 12.264 8.322 21.9V173h-14.454v-14.892c-2.433 5.256-6.083 9.344-10.95 12.264-4.867 2.92-10.755 4.38-17.666 4.38-8.273 0-14.503-2.044-18.688-6.132-4.185-4.088-6.278-9.393-6.278-15.914zm15.476-.73c0 3.504 1.168 6.375 3.504 8.614 2.433 2.141 6.035 3.212 10.804 3.212 6.911 0 12.41-2.141 16.498-6.424 4.088-4.38 6.132-9.977 6.132-16.79V136.5l-19.564 1.898c-11.583 1.168-17.374 5.694-17.374 13.578zm70.574-55.48h56.502V173h-15.622v-63.656H404.09c-.292 3.601-.633 8.614-1.022 15.038-.292 5.451-.536 9.441-.73 11.972a693.55 693.55 0 01-.876 9.782c-.39 3.991-.779 6.911-1.168 8.76-.39 1.752-.974 3.991-1.752 6.716-.682 2.628-1.509 4.526-2.482 5.694-.876 1.071-1.996 2.239-3.358 3.504-1.363 1.265-2.92 2.093-4.672 2.482-1.752.487-3.748.73-5.986.73-2.628 0-4.964-.195-7.008-.584v-12.556c1.07.097 2.287.146 3.65.146 4.088 0 6.91-5.11 8.468-15.33.681-4.867 1.654-19.223 2.92-43.07a1226 1226 0 01.292-6.132zm73.028 67.598c-6.716-7.203-10.074-16.985-10.074-29.346s3.358-22.095 10.074-29.2c6.814-7.203 15.914-10.804 27.302-10.804 11.486 0 20.586 3.601 27.302 10.804 6.814 7.105 10.22 16.839 10.22 29.2s-3.406 22.143-10.22 29.346c-6.716 7.105-15.816 10.658-27.302 10.658-11.388 0-20.488-3.553-27.302-10.658zm11.242-49.494c-3.893 5.061-5.84 11.777-5.84 20.148s1.947 15.087 5.84 20.148c3.991 5.061 9.344 7.592 16.06 7.592 6.716 0 12.07-2.531 16.06-7.592 3.991-5.061 5.986-11.777 5.986-20.148s-1.995-15.087-5.986-20.148c-3.99-5.061-9.344-7.592-16.06-7.592-6.716 0-12.069 2.531-16.06 7.592zm84.59 58.4V96.496h66.868V173h-15.622v-63.656h-35.624V173h-15.622zm130.209-76.504h16.644l-27.156 84.242c-2.53 8.857-5.791 14.941-9.782 18.25-3.99 3.309-10.025 4.964-18.104 4.964-3.017 0-6.132-.195-9.344-.584v-11.972c3.894.195 6.668.292 8.322.292 4.088 0 7.203-.925 9.344-2.774 2.142-1.752 3.942-5.159 5.402-10.22l1.752-5.694h-9.052l-27.886-76.504h16.79l23.652 70.226 19.418-70.226zm13.662 12.848V96.496h67.014v12.848h-25.696V173h-15.622v-63.656h-25.696zm118.249-12.848h23.214V173h-15.038v-65.116L797.402 173h-23.214V96.496h15.038v65.116l32.12-65.116zM854.672 173v-18.98h17.666V173h-17.666z" fill="#fff"/><rect x="1369" y="557" width="461" height="346" rx="23" fill="#F4E107"/><path d="M1415.88 593.1V612h-2.49v-16.875h-9.64V612h-2.48v-18.9h14.61zm4.23 17.253c-1.2-1.332-1.81-3.141-1.81-5.427 0-2.286.61-4.086 1.81-5.4 1.23-1.332 2.86-1.998 4.89-1.998s3.65.666 4.86 1.998c1.21 1.314 1.81 3.114 1.81 5.4 0 2.286-.6 4.095-1.81 5.427-1.21 1.314-2.83 1.971-4.86 1.971-2.03 0-3.66-.657-4.89-1.971zm1.7-9.45c-.77 1.008-1.16 2.349-1.16 4.023 0 1.674.39 3.015 1.16 4.023.8 1.008 1.86 1.512 3.19 1.512 1.31 0 2.36-.504 3.13-1.512.79-1.008 1.19-2.349 1.19-4.023 0-1.674-.4-3.015-1.19-4.023-.77-1.008-1.82-1.512-3.13-1.512-1.33 0-2.39.504-3.19 1.512zm13.06-3.051h9.93V612h-2.37v-12.204h-5.46l-.21 3.213a94.55 94.55 0 01-.19 2.889c-.04.594-.11 1.332-.22 2.214-.1.882-.23 1.503-.37 1.863-.15.36-.35.756-.6 1.188-.25.414-.56.693-.92.837-.36.126-.79.189-1.29.189-.27 0-.66-.036-1.16-.108v-1.89c.18.018.39.027.64.027.4 0 .72-.171.95-.513.23-.342.42-1.017.57-2.025.16-1.026.27-1.926.32-2.7.05-.774.13-2.115.22-4.023.07-1.332.12-2.367.16-3.105zm22.56 0h2.54l-5.27 15.768c-.48 1.566-1.06 2.637-1.73 3.213-.66.594-1.67.891-3.02.891-.45 0-.97-.027-1.57-.081v-1.836c.65.036 1.13.054 1.44.054.73 0 1.29-.18 1.67-.54.38-.36.73-1.044 1.05-2.052l.41-1.269h-1.33l-5.34-14.148h2.59l4.64 13.203 3.92-13.203zm12.85 0h2.35V612h-2.35v-5.886c-1.78.378-3.27.567-4.46.567-3.24 0-4.86-1.584-4.86-4.752v-4.077h2.38v3.753c0 1.116.26 1.917.78 2.403.54.486 1.38.729 2.51.729.98 0 2.19-.198 3.65-.594v-6.291zm14.06 0h3.54V612h-2.27v-12.447L1479.02 612h-3.56v-14.148h2.29v12.447l6.59-12.447zM1490.7 612v-14.148h2.32v12.204h6.19v-12.204h2.32v12.204h6.18v-12.204h2.32V612h-19.33zm28.29-8.721c3.58 0 5.37 1.449 5.37 4.347 0 2.916-1.79 4.374-5.37 4.374h-6.13v-14.148h2.37v5.427h3.76zm-.19 6.912c2.14 0 3.21-.864 3.21-2.592 0-1.692-1.07-2.538-3.21-2.538h-3.57v5.13h3.57zm12.47 1.809v-14.148h11.88V612h-2.35v-12.204h-7.15V612h-2.38zm15.72-1.647c-1.21-1.332-1.81-3.141-1.81-5.427 0-2.286.6-4.086 1.81-5.4 1.22-1.332 2.85-1.998 4.89-1.998 2.03 0 3.65.666 4.86 1.998 1.2 1.314 1.81 3.114 1.81 5.4 0 2.286-.61 4.095-1.81 5.427-1.21 1.314-2.83 1.971-4.86 1.971-2.04 0-3.67-.657-4.89-1.971zm1.7-9.45c-.77 1.008-1.16 2.349-1.16 4.023 0 1.674.39 3.015 1.16 4.023.79 1.008 1.85 1.512 3.19 1.512 1.31 0 2.35-.504 3.13-1.512.79-1.008 1.19-2.349 1.19-4.023 0-1.674-.4-3.015-1.19-4.023-.78-1.008-1.82-1.512-3.13-1.512-1.34 0-2.4.504-3.19 1.512zM1560.58 612v-14.148h2.37v5.967h7.32v-5.967h2.35V612h-2.35v-6.237h-7.32V612h-2.37zm23.76-14.148h3.53V612h-2.26v-12.447L1579.02 612h-3.57v-14.148h2.3v12.447l6.59-12.447zm19.35 0h3.94V612h-2.3v-12.501l-4.7 12.501h-2.97l-4.67-12.501V612h-2.29v-14.148h3.97l4.51 12.852 4.51-12.852zm6.01 10.449c0-2.538 1.85-3.987 5.56-4.347l4.21-.405v-1.35c0-.882-.29-1.593-.86-2.133-.56-.558-1.39-.828-2.49-.81-1 0-1.83.234-2.48.702-.65.45-1 1.134-1.05 2.052h-2.19c.05-1.53.6-2.655 1.65-3.375 1.04-.738 2.4-1.107 4.07-1.107 1.86 0 3.27.441 4.24 1.323.97.882 1.46 2.151 1.46 3.807V612h-2.16v-2.916c-.45 1.026-1.13 1.827-2.05 2.403-.92.558-2.04.837-3.35.837-1.51 0-2.65-.369-3.43-1.107-.75-.756-1.13-1.728-1.13-2.916zm2.35-.081c0 .702.24 1.278.73 1.728.48.45 1.21.675 2.18.675 1.39 0 2.49-.432 3.3-1.296.81-.882 1.21-2.016 1.21-3.402v-.864l-3.94.405c-2.32.216-3.48 1.134-3.48 2.754zm12.46 3.78v-14.148h2.38v5.967h7.32v-5.967h2.34V612h-2.34v-6.237h-7.32V612h-2.38zm23.76-14.148h3.54V612h-2.27v-12.447L1642.95 612h-3.56v-14.148h2.29v12.447l6.59-12.447zm5.55 7.074c0-2.412.61-4.248 1.81-5.508 1.23-1.26 2.85-1.89 4.86-1.89 2.07 0 3.65.639 4.73 1.917 1.1 1.278 1.65 3.222 1.65 5.832v.324h-10.67c.09 1.62.53 2.862 1.32 3.726.81.846 1.87 1.269 3.16 1.269 1.84 0 3.09-.81 3.76-2.43l2.24.135c-.38 1.26-1.08 2.25-2.11 2.97-1.03.702-2.32 1.053-3.89 1.053-2.1 0-3.78-.621-5.02-1.863-1.22-1.26-1.84-3.105-1.84-5.535zm2.41-.891h8.29c-.02-1.476-.4-2.637-1.14-3.483-.72-.864-1.68-1.296-2.89-1.296-1.18 0-2.17.414-2.94 1.242-.77.81-1.21 1.989-1.32 3.537zm12.46 11.07v-6.21h2.73v1.89l-1.65 4.32h-1.08zM1413.42 641h-2.94l-5.3-6.237h-1.94V641h-2.38v-14.148h2.38v6.048h2l4.99-6.048h2.86l-6.15 6.804 6.48 7.344zm.03-3.699c0-2.538 1.86-3.987 5.57-4.347l4.21-.405v-1.35c0-.882-.29-1.593-.87-2.133-.55-.558-1.38-.828-2.48-.81-1.01 0-1.84.234-2.48.702-.65.45-1 1.134-1.06 2.052h-2.18c.05-1.53.6-2.655 1.64-3.375 1.05-.738 2.41-1.107 4.08-1.107 1.85 0 3.27.441 4.24 1.323.97.882 1.46 2.151 1.46 3.807V641h-2.16v-2.916a5.3 5.3 0 01-2.05 2.403c-.92.558-2.04.837-3.35.837-1.51 0-2.66-.369-3.43-1.107-.76-.756-1.14-1.728-1.14-2.916zm2.35-.081c0 .702.25 1.278.73 1.728.49.45 1.22.675 2.19.675 1.39 0 2.48-.432 3.29-1.296.81-.882 1.22-2.016 1.22-3.402v-.864l-3.94.405c-2.33.216-3.49 1.134-3.49 2.754zm25.02 3.78h-2.94l-5.29-6.237h-1.94V641h-2.38v-14.148h2.38v6.048h1.99l5-6.048h2.86l-6.16 6.804 6.48 7.344zm6.18 0v-14.148h11.88V641h-2.35v-12.204h-7.15V641H1447zm15.72-1.647c-1.21-1.332-1.81-3.141-1.81-5.427 0-2.286.6-4.086 1.81-5.4 1.22-1.332 2.85-1.998 4.89-1.998 2.03 0 3.65.666 4.86 1.998 1.2 1.314 1.8 3.114 1.8 5.4 0 2.286-.6 4.095-1.8 5.427-1.21 1.314-2.83 1.971-4.86 1.971-2.04 0-3.67-.657-4.89-1.971zm1.7-9.45c-.77 1.008-1.16 2.349-1.16 4.023 0 1.674.39 3.015 1.16 4.023.79 1.008 1.85 1.512 3.19 1.512 1.31 0 2.35-.504 3.13-1.512.79-1.008 1.19-2.349 1.19-4.023 0-1.674-.4-3.015-1.19-4.023-.78-1.008-1.82-1.512-3.13-1.512-1.34 0-2.4.504-3.19 1.512zm13.05-3.051h9.94V641h-2.38v-12.204h-5.45c-.05.774-.13 1.845-.22 3.213-.07 1.332-.13 2.295-.19 2.889-.03.594-.1 1.332-.21 2.214-.11.882-.24 1.503-.38 1.863-.14.36-.34.756-.59 1.188-.26.414-.56.693-.92.837-.36.126-.79.189-1.3.189-.27 0-.65-.036-1.16-.108v-1.89c.18.018.4.027.65.027.4 0 .71-.171.94-.513.24-.342.43-1.017.57-2.025.16-1.026.27-1.926.33-2.7.05-.774.12-2.115.21-4.023.07-1.332.13-2.367.16-3.105zM1490.23 641v-14.148h2.38v5.967h7.32v-5.967h2.35V641h-2.35v-6.237h-7.32V641h-2.38zm15.88-1.647c-1.21-1.332-1.81-3.141-1.81-5.427 0-2.286.6-4.086 1.81-5.4 1.22-1.332 2.85-1.998 4.89-1.998 2.03 0 3.65.666 4.86 1.998 1.2 1.314 1.81 3.114 1.81 5.4 0 2.286-.61 4.095-1.81 5.427-1.21 1.314-2.83 1.971-4.86 1.971-2.04 0-3.67-.657-4.89-1.971zm1.7-9.45c-.77 1.008-1.16 2.349-1.16 4.023 0 1.674.39 3.015 1.16 4.023.79 1.008 1.85 1.512 3.19 1.512 1.31 0 2.35-.504 3.13-1.512.79-1.008 1.19-2.349 1.19-4.023 0-1.674-.4-3.015-1.19-4.023-.78-1.008-1.82-1.512-3.13-1.512-1.34 0-2.4.504-3.19 1.512zm11.08 4.023c0-2.358.58-4.176 1.75-5.454 1.17-1.296 2.76-1.944 4.75-1.944 1.62 0 2.98.432 4.08 1.296 1.12.864 1.78 2.097 2 3.699l-2.27.216c-.18-1.098-.62-1.926-1.32-2.484-.69-.576-1.51-.864-2.49-.864-1.26 0-2.26.495-3.02 1.485-.76.972-1.13 2.322-1.13 4.05 0 1.728.37 3.087 1.13 4.077.77.972 1.8 1.458 3.08 1.458 1.01 0 1.85-.297 2.54-.891.7-.612 1.15-1.476 1.35-2.592l2.26.189c-.21 1.638-.88 2.907-1.99 3.807-1.12.9-2.51 1.35-4.16 1.35-2.04 0-3.64-.639-4.81-1.917-1.17-1.278-1.75-3.105-1.75-5.481zm13.07-5.13v-1.944h11.93v1.944h-4.77V641h-2.38v-12.204h-4.78zm19.66 3.483c3.59 0 5.38 1.449 5.38 4.347 0 2.916-1.79 4.374-5.38 4.374h-6.13v-14.148h2.38v5.427h3.75zm-.19 6.912c2.15 0 3.22-.864 3.22-2.592 0-1.692-1.07-2.538-3.22-2.538h-3.56v5.13h3.56zm19.29-12.663c2.02 0 3.6.648 4.75 1.944 1.17 1.278 1.76 3.096 1.76 5.454 0 2.358-.59 4.185-1.76 5.481-1.15 1.278-2.73 1.917-4.75 1.917-1.89 0-3.41-.567-4.56-1.701-1.16-1.152-1.8-2.772-1.95-4.86h-2.89V641h-2.37v-14.148h2.37v5.967h2.92c.18-2.016.84-3.564 1.97-4.644 1.15-1.098 2.66-1.647 4.51-1.647zm-3.05 11.475c.75.972 1.77 1.458 3.05 1.458 1.28 0 2.29-.486 3.02-1.458.76-.99 1.14-2.349 1.14-4.077 0-1.728-.38-3.078-1.14-4.05-.73-.99-1.74-1.485-3.02-1.485s-2.3.495-3.05 1.485c-.76.972-1.14 2.322-1.14 4.05 0 1.728.38 3.087 1.14 4.077zm16.89 2.997v-14.148h11.88V641h-2.35v-12.204h-7.15V641h-2.38zm14.72 5.4v-19.548h2.19v3.024c.43-1.062 1.08-1.881 1.94-2.457.88-.594 1.89-.891 3.02-.891 1.77 0 3.19.657 4.27 1.971 1.08 1.314 1.62 3.123 1.62 5.427 0 2.304-.54 4.113-1.62 5.427-1.08 1.314-2.5 1.971-4.27 1.971-1.06 0-2-.261-2.83-.783-.83-.522-1.48-1.269-1.94-2.241v8.1h-2.38zm3.37-16.497c-.75 1.008-1.13 2.349-1.13 4.023 0 1.674.38 3.015 1.13 4.023.78 1.008 1.81 1.512 3.11 1.512 1.3 0 2.32-.504 3.08-1.512.75-1.008 1.13-2.349 1.13-4.023 0-1.674-.38-3.015-1.13-4.023-.76-1.008-1.78-1.512-3.08-1.512s-2.33.504-3.11 1.512zm12.69 9.45c-1.21-1.332-1.81-3.141-1.81-5.427 0-2.286.6-4.086 1.81-5.4 1.22-1.332 2.85-1.998 4.89-1.998 2.03 0 3.65.666 4.86 1.998 1.2 1.314 1.81 3.114 1.81 5.4 0 2.286-.61 4.095-1.81 5.427-1.21 1.314-2.83 1.971-4.86 1.971-2.04 0-3.67-.657-4.89-1.971zm1.7-9.45c-.77 1.008-1.16 2.349-1.16 4.023 0 1.674.39 3.015 1.16 4.023.79 1.008 1.85 1.512 3.19 1.512 1.31 0 2.35-.504 3.13-1.512.79-1.008 1.19-2.349 1.19-4.023 0-1.674-.4-3.015-1.19-4.023-.78-1.008-1.82-1.512-3.13-1.512-1.34 0-2.4.504-3.19 1.512zm20.88-5.913c-.63.648-1.56.972-2.78.972-1.23 0-2.15-.324-2.78-.972-.63-.666-.97-1.548-1-2.646h1.59c.05.612.25 1.134.59 1.566.35.432.88.648 1.6.648 1.31 0 2.05-.738 2.21-2.214h1.59c-.03 1.098-.37 1.98-1.02 2.646zm-.11 2.862h3.54V641h-2.27v-12.447L1632.49 641h-3.56v-14.148h2.29v12.447l6.59-12.447zm5.12 1.944v-1.944h11.93v1.944h-4.77V641h-2.38v-12.204h-4.78zm22.42-1.944h3.54V641h-2.27v-12.447L1660.03 641h-3.56v-14.148h2.29v12.447l6.59-12.447zM1689.83 641h-2.94l-5.29-6.237h-1.94V641h-2.38v-14.148h2.38v6.048h1.99l5-6.048h2.86l-6.16 6.804 6.48 7.344zm11.07-14.148h2.54l-5.26 15.768c-.49 1.566-1.07 2.637-1.73 3.213-.67.594-1.68.891-3.03.891-.45 0-.97-.027-1.56-.081v-1.836c.65.036 1.12.054 1.43.054.74 0 1.29-.18 1.67-.54.38-.36.73-1.044 1.06-2.052l.4-1.269h-1.32l-5.35-14.148h2.59l4.65 13.203 3.91-13.203zm4.05 19.548v-19.548h2.19v3.024c.43-1.062 1.08-1.881 1.94-2.457.88-.594 1.89-.891 3.03-.891 1.76 0 3.18.657 4.26 1.971 1.08 1.314 1.62 3.123 1.62 5.427 0 2.304-.54 4.113-1.62 5.427-1.08 1.314-2.5 1.971-4.26 1.971-1.07 0-2.01-.261-2.84-.783-.83-.522-1.48-1.269-1.94-2.241v8.1h-2.38zm3.38-16.497c-.76 1.008-1.14 2.349-1.14 4.023 0 1.674.38 3.015 1.14 4.023.77 1.008 1.8 1.512 3.1 1.512s2.32-.504 3.08-1.512c.75-1.008 1.13-2.349 1.13-4.023 0-1.674-.38-3.015-1.13-4.023-.76-1.008-1.78-1.512-3.08-1.512s-2.33.504-3.1 1.512zm10.87 4.023c0-2.358.59-4.176 1.76-5.454 1.17-1.296 2.75-1.944 4.75-1.944 1.62 0 2.98.432 4.08 1.296 1.11.864 1.78 2.097 1.99 3.699l-2.26.216c-.18-1.098-.63-1.926-1.33-2.484-.68-.576-1.51-.864-2.48-.864-1.26 0-2.27.495-3.03 1.485-.75.972-1.13 2.322-1.13 4.05 0 1.728.38 3.087 1.13 4.077.78.972 1.8 1.458 3.08 1.458 1.01 0 1.86-.297 2.54-.891.7-.612 1.15-1.476 1.35-2.592l2.27.189c-.22 1.638-.88 2.907-2 3.807-1.12.9-2.5 1.35-4.16 1.35-2.03 0-3.63-.639-4.8-1.917s-1.76-3.105-1.76-5.481zm-309.45 21.926h3.53V670h-2.26v-12.447L1404.43 670h-3.57v-14.148h2.3v12.447l6.59-12.447zm19.54 6.858c2.77.252 4.16 1.404 4.16 3.456 0 1.116-.41 2.034-1.22 2.754-.81.72-2.1 1.08-3.88 1.08h-6.67v-14.148h6.34c1.64 0 2.88.324 3.73.972.84.648 1.27 1.512 1.27 2.592 0 1.836-1.24 2.934-3.73 3.294zm-5.24-5.076v4.374h3.78c.96 0 1.66-.198 2.11-.594.47-.396.7-.927.7-1.593 0-1.458-.98-2.187-2.94-2.187h-3.65zm4.03 10.584c1.99 0 2.99-.783 2.99-2.349 0-1.53-1.04-2.295-3.13-2.295h-3.89v4.644h4.03zm13.22-6.939c3.59 0 5.38 1.449 5.38 4.347 0 2.916-1.79 4.374-5.38 4.374h-5.8v-14.148h2.38v5.427h3.42zm7.62-5.427h2.37V670h-2.37v-14.148zm-7.8 12.339c2.14 0 3.21-.864 3.21-2.592 0-1.692-1.07-2.538-3.21-2.538h-3.24v5.13h3.24zm32.6 1.809h-2.91l-4.76-6.237h-1.75V670h-2.32v-6.237h-1.76l-4.75 6.237h-2.92l5.89-7.344-5.67-6.804h2.81l4.56 6.048h1.84v-6.048h2.32v6.048h1.84l4.56-6.048h2.81l-5.67 6.804 5.88 7.344zm.03-3.699c0-2.538 1.86-3.987 5.56-4.347l4.22-.405v-1.35c0-.882-.29-1.593-.87-2.133-.56-.558-1.38-.828-2.48-.81-1.01 0-1.84.234-2.49.702-.64.45-1 1.134-1.05 2.052h-2.19c.06-1.53.61-2.655 1.65-3.375 1.04-.738 2.4-1.107 4.08-1.107 1.85 0 3.26.441 4.24 1.323.97.882 1.45 2.151 1.45 3.807V670h-2.16v-2.916c-.45 1.026-1.13 1.827-2.05 2.403-.92.558-2.03.837-3.35.837-1.51 0-2.65-.369-3.42-1.107-.76-.756-1.14-1.728-1.14-2.916zm2.35-.081c0 .702.24 1.278.73 1.728.49.45 1.21.675 2.19.675 1.38 0 2.48-.432 3.29-1.296.81-.882 1.22-2.016 1.22-3.402v-.864l-3.95.405c-2.32.216-3.48 1.134-3.48 2.754zm10.8-8.424v-1.944h11.94v1.944h-4.78V670h-2.38v-12.204h-4.78zm19.67 3.483c3.58 0 5.37 1.449 5.37 4.347 0 2.916-1.79 4.374-5.37 4.374h-6.13v-14.148h2.37v5.427h3.76zm-.19 6.912c2.14 0 3.21-.864 3.21-2.592 0-1.692-1.07-2.538-3.21-2.538h-3.57v5.13h3.57zm21.36-12.339h3.53V670H1529v-12.447L1522.42 670h-3.57v-14.148h2.3v12.447l6.59-12.447zm13.11 6.831c2.88.306 4.32 1.503 4.32 3.591 0 1.206-.47 2.187-1.41 2.943-.93.738-2.45 1.107-4.56 1.107-3.9 0-5.98-1.539-6.24-4.617l2.27-.108c.18 1.944 1.51 2.916 3.97 2.916 1.19 0 2.08-.225 2.67-.675.62-.468.92-1.098.92-1.89 0-1.584-1.28-2.376-3.86-2.376h-1.78v-1.566h1.67c1.19 0 2.07-.207 2.65-.621.59-.432.89-.99.89-1.674 0-.72-.29-1.296-.86-1.728-.58-.432-1.34-.648-2.3-.648-.97 0-1.78.234-2.43.702-.63.468-.99 1.161-1.08 2.079l-2.29-.135c.1-1.494.68-2.61 1.72-3.348 1.05-.738 2.41-1.107 4.08-1.107 1.8 0 3.17.342 4.11 1.026.95.666 1.43 1.566 1.43 2.7 0 1.926-1.3 3.069-3.89 3.429zm11.93 7.317v-14.148h2.37v5.967h7.32v-5.967h2.35V670h-2.35v-6.237h-7.32V670h-2.37zm14.06-7.074c0-2.412.61-4.248 1.81-5.508 1.23-1.26 2.85-1.89 4.86-1.89 2.07 0 3.65.639 4.73 1.917 1.1 1.278 1.65 3.222 1.65 5.832v.324h-10.67c.09 1.62.53 2.862 1.32 3.726.81.846 1.87 1.269 3.16 1.269 1.84 0 3.09-.81 3.76-2.43l2.24.135c-.38 1.26-1.08 2.25-2.11 2.97-1.03.702-2.32 1.053-3.89 1.053-2.1 0-3.78-.621-5.02-1.863-1.22-1.26-1.84-3.105-1.84-5.535zm2.41-.891h8.29c-.02-1.476-.4-2.637-1.14-3.483-.72-.864-1.68-1.296-2.89-1.296-1.18 0-2.17.414-2.94 1.242-.77.81-1.21 1.989-1.32 3.537zm12.6 7.965v-14.148h9.34v1.944h-6.97V670h-2.37zm11.2-1.647c-1.2-1.332-1.81-3.141-1.81-5.427 0-2.286.61-4.086 1.81-5.4 1.23-1.332 2.86-1.998 4.89-1.998s3.65.666 4.86 1.998c1.21 1.314 1.81 3.114 1.81 5.4 0 2.286-.6 4.095-1.81 5.427-1.21 1.314-2.83 1.971-4.86 1.971-2.03 0-3.66-.657-4.89-1.971zm1.7-9.45c-.77 1.008-1.16 2.349-1.16 4.023 0 1.674.39 3.015 1.16 4.023.8 1.008 1.86 1.512 3.19 1.512 1.31 0 2.36-.504 3.13-1.512.79-1.008 1.19-2.349 1.19-4.023 0-1.674-.4-3.015-1.19-4.023-.77-1.008-1.82-1.512-3.13-1.512-1.33 0-2.39.504-3.19 1.512zm30.18-3.051h3.95V670h-2.3v-12.501l-4.7 12.501h-2.97l-4.67-12.501V670h-2.29v-14.148h3.97l4.5 12.852 4.51-12.852zm6.01 10.449c0-2.538 1.86-3.987 5.57-4.347l4.21-.405v-1.35c0-.882-.29-1.593-.87-2.133-.55-.558-1.38-.828-2.48-.81-1.01 0-1.84.234-2.48.702-.65.45-1 1.134-1.06 2.052h-2.18c.05-1.53.6-2.655 1.64-3.375 1.05-.738 2.41-1.107 4.08-1.107 1.85 0 3.27.441 4.24 1.323.97.882 1.46 2.151 1.46 3.807V670h-2.16v-2.916a5.3 5.3 0 01-2.05 2.403c-.92.558-2.04.837-3.35.837-1.51 0-2.66-.369-3.43-1.107-.76-.756-1.14-1.728-1.14-2.916zm2.35-.081c0 .702.25 1.278.73 1.728.49.45 1.22.675 2.19.675 1.39 0 2.48-.432 3.29-1.296.81-.882 1.22-2.016 1.22-3.402v-.864l-3.94.405c-2.33.216-3.49 1.134-3.49 2.754zm25.03 3.78h-2.95l-5.29-6.237h-1.94V670h-2.38v-14.148h2.38v6.048h1.99l5-6.048h2.86l-6.15 6.804 6.48 7.344zm-.52-7.074c0-2.358.58-4.176 1.75-5.454 1.17-1.296 2.76-1.944 4.75-1.944 1.62 0 2.98.432 4.08 1.296 1.12.864 1.78 2.097 2 3.699l-2.27.216c-.18-1.098-.62-1.926-1.32-2.484-.69-.576-1.51-.864-2.49-.864-1.26 0-2.26.495-3.02 1.485-.76.972-1.13 2.322-1.13 4.05 0 1.728.37 3.087 1.13 4.077.77.972 1.8 1.458 3.08 1.458 1.01 0 1.85-.297 2.54-.891.7-.612 1.15-1.476 1.35-2.592l2.26.189c-.21 1.638-.88 2.907-1.99 3.807-1.12.9-2.51 1.35-4.16 1.35-2.04 0-3.64-.639-4.81-1.917-1.17-1.278-1.75-3.105-1.75-5.481zm23.43-7.074h3.54V670h-2.27v-12.447L1675.91 670h-3.56v-14.148h2.29v12.447l6.59-12.447zm19.35 0h3.94V670h-2.29v-12.501l-4.7 12.501h-2.97l-4.67-12.501V670h-2.3v-14.148h3.97l4.51 12.852 4.51-12.852zm16.57 0h2.54l-5.27 15.768c-.48 1.566-1.06 2.637-1.72 3.213-.67.594-1.68.891-3.03.891-.45 0-.97-.027-1.56-.081v-1.836c.64.036 1.12.054 1.43.054.73 0 1.29-.18 1.67-.54.38-.36.73-1.044 1.05-2.052l.41-1.269h-1.32l-5.35-14.148h2.59l4.65 13.203 3.91-13.203zm17.03 0h3.95V670h-2.3v-12.501l-4.7 12.501h-2.97l-4.67-12.501V670h-2.29v-14.148h3.97l4.51 12.852 4.5-12.852zM1400.86 699v-14.148h11.88V699h-2.35v-12.204h-7.15V699h-2.38zm15.72-1.647c-1.21-1.332-1.81-3.141-1.81-5.427 0-2.286.6-4.086 1.81-5.4 1.22-1.332 2.85-1.998 4.89-1.998 2.03 0 3.65.666 4.86 1.998 1.2 1.314 1.81 3.114 1.81 5.4 0 2.286-.61 4.095-1.81 5.427-1.21 1.314-2.83 1.971-4.86 1.971-2.04 0-3.67-.657-4.89-1.971zm1.7-9.45c-.77 1.008-1.16 2.349-1.16 4.023 0 1.674.39 3.015 1.16 4.023.79 1.008 1.86 1.512 3.19 1.512 1.31 0 2.36-.504 3.13-1.512.79-1.008 1.19-2.349 1.19-4.023 0-1.674-.4-3.015-1.19-4.023-.77-1.008-1.82-1.512-3.13-1.512-1.33 0-2.4.504-3.19 1.512zm13.06-3.051h9.93V699h-2.37v-12.204h-5.46l-.21 3.213c-.08 1.332-.14 2.295-.19 2.889-.04.594-.11 1.332-.22 2.214-.11.882-.23 1.503-.38 1.863-.14.36-.34.756-.59 1.188-.25.414-.56.693-.92.837-.36.126-.79.189-1.3.189-.27 0-.65-.036-1.16-.108v-1.89c.18.018.4.027.65.027.4 0 .71-.171.95-.513.23-.342.42-1.017.56-2.025.17-1.026.27-1.926.33-2.7.05-.774.12-2.115.21-4.023.08-1.332.13-2.367.17-3.105zm18.88 5.427c3.59 0 5.38 1.449 5.38 4.347 0 2.916-1.79 4.374-5.38 4.374h-6.12v-14.148h2.37v5.427h3.75zm-.18 6.912c2.14 0 3.21-.864 3.21-2.592 0-1.692-1.07-2.538-3.21-2.538h-3.57v5.13h3.57zm14.26-5.508c2.88.306 4.32 1.503 4.32 3.591 0 1.206-.47 2.187-1.41 2.943-.93.738-2.45 1.107-4.56 1.107-3.9 0-5.98-1.539-6.24-4.617l2.27-.108c.18 1.944 1.51 2.916 3.97 2.916 1.19 0 2.08-.225 2.67-.675.62-.468.92-1.098.92-1.89 0-1.584-1.28-2.376-3.86-2.376h-1.78v-1.566h1.67c1.19 0 2.07-.207 2.65-.621.59-.432.89-.99.89-1.674 0-.72-.29-1.296-.86-1.728-.58-.432-1.34-.648-2.3-.648-.97 0-1.78.234-2.43.702-.63.468-.99 1.161-1.08 2.079l-2.29-.135c.1-1.494.68-2.61 1.72-3.348 1.05-.738 2.41-1.107 4.08-1.107 1.8 0 3.17.342 4.11 1.026.95.666 1.43 1.566 1.43 2.7 0 1.926-1.3 3.069-3.89 3.429zm12.16-1.404c3.58 0 5.38 1.449 5.38 4.347 0 2.916-1.8 4.374-5.38 4.374h-5.8v-14.148h2.37v5.427h3.43zm7.62-5.427h2.37V699h-2.37v-14.148zm-7.81 12.339c2.15 0 3.22-.864 3.22-2.592 0-1.692-1.07-2.538-3.22-2.538h-3.24v5.13h3.24zm29.3-.135h1.65v5.751h-2.24V699h-9.69v3.807h-2.24v-5.751h1.05a9.16 9.16 0 00.54-1.674c.16-.666.3-1.692.4-3.078.13-1.386.21-2.403.25-3.051.05-.666.14-2.133.27-4.401h10.01v12.204zm-2.37 0v-10.26h-5.59c-.33 4.626-.59 7.497-.78 8.613-.13.648-.27 1.197-.44 1.647h6.81zm6.95-12.204h9.94V699h-2.38v-12.204h-5.45c-.05.774-.13 1.845-.22 3.213-.07 1.332-.13 2.295-.19 2.889-.03.594-.1 1.332-.21 2.214-.11.882-.24 1.503-.38 1.863-.14.36-.34.756-.59 1.188-.26.414-.56.693-.92.837-.36.126-.79.189-1.3.189-.27 0-.65-.036-1.16-.108v-1.89c.18.018.4.027.65.027.4 0 .71-.171.94-.513.24-.342.43-1.017.57-2.025.16-1.026.27-1.926.33-2.7.05-.774.12-2.115.21-4.023.07-1.332.13-2.367.16-3.105zm17.41 0h6.37V699h-2.4v-5.832h-3.08L1524.7 699h-2.84l4.24-5.94c-1.21-.198-2.13-.639-2.78-1.323-.65-.702-.97-1.611-.97-2.727 0-1.332.45-2.358 1.35-3.078.91-.72 2.2-1.08 3.86-1.08zm3.97 6.75v-4.941h-3.68c-.99 0-1.76.225-2.32.675-.54.432-.81 1.035-.81 1.809 0 .756.27 1.359.81 1.809.56.432 1.33.648 2.32.648h3.68zm9.73.324c0-2.358.58-4.176 1.75-5.454 1.17-1.296 2.76-1.944 4.75-1.944 1.62 0 2.98.432 4.08 1.296 1.12.864 1.78 2.097 2 3.699l-2.27.216c-.18-1.098-.62-1.926-1.32-2.484-.69-.576-1.51-.864-2.49-.864-1.26 0-2.26.495-3.02 1.485-.76.972-1.13 2.322-1.13 4.05 0 1.728.37 3.087 1.13 4.077.77.972 1.8 1.458 3.08 1.458 1.01 0 1.85-.297 2.54-.891.7-.612 1.15-1.476 1.35-2.592l2.26.189c-.21 1.638-.88 2.907-1.99 3.807-1.12.9-2.51 1.35-4.16 1.35-2.04 0-3.64-.639-4.81-1.917-1.17-1.278-1.75-3.105-1.75-5.481zm13.74 0c0-2.412.6-4.248 1.81-5.508 1.22-1.26 2.84-1.89 4.86-1.89 2.07 0 3.64.639 4.72 1.917 1.1 1.278 1.65 3.222 1.65 5.832v.324h-10.66c.09 1.62.53 2.862 1.32 3.726.81.846 1.86 1.269 3.16 1.269 1.83 0 3.08-.81 3.75-2.43l2.24.135c-.38 1.26-1.08 2.25-2.1 2.97-1.03.702-2.33 1.053-3.89 1.053-2.11 0-3.78-.621-5.02-1.863-1.23-1.26-1.84-3.105-1.84-5.535zm2.4-.891h8.29c-.02-1.476-.39-2.637-1.13-3.483-.72-.864-1.69-1.296-2.89-1.296-1.19 0-2.17.414-2.94 1.242-.78.81-1.22 1.989-1.33 3.537zm19.05-5.751c1.88 0 3.39.63 4.54 1.89 1.15 1.26 1.73 2.97 1.73 5.13 0 2.178-.61 3.897-1.81 5.157-1.19 1.242-2.81 1.863-4.86 1.863-4.47 0-6.7-2.997-6.7-8.991 0-3.15.44-5.553 1.33-7.209.88-1.656 2.32-2.691 4.32-3.105.37-.09.76-.162 1.16-.216.41-.072.84-.135 1.29-.189.47-.054.82-.099 1.06-.135 1.18-.18 2.12-.405 2.8-.675v1.863c-.48.306-1.32.549-2.51.729-.27.036-.68.09-1.24.162-.56.072-1.03.135-1.4.189-.74.09-1.37.261-1.89.513-.51.234-1 .621-1.49 1.161-.48.522-.87 1.287-1.16 2.295-.29 1.008-.48 2.259-.57 3.753.38-1.314 1.03-2.34 1.95-3.078.93-.738 2.09-1.107 3.45-1.107zm-.4 12.177c1.33 0 2.38-.459 3.16-1.377.77-.936 1.16-2.196 1.16-3.78 0-1.584-.39-2.835-1.16-3.753-.78-.936-1.83-1.404-3.16-1.404-1.35 0-2.41.468-3.19 1.404-.77.918-1.16 2.169-1.16 3.753s.39 2.844 1.16 3.78c.78.918 1.84 1.377 3.19 1.377zm13.08-12.609h6.37V699h-2.41v-5.832h-3.07l-3.76 5.832h-2.83l4.24-5.94c-1.21-.198-2.14-.639-2.78-1.323-.65-.702-.98-1.611-.98-2.727 0-1.332.45-2.358 1.35-3.078.92-.72 2.21-1.08 3.87-1.08zm3.96 6.75v-4.941h-3.67c-.99 0-1.76.225-2.32.675-.54.432-.81 1.035-.81 1.809 0 .756.27 1.359.81 1.809.56.432 1.33.648 2.32.648h3.67zm5.11 7.398v-3.105h2.72V699h-2.72zm-182.32 10.1V728h-2.49v-16.875h-9.64V728h-2.48v-18.9h14.61zm4.23 17.253c-1.2-1.332-1.81-3.141-1.81-5.427 0-2.286.61-4.086 1.81-5.4 1.23-1.332 2.86-1.998 4.89-1.998s3.65.666 4.86 1.998c1.21 1.314 1.81 3.114 1.81 5.4 0 2.286-.6 4.095-1.81 5.427-1.21 1.314-2.83 1.971-4.86 1.971-2.03 0-3.66-.657-4.89-1.971zm1.7-9.45c-.77 1.008-1.16 2.349-1.16 4.023 0 1.674.39 3.015 1.16 4.023.8 1.008 1.86 1.512 3.19 1.512 1.31 0 2.36-.504 3.13-1.512.79-1.008 1.19-2.349 1.19-4.023 0-1.674-.4-3.015-1.19-4.023-.77-1.008-1.82-1.512-3.13-1.512-1.33 0-2.39.504-3.19 1.512zm11.08 4.023c0-2.358.59-4.176 1.76-5.454 1.17-1.296 2.75-1.944 4.75-1.944 1.62 0 2.98.432 4.08 1.296 1.11.864 1.78 2.097 1.99 3.699l-2.26.216c-.18-1.098-.63-1.926-1.33-2.484-.68-.576-1.51-.864-2.48-.864-1.26 0-2.27.495-3.03 1.485-.75.972-1.13 2.322-1.13 4.05 0 1.728.38 3.087 1.13 4.077.78.972 1.8 1.458 3.08 1.458 1.01 0 1.86-.297 2.54-.891.7-.612 1.15-1.476 1.35-2.592l2.27.189c-.22 1.638-.88 2.907-2 3.807-1.12.9-2.5 1.35-4.16 1.35-2.03 0-3.63-.639-4.8-1.917s-1.76-3.105-1.76-5.481zm13.07-5.13v-1.944h11.94v1.944h-4.78V728h-2.38v-12.204h-4.78zm12.18 8.505c0-2.538 1.85-3.987 5.56-4.347l4.21-.405v-1.35c0-.882-.29-1.593-.86-2.133-.56-.558-1.39-.828-2.49-.81-1.01 0-1.83.234-2.48.702-.65.45-1 1.134-1.05 2.052h-2.19c.05-1.53.6-2.655 1.65-3.375 1.04-.738 2.4-1.107 4.07-1.107 1.86 0 3.27.441 4.24 1.323.97.882 1.46 2.151 1.46 3.807V728h-2.16v-2.916c-.45 1.026-1.13 1.827-2.05 2.403-.92.558-2.04.837-3.35.837-1.51 0-2.66-.369-3.43-1.107-.76-.756-1.13-1.728-1.13-2.916zm2.35-.081c0 .702.24 1.278.72 1.728.49.45 1.22.675 2.19.675 1.39 0 2.49-.432 3.3-1.296.81-.882 1.21-2.016 1.21-3.402v-.864l-3.94.405c-2.32.216-3.48 1.134-3.48 2.754zm20.08-3.51c2.77.252 4.15 1.404 4.15 3.456 0 1.116-.4 2.034-1.21 2.754-.81.72-2.11 1.08-3.89 1.08h-6.67v-14.148h6.35c1.63 0 2.88.324 3.72.972.85.648 1.27 1.512 1.27 2.592 0 1.836-1.24 2.934-3.72 3.294zm-5.24-5.076v4.374h3.78c.95 0 1.65-.198 2.1-.594.47-.396.71-.927.71-1.593 0-1.458-.99-2.187-2.95-2.187h-3.64zm4.02 10.584c2 0 3-.783 3-2.349 0-1.53-1.05-2.295-3.13-2.295h-3.89v4.644h4.02zm16.31-12.366h3.53V728h-2.26v-12.447L1490.34 728h-3.57v-14.148h2.3v12.447l6.59-12.447zm6.36 14.148v-14.148h2.32v12.204h6.18v-12.204h2.33v12.204h6.18v-12.204h2.32V728h-19.33zm28.28-8.721c3.58 0 5.38 1.449 5.38 4.347 0 2.916-1.8 4.374-5.38 4.374h-6.13v-14.148h2.38v5.427h3.75zm-.19 6.912c2.15 0 3.22-.864 3.22-2.592 0-1.692-1.07-2.538-3.22-2.538h-3.56v5.13h3.56zm12.48 1.809v-14.148h2.37v12.204h7.16v-12.204h2.35v12.204h1.67v5.751h-2.24V728h-11.31zm14.09-7.074c0-2.412.6-4.248 1.81-5.508 1.22-1.26 2.84-1.89 4.86-1.89 2.07 0 3.65.639 4.73 1.917 1.09 1.278 1.64 3.222 1.64 5.832v.324h-10.66c.09 1.62.53 2.862 1.32 3.726.81.846 1.86 1.269 3.16 1.269 1.84 0 3.09-.81 3.75-2.43l2.24.135c-.37 1.26-1.08 2.25-2.1 2.97-1.03.702-2.32 1.053-3.89 1.053-2.11 0-3.78-.621-5.02-1.863-1.23-1.26-1.84-3.105-1.84-5.535zm2.4-.891h8.29c-.01-1.476-.39-2.637-1.13-3.483-.72-.864-1.68-1.296-2.89-1.296-1.19 0-2.17.414-2.94 1.242-.78.81-1.22 1.989-1.33 3.537zm13.8-6.183h9.93V728h-2.37v-12.204h-5.46l-.21 3.213c-.08 1.332-.14 2.295-.19 2.889-.04.594-.11 1.332-.22 2.214-.11.882-.23 1.503-.38 1.863-.14.36-.34.756-.59 1.188-.25.414-.56.693-.92.837-.36.126-.79.189-1.29.189-.27 0-.66-.036-1.17-.108v-1.89c.18.018.4.027.65.027.4 0 .71-.171.95-.513.23-.342.42-1.017.56-2.025.17-1.026.27-1.926.33-2.7.05-.774.12-2.115.21-4.023.08-1.332.13-2.367.17-3.105zm21.64 0h3.54V728h-2.27v-12.447L1589.2 728h-3.56v-14.148h2.29v12.447l6.59-12.447zm6.23 14.148v-3.105h2.72V728h-2.72zm-184.87 39.1V786h-2.49v-16.875h-9.64V786h-2.48v-18.9h14.61zm4.23 17.253c-1.2-1.332-1.81-3.141-1.81-5.427 0-2.286.61-4.086 1.81-5.4 1.23-1.332 2.86-1.998 4.89-1.998s3.65.666 4.86 1.998c1.21 1.314 1.81 3.114 1.81 5.4 0 2.286-.6 4.095-1.81 5.427-1.21 1.314-2.83 1.971-4.86 1.971-2.03 0-3.66-.657-4.89-1.971zm1.7-9.45c-.77 1.008-1.16 2.349-1.16 4.023 0 1.674.39 3.015 1.16 4.023.8 1.008 1.86 1.512 3.19 1.512 1.31 0 2.36-.504 3.13-1.512.79-1.008 1.19-2.349 1.19-4.023 0-1.674-.4-3.015-1.19-4.023-.77-1.008-1.82-1.512-3.13-1.512-1.33 0-2.39.504-3.19 1.512zm22.7 9.153h1.64v5.751h-2.24V786h-9.69v3.807h-2.24v-5.751h1.05c.22-.468.4-1.026.54-1.674.16-.666.3-1.692.41-3.078.12-1.386.2-2.403.24-3.051.05-.666.14-2.133.27-4.401h10.02v12.204zm-2.38 0v-10.26h-5.59c-.32 4.626-.58 7.497-.78 8.613-.13.648-.27 1.197-.43 1.647h6.8zm5.52 1.944v-14.148h9.35v1.944h-6.97V786h-2.38zm11.21-1.647c-1.2-1.332-1.81-3.141-1.81-5.427 0-2.286.61-4.086 1.81-5.4 1.23-1.332 2.86-1.998 4.89-1.998s3.65.666 4.86 1.998c1.21 1.314 1.81 3.114 1.81 5.4 0 2.286-.6 4.095-1.81 5.427-1.21 1.314-2.83 1.971-4.86 1.971-2.03 0-3.66-.657-4.89-1.971zm1.7-9.45c-.77 1.008-1.16 2.349-1.16 4.023 0 1.674.39 3.015 1.16 4.023.8 1.008 1.86 1.512 3.19 1.512 1.31 0 2.36-.504 3.13-1.512.79-1.008 1.19-2.349 1.19-4.023 0-1.674-.4-3.015-1.19-4.023-.77-1.008-1.82-1.512-3.13-1.512-1.33 0-2.39.504-3.19 1.512zm9.94-1.107v-1.944h11.93v1.944h-4.78V786h-2.37v-12.204h-4.78zm13.85 10.557c-1.21-1.332-1.81-3.141-1.81-5.427 0-2.286.6-4.086 1.81-5.4 1.22-1.332 2.85-1.998 4.88-1.998 2.04 0 3.66.666 4.86 1.998 1.21 1.314 1.81 3.114 1.81 5.4 0 2.286-.6 4.095-1.81 5.427-1.2 1.314-2.82 1.971-4.86 1.971-2.03 0-3.66-.657-4.88-1.971zm1.7-9.45c-.78 1.008-1.16 2.349-1.16 4.023 0 1.674.38 3.015 1.16 4.023.79 1.008 1.85 1.512 3.18 1.512 1.32 0 2.36-.504 3.13-1.512.8-1.008 1.19-2.349 1.19-4.023 0-1.674-.39-3.015-1.19-4.023-.77-1.008-1.81-1.512-3.13-1.512-1.33 0-2.39.504-3.18 1.512zm19.5 3.807c2.77.252 4.15 1.404 4.15 3.456 0 1.116-.4 2.034-1.21 2.754-.81.72-2.11 1.08-3.89 1.08h-6.67v-14.148h6.35c1.64 0 2.88.324 3.72.972.85.648 1.27 1.512 1.27 2.592 0 1.836-1.24 2.934-3.72 3.294zm-5.24-5.076v4.374h3.78c.95 0 1.65-.198 2.1-.594.47-.396.71-.927.71-1.593 0-1.458-.98-2.187-2.95-2.187h-3.64zm4.02 10.584c2 0 3-.783 3-2.349 0-1.53-1.05-2.295-3.13-2.295h-3.89v4.644h4.02zm16.31-12.366h3.53V786h-2.26v-12.447L1515.32 786h-3.57v-14.148h2.3v12.447l6.59-12.447zM1527 786v-14.148h2.32v12.204h6.19v-12.204h2.32v12.204h6.18v-12.204h2.32V786H1527zm28.28-8.721c3.59 0 5.38 1.449 5.38 4.347 0 2.916-1.79 4.374-5.38 4.374h-6.13v-14.148h2.38v5.427h3.75zm-.19 6.912c2.15 0 3.22-.864 3.22-2.592 0-1.692-1.07-2.538-3.22-2.538h-3.56v5.13h3.56zm12.48 1.809v-14.148h9.34v1.944h-6.96V786h-2.38zm11.05 5.4v-19.548h2.19v3.024c.43-1.062 1.08-1.881 1.94-2.457.89-.594 1.89-.891 3.03-.891 1.76 0 3.18.657 4.26 1.971 1.08 1.314 1.62 3.123 1.62 5.427 0 2.304-.54 4.113-1.62 5.427-1.08 1.314-2.5 1.971-4.26 1.971-1.06 0-2.01-.261-2.84-.783-.83-.522-1.47-1.269-1.94-2.241v8.1h-2.38zm3.38-16.497c-.76 1.008-1.14 2.349-1.14 4.023 0 1.674.38 3.015 1.14 4.023.77 1.008 1.81 1.512 3.1 1.512 1.3 0 2.32-.504 3.08-1.512.76-1.008 1.13-2.349 1.13-4.023 0-1.674-.37-3.015-1.13-4.023-.76-1.008-1.78-1.512-3.08-1.512-1.29 0-2.33.504-3.1 1.512zm10.8 7.398c0-2.538 1.85-3.987 5.56-4.347l4.21-.405v-1.35c0-.882-.29-1.593-.86-2.133-.56-.558-1.39-.828-2.49-.81-1.01 0-1.83.234-2.48.702-.65.45-1 1.134-1.05 2.052h-2.19c.05-1.53.6-2.655 1.65-3.375 1.04-.738 2.4-1.107 4.07-1.107 1.86 0 3.27.441 4.24 1.323.97.882 1.46 2.151 1.46 3.807V786h-2.16v-2.916c-.45 1.026-1.13 1.827-2.05 2.403-.92.558-2.04.837-3.35.837-1.51 0-2.66-.369-3.43-1.107-.76-.756-1.13-1.728-1.13-2.916zm2.35-.081c0 .702.24 1.278.72 1.728.49.45 1.22.675 2.19.675 1.39 0 2.49-.432 3.3-1.296.81-.882 1.21-2.016 1.21-3.402v-.864l-3.94.405c-2.32.216-3.48 1.134-3.48 2.754zm21.7-10.692c2.26 0 4.05.657 5.34 1.971 1.3 1.296 1.95 3.105 1.95 5.427 0 2.322-.65 4.14-1.95 5.454-1.29 1.296-3.08 1.944-5.34 1.944h-.19v5.076h-2.3v-5.076h-.16c-2.29 0-4.09-.648-5.4-1.944-1.31-1.314-1.97-3.132-1.97-5.454 0-2.322.66-4.131 1.97-5.427 1.31-1.314 3.11-1.971 5.4-1.971h.16v-5.4h2.3v5.4h.19zm-2.6 12.933h.11v-11.07h-.11c-1.56 0-2.8.486-3.72 1.458-.92.972-1.38 2.331-1.38 4.077s.46 3.105 1.38 4.077c.92.972 2.16 1.458 3.72 1.458zm2.51 0c1.57 0 2.8-.486 3.7-1.458.92-.972 1.38-2.331 1.38-4.077s-.46-3.105-1.38-4.077c-.9-.972-2.13-1.458-3.7-1.458h-.1v11.07h.1zm18.33-12.609h3.54V786h-2.27v-12.447L1629.77 786h-3.56v-14.148h2.29v12.447l6.59-12.447zM1654.01 786h-2.95l-5.29-6.237h-1.94V786h-2.38v-14.148h2.38v6.048h2l4.99-6.048h2.86l-6.15 6.804 6.48 7.344zm-244.26 14.852h3.53V815h-2.26v-12.447L1404.43 815h-3.57v-14.148h2.3v12.447l6.59-12.447zm11.93 19.548v-19.548h2.18v3.024c.44-1.062 1.08-1.881 1.95-2.457.88-.594 1.89-.891 3.02-.891 1.77 0 3.19.657 4.27 1.971 1.08 1.314 1.62 3.123 1.62 5.427 0 2.304-.54 4.113-1.62 5.427-1.08 1.314-2.5 1.971-4.27 1.971-1.06 0-2-.261-2.83-.783-.83-.522-1.48-1.269-1.95-2.241v8.1h-2.37zm3.37-16.497c-.75 1.008-1.13 2.349-1.13 4.023 0 1.674.38 3.015 1.13 4.023.78 1.008 1.81 1.512 3.11 1.512 1.29 0 2.32-.504 3.08-1.512.75-1.008 1.13-2.349 1.13-4.023 0-1.674-.38-3.015-1.13-4.023-.76-1.008-1.79-1.512-3.08-1.512-1.3 0-2.33.504-3.11 1.512zm10.8 7.398c0-2.538 1.85-3.987 5.56-4.347l4.21-.405v-1.35c0-.882-.28-1.593-.86-2.133-.56-.558-1.39-.828-2.48-.81-1.01 0-1.84.234-2.49.702-.65.45-1 1.134-1.05 2.052h-2.19c.06-1.53.61-2.655 1.65-3.375 1.04-.738 2.4-1.107 4.08-1.107 1.85 0 3.26.441 4.24 1.323.97.882 1.45 2.151 1.45 3.807V815h-2.16v-2.916c-.45 1.026-1.13 1.827-2.05 2.403-.92.558-2.03.837-3.35.837-1.51 0-2.65-.369-3.43-1.107-.75-.756-1.13-1.728-1.13-2.916zm2.35-.081c0 .702.24 1.278.73 1.728.48.45 1.21.675 2.19.675 1.38 0 2.48-.432 3.29-1.296.81-.882 1.21-2.016 1.21-3.402v-.864l-3.94.405c-2.32.216-3.48 1.134-3.48 2.754zm18.92-9.936c1.87 0 3.38.63 4.54 1.89 1.15 1.26 1.72 2.97 1.72 5.13 0 2.178-.6 3.897-1.81 5.157-1.18 1.242-2.8 1.863-4.86 1.863-4.46 0-6.69-2.997-6.69-8.991 0-3.15.44-5.553 1.32-7.209.88-1.656 2.32-2.691 4.32-3.105.38-.09.77-.162 1.16-.216.42-.072.85-.135 1.3-.189.47-.054.82-.099 1.05-.135 1.19-.18 2.13-.405 2.81-.675v1.863c-.49.306-1.32.549-2.51.729l-1.24.162c-.56.072-1.03.135-1.41.189-.74.09-1.37.261-1.89.513-.5.234-1 .621-1.48 1.161-.49.522-.88 1.287-1.16 2.295-.29 1.008-.48 2.259-.57 3.753.38-1.314 1.03-2.34 1.94-3.078.94-.738 2.09-1.107 3.46-1.107zm-.41 12.177c1.34 0 2.39-.459 3.16-1.377.78-.936 1.16-2.196 1.16-3.78 0-1.584-.38-2.835-1.16-3.753-.77-.936-1.82-1.404-3.16-1.404-1.35 0-2.41.468-3.18 1.404-.78.918-1.16 2.169-1.16 3.753s.38 2.844 1.16 3.78c.77.918 1.83 1.377 3.18 1.377zm9.7-.108c-1.21-1.332-1.81-3.141-1.81-5.427 0-2.286.6-4.086 1.81-5.4 1.22-1.332 2.85-1.998 4.89-1.998 2.03 0 3.65.666 4.86 1.998 1.2 1.314 1.81 3.114 1.81 5.4 0 2.286-.61 4.095-1.81 5.427-1.21 1.314-2.83 1.971-4.86 1.971-2.04 0-3.67-.657-4.89-1.971zm1.7-9.45c-.77 1.008-1.16 2.349-1.16 4.023 0 1.674.39 3.015 1.16 4.023.79 1.008 1.85 1.512 3.19 1.512 1.31 0 2.35-.504 3.13-1.512.79-1.008 1.19-2.349 1.19-4.023 0-1.674-.4-3.015-1.19-4.023-.78-1.008-1.82-1.512-3.13-1.512-1.34 0-2.4.504-3.19 1.512zm20.53-3.051h2.35V815h-2.35v-5.886c-1.78.378-3.27.567-4.45.567-3.24 0-4.86-1.584-4.86-4.752v-4.077h2.37v3.753c0 1.116.26 1.917.79 2.403.54.486 1.37.729 2.51.729.97 0 2.18-.198 3.64-.594v-6.291zm4.37 7.074c0-2.412.6-4.248 1.81-5.508 1.22-1.26 2.84-1.89 4.86-1.89 2.07 0 3.64.639 4.72 1.917 1.1 1.278 1.65 3.222 1.65 5.832v.324h-10.66c.09 1.62.53 2.862 1.32 3.726.81.846 1.86 1.269 3.16 1.269 1.83 0 3.08-.81 3.75-2.43l2.24.135c-.38 1.26-1.08 2.25-2.1 2.97-1.03.702-2.33 1.053-3.89 1.053-2.11 0-3.78-.621-5.02-1.863-1.23-1.26-1.84-3.105-1.84-5.535zm2.4-.891h8.29c-.02-1.476-.39-2.637-1.13-3.483-.72-.864-1.69-1.296-2.89-1.296-1.19 0-2.17.414-2.94 1.242-.78.81-1.22 1.989-1.33 3.537zm11.79.891c0-2.412.6-4.248 1.81-5.508 1.22-1.26 2.84-1.89 4.86-1.89 2.07 0 3.64.639 4.72 1.917 1.1 1.278 1.65 3.222 1.65 5.832v.324h-10.66c.09 1.62.53 2.862 1.32 3.726.81.846 1.86 1.269 3.16 1.269 1.83 0 3.09-.81 3.75-2.43l2.24.135c-.38 1.26-1.08 2.25-2.1 2.97-1.03.702-2.33 1.053-3.89 1.053-2.11 0-3.78-.621-5.02-1.863-1.23-1.26-1.84-3.105-1.84-5.535zm2.4-.891h8.29c-.02-1.476-.39-2.637-1.13-3.483-.72-.864-1.68-1.296-2.89-1.296-1.19 0-2.17.414-2.94 1.242-.78.81-1.22 1.989-1.33 3.537zm18.17 7.965v-14.148h11.88V815h-2.35v-12.204h-7.15V815h-2.38zm14.72 5.4v-19.548h2.19v3.024c.43-1.062 1.08-1.881 1.94-2.457.88-.594 1.89-.891 3.02-.891 1.77 0 3.19.657 4.27 1.971 1.08 1.314 1.62 3.123 1.62 5.427 0 2.304-.54 4.113-1.62 5.427-1.08 1.314-2.5 1.971-4.27 1.971-1.06 0-2-.261-2.83-.783-.83-.522-1.48-1.269-1.95-2.241v8.1h-2.37zm3.37-16.497c-.75 1.008-1.13 2.349-1.13 4.023 0 1.674.38 3.015 1.13 4.023.78 1.008 1.81 1.512 3.11 1.512 1.29 0 2.32-.504 3.08-1.512.75-1.008 1.13-2.349 1.13-4.023 0-1.674-.38-3.015-1.13-4.023-.76-1.008-1.79-1.512-3.08-1.512-1.3 0-2.33.504-3.11 1.512zm12.69 9.45c-1.21-1.332-1.81-3.141-1.81-5.427 0-2.286.6-4.086 1.81-5.4 1.22-1.332 2.85-1.998 4.89-1.998 2.03 0 3.65.666 4.86 1.998 1.2 1.314 1.8 3.114 1.8 5.4 0 2.286-.6 4.095-1.8 5.427-1.21 1.314-2.83 1.971-4.86 1.971-2.04 0-3.67-.657-4.89-1.971zm1.7-9.45c-.77 1.008-1.16 2.349-1.16 4.023 0 1.674.39 3.015 1.16 4.023.79 1.008 1.85 1.512 3.19 1.512 1.31 0 2.35-.504 3.13-1.512.79-1.008 1.19-2.349 1.19-4.023 0-1.674-.4-3.015-1.19-4.023-.78-1.008-1.82-1.512-3.13-1.512-1.34 0-2.4.504-3.19 1.512zm11.08 4.023c0-2.358.58-4.176 1.75-5.454 1.17-1.296 2.76-1.944 4.75-1.944 1.62 0 2.98.432 4.08 1.296 1.12.864 1.78 2.097 2 3.699l-2.27.216c-.18-1.098-.62-1.926-1.32-2.484-.69-.576-1.51-.864-2.49-.864-1.26 0-2.26.495-3.02 1.485-.76.972-1.13 2.322-1.13 4.05 0 1.728.37 3.087 1.13 4.077.77.972 1.8 1.458 3.08 1.458 1.01 0 1.85-.297 2.54-.891.7-.612 1.15-1.476 1.35-2.592l2.26.189c-.21 1.638-.88 2.907-1.99 3.807-1.12.9-2.51 1.35-4.16 1.35-2.04 0-3.64-.639-4.81-1.917-1.17-1.278-1.75-3.105-1.75-5.481zm13.07-5.13v-1.944h11.93v1.944h-4.78V815h-2.37v-12.204h-4.78zm13.53 17.604v-19.548h2.19v3.024c.43-1.062 1.08-1.881 1.95-2.457.88-.594 1.89-.891 3.02-.891 1.76 0 3.19.657 4.27 1.971 1.08 1.314 1.62 3.123 1.62 5.427 0 2.304-.54 4.113-1.62 5.427-1.08 1.314-2.51 1.971-4.27 1.971-1.06 0-2.01-.261-2.84-.783-.82-.522-1.47-1.269-1.94-2.241v8.1h-2.38zm3.38-16.497c-.76 1.008-1.13 2.349-1.13 4.023 0 1.674.37 3.015 1.13 4.023.77 1.008 1.81 1.512 3.1 1.512 1.3 0 2.33-.504 3.08-1.512.76-1.008 1.14-2.349 1.14-4.023 0-1.674-.38-3.015-1.14-4.023-.75-1.008-1.78-1.512-3.08-1.512-1.29 0-2.33.504-3.1 1.512zm10.8 7.398c0-2.538 1.85-3.987 5.56-4.347l4.21-.405v-1.35c0-.882-.29-1.593-.86-2.133-.56-.558-1.39-.828-2.49-.81-1 0-1.83.234-2.48.702-.65.45-1 1.134-1.05 2.052h-2.19c.05-1.53.6-2.655 1.65-3.375 1.04-.738 2.4-1.107 4.07-1.107 1.86 0 3.27.441 4.24 1.323.97.882 1.46 2.151 1.46 3.807V815h-2.16v-2.916c-.45 1.026-1.13 1.827-2.05 2.403-.92.558-2.04.837-3.35.837-1.51 0-2.65-.369-3.43-1.107-.75-.756-1.13-1.728-1.13-2.916zm2.35-.081c0 .702.24 1.278.73 1.728.48.45 1.21.675 2.18.675 1.39 0 2.49-.432 3.3-1.296.81-.882 1.21-2.016 1.21-3.402v-.864l-3.94.405c-2.32.216-3.48 1.134-3.48 2.754zm12.46 3.78v-14.148h2.38v5.967h7.32v-5.967h2.35V815h-2.35v-6.237h-7.32V815h-2.38zm14.07-7.074c0-2.358.58-4.176 1.75-5.454 1.17-1.296 2.76-1.944 4.76-1.944 1.62 0 2.98.432 4.07 1.296 1.12.864 1.79 2.097 2 3.699l-2.27.216c-.18-1.098-.62-1.926-1.32-2.484-.68-.576-1.51-.864-2.48-.864-1.26 0-2.27.495-3.03 1.485-.75.972-1.13 2.322-1.13 4.05 0 1.728.38 3.087 1.13 4.077.78.972 1.8 1.458 3.08 1.458 1.01 0 1.85-.297 2.54-.891.7-.612 1.15-1.476 1.35-2.592l2.27.189c-.22 1.638-.89 2.907-2 3.807-1.12.9-2.5 1.35-4.16 1.35-2.03 0-3.64-.639-4.81-1.917-1.17-1.278-1.75-3.105-1.75-5.481zm13.07-5.13v-1.944H1666v1.944h-4.78V815h-2.38v-12.204h-4.78zm21.15 4.914c2.77.252 4.16 1.404 4.16 3.456 0 1.116-.41 2.034-1.22 2.754-.81.72-2.1 1.08-3.88 1.08h-6.67v-14.148h6.34c1.64 0 2.88.324 3.73.972.84.648 1.27 1.512 1.27 2.592 0 1.836-1.24 2.934-3.73 3.294zm-5.24-5.076v4.374h3.78c.96 0 1.66-.198 2.11-.594.47-.396.7-.927.7-1.593 0-1.458-.98-2.187-2.94-2.187h-3.65zm4.03 10.584c1.99 0 2.99-.783 2.99-2.349 0-1.53-1.04-2.295-3.13-2.295h-3.89v4.644h4.03zm8.42.135c-1.21-1.332-1.81-3.141-1.81-5.427 0-2.286.6-4.086 1.81-5.4 1.22-1.332 2.85-1.998 4.89-1.998 2.03 0 3.65.666 4.86 1.998 1.2 1.314 1.8 3.114 1.8 5.4 0 2.286-.6 4.095-1.8 5.427-1.21 1.314-2.83 1.971-4.86 1.971-2.04 0-3.67-.657-4.89-1.971zm1.7-9.45c-.77 1.008-1.16 2.349-1.16 4.023 0 1.674.39 3.015 1.16 4.023.79 1.008 1.85 1.512 3.19 1.512 1.31 0 2.35-.504 3.13-1.512.79-1.008 1.19-2.349 1.19-4.023 0-1.674-.4-3.015-1.19-4.023-.78-1.008-1.82-1.512-3.13-1.512-1.34 0-2.4.504-3.19 1.512zm-272.27 38.153h1.65v5.751h-2.24V844h-9.69v3.807h-2.25v-5.751h1.06a9.16 9.16 0 00.54-1.674c.16-.666.29-1.692.4-3.078.13-1.386.21-2.403.25-3.051.05-.666.14-2.133.27-4.401h10.01v12.204zm-2.37 0v-10.26h-5.59c-.33 4.626-.59 7.497-.79 8.613-.12.648-.27 1.197-.43 1.647h6.81zm6.95-12.204h9.94V844h-2.38v-12.204h-5.45c-.06.774-.13 1.845-.22 3.213-.07 1.332-.13 2.295-.19 2.889-.03.594-.1 1.332-.21 2.214-.11.882-.24 1.503-.38 1.863-.14.36-.34.756-.59 1.188-.26.414-.56.693-.92.837-.36.126-.79.189-1.3.189-.27 0-.66-.036-1.16-.108v-1.89c.18.018.4.027.65.027.39 0 .71-.171.94-.513.24-.342.43-1.017.57-2.025.16-1.026.27-1.926.32-2.7.06-.774.13-2.115.22-4.023.07-1.332.13-2.367.16-3.105zm17.41 0h6.37V844h-2.4v-5.832h-3.08l-3.76 5.832h-2.83l4.24-5.94c-1.21-.198-2.13-.639-2.78-1.323-.65-.702-.97-1.611-.97-2.727 0-1.332.45-2.358 1.35-3.078.91-.72 2.2-1.08 3.86-1.08zm3.97 6.75v-4.941h-3.68c-.99 0-1.76.225-2.32.675-.54.432-.81 1.035-.81 1.809 0 .756.27 1.359.81 1.809.56.432 1.33.648 2.32.648h3.68zm15.98-7.074c2 0 3.58.648 4.73 1.944 1.17 1.278 1.75 3.096 1.75 5.454 0 2.376-.58 4.203-1.75 5.481-1.17 1.278-2.77 1.917-4.81 1.917-1.6 0-2.95-.423-4.05-1.269-1.1-.846-1.78-2.052-2.05-3.618l2.3-.162c.23 1.044.68 1.845 1.35 2.403.68.558 1.5.837 2.45.837 1.21 0 2.18-.432 2.92-1.296.75-.864 1.19-2.07 1.29-3.618h-5.5v-1.62h5.48c-.13-1.476-.56-2.619-1.3-3.429-.74-.81-1.67-1.215-2.81-1.215-.91 0-1.72.27-2.4.81-.68.522-1.13 1.278-1.35 2.268l-2.29-.162c.27-1.512.95-2.673 2.05-3.483 1.1-.828 2.43-1.242 3.99-1.242zm17.74 0c2.27 0 4.05.657 5.35 1.971 1.3 1.296 1.94 3.105 1.94 5.427 0 2.322-.64 4.14-1.94 5.454-1.3 1.296-3.08 1.944-5.35 1.944h-.19v5.076h-2.29v-5.076h-.16c-2.29 0-4.09-.648-5.4-1.944-1.32-1.314-1.97-3.132-1.97-5.454 0-2.322.65-4.131 1.97-5.427 1.31-1.314 3.11-1.971 5.4-1.971h.16v-5.4h2.29v5.4h.19zm-2.59 12.933h.11v-11.07h-.11c-1.56 0-2.81.486-3.72 1.458-.92.972-1.38 2.331-1.38 4.077s.46 3.105 1.38 4.077c.91.972 2.16 1.458 3.72 1.458zm2.51 0c1.57 0 2.8-.486 3.7-1.458.92-.972 1.38-2.331 1.38-4.077s-.46-3.105-1.38-4.077c-.9-.972-2.13-1.458-3.7-1.458h-.11v11.07h.11zm18.68-12.933c2.27 0 4.05.657 5.34 1.971 1.3 1.296 1.95 3.105 1.95 5.427 0 2.322-.65 4.14-1.95 5.454-1.29 1.296-3.07 1.944-5.34 1.944h-.19v5.076h-2.3v-5.076h-.16c-2.28 0-4.08-.648-5.4-1.944-1.31-1.314-1.97-3.132-1.97-5.454 0-2.322.66-4.131 1.97-5.427 1.32-1.314 3.12-1.971 5.4-1.971h.16v-5.4h2.3v5.4h.19zm-2.59 12.933h.1v-11.07h-.1c-1.57 0-2.81.486-3.73 1.458-.92.972-1.38 2.331-1.38 4.077s.46 3.105 1.38 4.077c.92.972 2.16 1.458 3.73 1.458zm2.51 0c1.56 0 2.8-.486 3.7-1.458.91-.972 1.37-2.331 1.37-4.077s-.46-3.105-1.37-4.077c-.9-.972-2.14-1.458-3.7-1.458h-.11v11.07h.11zm8.63-5.535c0-2.412.6-4.248 1.81-5.508 1.22-1.26 2.84-1.89 4.86-1.89 2.07 0 3.64.639 4.72 1.917 1.1 1.278 1.65 3.222 1.65 5.832v.324h-10.67c.09 1.62.54 2.862 1.33 3.726.81.846 1.86 1.269 3.16 1.269 1.83 0 3.08-.81 3.75-2.43l2.24.135c-.38 1.26-1.08 2.25-2.11 2.97-1.02.702-2.32 1.053-3.88 1.053-2.11 0-3.78-.621-5.03-1.863-1.22-1.26-1.83-3.105-1.83-5.535zm2.4-.891h8.29c-.02-1.476-.4-2.637-1.13-3.483-.72-.864-1.69-1.296-2.89-1.296-1.19 0-2.17.414-2.95 1.242-.77.81-1.21 1.989-1.32 3.537zm25.15 7.965h-2.94l-5.29-6.237h-1.94V844h-2.38v-14.148h2.38v6.048h1.99l5-6.048h2.86l-6.16 6.804 6.48 7.344zm-.1-12.204v-1.944h11.93v1.944h-4.78V844h-2.37v-12.204h-4.78zm22.41-1.944h3.54V844h-2.27v-12.447L1543.23 844h-3.57v-14.148h2.3v12.447l6.58-12.447zm13.98 6.858c2.77.252 4.16 1.404 4.16 3.456 0 1.116-.41 2.034-1.22 2.754-.81.72-2.1 1.08-3.88 1.08h-6.67v-14.148h6.34c1.64 0 2.88.324 3.73.972.84.648 1.27 1.512 1.27 2.592 0 1.836-1.24 2.934-3.73 3.294zm-5.24-5.076v4.374h3.78c.96 0 1.66-.198 2.11-.594.47-.396.7-.927.7-1.593 0-1.458-.98-2.187-2.94-2.187h-3.65zm4.03 10.584c1.99 0 2.99-.783 2.99-2.349 0-1.53-1.04-2.295-3.13-2.295h-3.89v4.644h4.03zm7.42 1.782v-14.148h2.38v5.967h7.31v-5.967h2.35V844h-2.35v-6.237h-7.31V844h-2.38zm15.88-1.647c-1.21-1.332-1.81-3.141-1.81-5.427 0-2.286.6-4.086 1.81-5.4 1.22-1.332 2.85-1.998 4.88-1.998 2.04 0 3.66.666 4.86 1.998 1.21 1.314 1.81 3.114 1.81 5.4 0 2.286-.6 4.095-1.81 5.427-1.2 1.314-2.82 1.971-4.86 1.971-2.03 0-3.66-.657-4.88-1.971zm1.7-9.45c-.78 1.008-1.16 2.349-1.16 4.023 0 1.674.38 3.015 1.16 4.023.79 1.008 1.85 1.512 3.18 1.512 1.32 0 2.36-.504 3.13-1.512.8-1.008 1.19-2.349 1.19-4.023 0-1.674-.39-3.015-1.19-4.023-.77-1.008-1.81-1.512-3.13-1.512-1.33 0-2.39.504-3.18 1.512zM1598.19 844v-14.148h9.34v1.944h-6.96V844h-2.38zm11.21-1.647c-1.2-1.332-1.81-3.141-1.81-5.427 0-2.286.61-4.086 1.81-5.4 1.23-1.332 2.85-1.998 4.89-1.998 2.03 0 3.65.666 4.86 1.998 1.2 1.314 1.81 3.114 1.81 5.4 0 2.286-.61 4.095-1.81 5.427-1.21 1.314-2.83 1.971-4.86 1.971-2.04 0-3.66-.657-4.89-1.971zm1.7-9.45c-.77 1.008-1.16 2.349-1.16 4.023 0 1.674.39 3.015 1.16 4.023.79 1.008 1.86 1.512 3.19 1.512 1.31 0 2.36-.504 3.13-1.512.79-1.008 1.19-2.349 1.19-4.023 0-1.674-.4-3.015-1.19-4.023-.77-1.008-1.82-1.512-3.13-1.512-1.33 0-2.4.504-3.19 1.512zm-209.24 38.45c-1.2-1.332-1.81-3.141-1.81-5.427 0-2.286.61-4.086 1.81-5.4 1.23-1.332 2.86-1.998 4.89-1.998s3.65.666 4.86 1.998c1.21 1.314 1.81 3.114 1.81 5.4 0 2.286-.6 4.095-1.81 5.427-1.21 1.314-2.83 1.971-4.86 1.971-2.03 0-3.66-.657-4.89-1.971zm1.7-9.45c-.77 1.008-1.16 2.349-1.16 4.023 0 1.674.39 3.015 1.16 4.023.8 1.008 1.86 1.512 3.19 1.512 1.31 0 2.36-.504 3.13-1.512.79-1.008 1.19-2.349 1.19-4.023 0-1.674-.4-3.015-1.19-4.023-.77-1.008-1.82-1.512-3.13-1.512-1.33 0-2.39.504-3.19 1.512zm18.34-2.619c1.87 0 3.39.63 4.54 1.89 1.15 1.26 1.73 2.97 1.73 5.13 0 2.178-.61 3.897-1.81 5.157-1.19 1.242-2.81 1.863-4.86 1.863-4.47 0-6.7-2.997-6.7-8.991 0-3.15.44-5.553 1.32-7.209.89-1.656 2.33-2.691 4.32-3.105.38-.09.77-.162 1.17-.216.41-.072.84-.135 1.29-.189.47-.054.82-.099 1.05-.135 1.19-.18 2.13-.405 2.81-.675v1.863c-.48.306-1.32.549-2.51.729-.27.036-.68.09-1.24.162-.56.072-1.03.135-1.4.189-.74.09-1.37.261-1.89.513-.51.234-1 .621-1.49 1.161-.49.522-.87 1.287-1.16 2.295-.29 1.008-.48 2.259-.57 3.753.38-1.314 1.03-2.34 1.95-3.078.93-.738 2.08-1.107 3.45-1.107zm-.4 12.177c1.33 0 2.38-.459 3.16-1.377.77-.936 1.16-2.196 1.16-3.78 0-1.584-.39-2.835-1.16-3.753-.78-.936-1.83-1.404-3.16-1.404-1.35 0-2.41.468-3.19 1.404-.77.918-1.16 2.169-1.16 3.753s.39 2.844 1.16 3.78c.78.918 1.84 1.377 3.19 1.377zm17.97-12.609h2.54l-5.27 15.768c-.49 1.566-1.06 2.637-1.73 3.213-.66.594-1.67.891-3.02.891-.45 0-.97-.027-1.57-.081v-1.836c.65.036 1.13.054 1.43.054.74 0 1.3-.18 1.68-.54.38-.36.73-1.044 1.05-2.052l.41-1.269h-1.33l-5.34-14.148h2.59l4.64 13.203 3.92-13.203zm12.85 0h2.35V873h-2.35v-5.886c-1.78.378-3.27.567-4.46.567-3.24 0-4.86-1.584-4.86-4.752v-4.077h2.38v3.753c0 1.116.26 1.917.78 2.403.54.486 1.38.729 2.51.729.97 0 2.19-.198 3.65-.594v-6.291zm4.37 7.074c0-2.412.6-4.248 1.8-5.508 1.23-1.26 2.85-1.89 4.86-1.89 2.07 0 3.65.639 4.73 1.917 1.1 1.278 1.65 3.222 1.65 5.832v.324h-10.67c.09 1.62.53 2.862 1.32 3.726.81.846 1.87 1.269 3.16 1.269 1.84 0 3.09-.81 3.76-2.43l2.24.135c-.38 1.26-1.08 2.25-2.11 2.97-1.02.702-2.32 1.053-3.89 1.053-2.1 0-3.78-.621-5.02-1.863-1.22-1.26-1.83-3.105-1.83-5.535zm2.4-.891h8.29c-.02-1.476-.4-2.637-1.14-3.483-.72-.864-1.68-1.296-2.89-1.296-1.18 0-2.16.414-2.94 1.242-.77.81-1.21 1.989-1.32 3.537zm12.6 7.965v-14.148h2.37v5.967h7.32v-5.967h2.35V873h-2.35v-6.237h-7.32V873h-2.37zm23.76-14.148h3.53V873h-2.27v-12.447L1490.13 873h-3.57v-14.148h2.3v12.447l6.59-12.447zm11 0h6.37V873h-2.4v-5.832h-3.08l-3.75 5.832h-2.83l4.23-5.94c-1.2-.198-2.13-.639-2.78-1.323-.64-.702-.97-1.611-.97-2.727 0-1.332.45-2.358 1.35-3.078.92-.72 2.21-1.08 3.86-1.08zm3.97 6.75v-4.941h-3.67c-.99 0-1.76.225-2.32.675-.54.432-.81 1.035-.81 1.809 0 .756.27 1.359.81 1.809.56.432 1.33.648 2.32.648h3.67zm5.1 7.398v-3.105h2.73V873h-2.73z" fill="#000"/><rect x="1369" y="493" width="130" height="47" rx="23.5" fill="#F4E107"/><path d="M1396.43 522v-11.9h4.72c1.16 0 2.12.295 2.88.884.76.589 1.14 1.496 1.14 2.72 0 1.213-.38 2.108-1.13 2.686-.73.567-1.68.85-2.85.85h-3.2V522h-1.56zm1.56-5.967h2.99c.81 0 1.44-.193 1.91-.578.47-.385.71-.969.71-1.751 0-.782-.24-1.366-.71-1.751-.47-.385-1.1-.578-1.91-.578h-2.99v4.658zm7.62 1.513c0-1.519.38-2.675 1.14-3.468.77-.793 1.79-1.19 3.06-1.19 1.3 0 2.29.402 2.97 1.207.7.805 1.04 2.029 1.04 3.672v.204h-6.71c.05 1.02.33 1.802.83 2.346.51.533 1.17.799 1.99.799 1.15 0 1.94-.51 2.36-1.53l1.41.085c-.24.793-.68 1.417-1.32 1.87-.65.442-1.47.663-2.45.663-1.33 0-2.38-.391-3.16-1.173-.77-.793-1.16-1.955-1.16-3.485zm1.51-.561h5.22c-.01-.929-.25-1.66-.71-2.193-.45-.544-1.06-.816-1.82-.816-.75 0-1.37.261-1.85.782-.49.51-.77 1.252-.84 2.227zm12.12.408c1.81.193 2.72.946 2.72 2.261 0 .759-.3 1.377-.88 1.853-.59.465-1.55.697-2.88.697-2.46 0-3.77-.969-3.92-2.907l1.42-.068c.12 1.224.95 1.836 2.5 1.836.75 0 1.31-.142 1.69-.425.38-.295.57-.691.57-1.19 0-.997-.81-1.496-2.43-1.496h-1.12v-.986h1.05c.75 0 1.31-.13 1.67-.391.37-.272.56-.623.56-1.054 0-.453-.18-.816-.54-1.088-.37-.272-.85-.408-1.45-.408-.61 0-1.12.147-1.53.442-.39.295-.62.731-.68 1.309l-1.44-.085c.07-.941.43-1.643 1.09-2.108.65-.465 1.51-.697 2.56-.697 1.14 0 2 .215 2.59.646.6.419.9.986.9 1.7 0 1.213-.82 1.932-2.45 2.159zm9.91-4.301h1.6l-3.32 9.928c-.3.986-.67 1.66-1.09 2.023-.42.374-1.05.561-1.9.561-.28 0-.61-.017-.99-.051v-1.156c.41.023.71.034.91.034.46 0 .81-.113 1.05-.34.24-.227.46-.657.66-1.292l.26-.799h-.84l-3.36-8.908h1.63l2.92 8.313 2.47-8.313zm2.85 0h6.26V522h-1.5v-7.684h-3.43c-.04.487-.08 1.162-.14 2.023-.04.839-.08 1.445-.12 1.819-.02.374-.07.839-.13 1.394-.07.555-.15.946-.24 1.173-.09.227-.22.476-.38.748-.15.261-.35.436-.57.527-.23.079-.5.119-.82.119-.17 0-.41-.023-.73-.068v-1.19c.11.011.25.017.41.017.25 0 .44-.108.59-.323.15-.215.27-.64.36-1.275.1-.646.17-1.213.2-1.7.04-.487.08-1.332.14-2.533.04-.839.08-1.49.1-1.955zm11.89 3.417c2.26 0 3.39.912 3.39 2.737 0 1.836-1.13 2.754-3.39 2.754h-3.86v-8.908h1.5v3.417h2.36zm-.12 4.352c1.35 0 2.03-.544 2.03-1.632 0-1.065-.68-1.598-2.03-1.598h-2.24v3.23h2.24zm2.67-6.545v-1.224h7.52v1.224h-3.01V522h-1.5v-7.684h-3.01zm7.67 5.355c0-1.598 1.17-2.51 3.5-2.737l2.65-.255v-.85c0-.555-.18-1.003-.54-1.343-.35-.351-.87-.521-1.57-.51-.63 0-1.15.147-1.56.442-.41.283-.63.714-.66 1.292h-1.38c.03-.963.38-1.672 1.04-2.125.66-.465 1.51-.697 2.56-.697 1.17 0 2.06.278 2.67.833.62.555.92 1.354.92 2.397V522h-1.36v-1.836c-.28.646-.71 1.15-1.29 1.513-.58.351-1.28.527-2.11.527-.95 0-1.67-.232-2.16-.697-.47-.476-.71-1.088-.71-1.836zm1.48-.051c0 .442.15.805.46 1.088.3.283.76.425 1.37.425.88 0 1.57-.272 2.08-.816.51-.555.76-1.269.76-2.142v-.544l-2.48.255c-1.46.136-2.19.714-2.19 1.734zm6.8-5.304v-1.224h7.51v1.224h-3.01V522h-1.49v-7.684h-3.01zm8.44.935v-1.955h1.71v1.955h-1.71zm0 6.749v-1.955h1.71V522h-1.71z" fill="#040D0F"/><rect opacity=".1" x="61" y="493" width="166" height="47" rx="23.5" fill="#fff"/><path d="M97.908 510.1h1.717l-3.74 9.129c-.442 1.099-.895 1.853-1.36 2.261-.465.408-1.048.612-1.751.612-.385 0-.856-.034-1.411-.102v-1.207c.408.045.765.068 1.071.068.408 0 .742-.102 1.003-.306.272-.204.527-.606.765-1.207l.204-.51h-.68l-4.335-8.738h1.768l3.74 7.939 3.009-7.939zm1.698 15.3v-12.308h1.377v1.904c.272-.669.68-1.184 1.224-1.547.555-.374 1.19-.561 1.904-.561 1.111 0 2.006.414 2.686 1.241.68.827 1.02 1.966 1.02 3.417 0 1.451-.34 2.59-1.02 3.417-.68.827-1.575 1.241-2.686 1.241-.669 0-1.264-.164-1.785-.493-.521-.329-.929-.799-1.224-1.411v5.1h-1.496zm2.125-10.387c-.476.635-.714 1.479-.714 2.533 0 1.054.238 1.898.714 2.533.487.635 1.139.952 1.955.952.816 0 1.462-.317 1.938-.952s.714-1.479.714-2.533c0-1.054-.238-1.898-.714-2.533s-1.122-.952-1.938-.952c-.816 0-1.468.317-1.955.952zm7.987 5.95c-.759-.839-1.139-1.978-1.139-3.417 0-1.439.38-2.573 1.139-3.4.771-.839 1.796-1.258 3.077-1.258s2.301.419 3.06 1.258c.759.827 1.139 1.961 1.139 3.4 0 1.439-.38 2.578-1.139 3.417-.759.827-1.779 1.241-3.06 1.241-1.281 0-2.306-.414-3.077-1.241zm1.071-5.95c-.487.635-.731 1.479-.731 2.533 0 1.054.244 1.898.731 2.533.499.635 1.167.952 2.006.952.827 0 1.485-.317 1.972-.952.499-.635.748-1.479.748-2.533 0-1.054-.249-1.898-.748-2.533-.487-.635-1.145-.952-1.972-.952-.839 0-1.507.317-2.006.952zM126.178 522h-1.853l-3.332-3.927h-1.224V522h-1.496v-8.908h1.496v3.808h1.258l3.145-3.808h1.802l-3.876 4.284 4.08 4.624zm6.391-8.908h2.227V522h-1.428v-7.837L129.22 522h-2.244v-8.908h1.445v7.837l4.148-7.837zm15.689 0h2.482V522h-1.445v-7.871L146.337 522h-1.87l-2.941-7.871V522h-1.445v-8.908h2.499l2.839 8.092 2.839-8.092zm4.89 7.871c-.759-.839-1.139-1.978-1.139-3.417 0-1.439.38-2.573 1.139-3.4.771-.839 1.797-1.258 3.077-1.258 1.281 0 2.301.419 3.06 1.258.76.827 1.139 1.961 1.139 3.4 0 1.439-.379 2.578-1.139 3.417-.759.827-1.779 1.241-3.06 1.241-1.28 0-2.306-.414-3.077-1.241zm1.071-5.95c-.487.635-.731 1.479-.731 2.533 0 1.054.244 1.898.731 2.533.499.635 1.168.952 2.006.952.828 0 1.485-.317 1.972-.952.499-.635.748-1.479.748-2.533 0-1.054-.249-1.898-.748-2.533-.487-.635-1.144-.952-1.972-.952-.838 0-1.507.317-2.006.952zm14.287 5.763h1.037v3.621h-1.411V522h-6.103v2.397h-1.411v-3.621h.663c.136-.295.25-.646.34-1.054.102-.419.187-1.065.255-1.938.08-.873.131-1.513.153-1.921.034-.419.091-1.343.17-2.771h6.307v7.684zm-1.496 0v-6.46h-3.519c-.204 2.913-.368 4.72-.493 5.423-.079.408-.17.754-.272 1.037h4.284zm9.484-7.684h1.598l-3.315 9.928c-.306.986-.668 1.66-1.088 2.023-.419.374-1.054.561-1.904.561-.283 0-.612-.017-.986-.051v-1.156c.408.023.709.034.901.034.465 0 .816-.113 1.054-.34.238-.227.459-.657.663-1.292l.255-.799h-.833l-3.366-8.908h1.632l2.924 8.313 2.465-8.313zm2.852 0h6.256V522h-1.496v-7.684h-3.434c-.034.487-.079 1.162-.136 2.023a55.07 55.07 0 01-.119 1.819 23.8 23.8 0 01-.136 1.394c-.068.555-.147.946-.238 1.173a5.713 5.713 0 01-.374.748c-.159.261-.351.436-.578.527a2.491 2.491 0 01-.816.119 5.63 5.63 0 01-.731-.068v-1.19c.113.011.249.017.408.017a.687.687 0 00.595-.323c.147-.215.266-.64.357-1.275.102-.646.17-1.213.204-1.7.034-.487.079-1.332.136-2.533.045-.839.079-1.49.102-1.955zm10.958 0h4.012V522h-1.513v-3.672h-1.938L188.502 522h-1.785l2.669-3.74c-.759-.125-1.343-.402-1.751-.833-.408-.442-.612-1.014-.612-1.717 0-.839.283-1.485.85-1.938.578-.453 1.388-.68 2.431-.68zm2.499 4.25v-3.111h-2.312c-.623 0-1.111.142-1.462.425-.34.272-.51.652-.51 1.139 0 .476.17.856.51 1.139.351.272.839.408 1.462.408h2.312zm3.211-2.091v-1.955h1.717v1.955h-1.717zm0 6.749v-1.955h1.717V522h-1.717z" fill="#fff"/><rect x="61.5" y="557.5" width="300" height="46" rx="23" stroke="#fff"/><rect x="81" y="578" width="6" height="6" rx="3" fill="#fff"/><path d="M110.965 586h-1.87l-4.199-5.406h-1.904V586h-1.564v-11.9h1.564v5.27h1.887l3.944-5.27h1.802l-4.522 5.78 4.862 6.12zm.145-2.329c0-1.598 1.167-2.51 3.502-2.737l2.652-.255v-.85c0-.555-.182-1.003-.544-1.343-.352-.351-.873-.521-1.564-.51-.635 0-1.156.147-1.564.442-.408.283-.629.714-.663 1.292h-1.377c.034-.963.379-1.672 1.037-2.125.657-.465 1.513-.697 2.567-.697 1.167 0 2.057.278 2.669.833.612.555.918 1.354.918 2.397V586h-1.36v-1.836a3.315 3.315 0 01-1.292 1.513c-.578.351-1.281.527-2.108.527-.952 0-1.672-.232-2.159-.697-.476-.476-.714-1.088-.714-1.836zm1.479-.051c0 .442.153.805.459 1.088.306.283.765.425 1.377.425.872 0 1.564-.272 2.074-.816.51-.555.765-1.269.765-2.142v-.544l-2.482.255c-1.462.136-2.193.714-2.193 1.734zm15.754 2.38h-1.853l-3.332-3.927h-1.224V586h-1.496v-8.908h1.496v3.808h1.258l3.145-3.808h1.802l-3.876 4.284 4.08 4.624zm7.952-8.636c1.178 0 2.13.397 2.856 1.19.725.793 1.088 1.87 1.088 3.23 0 1.371-.38 2.454-1.139 3.247-.748.782-1.768 1.173-3.06 1.173-2.811 0-4.216-1.887-4.216-5.661 0-1.983.277-3.496.833-4.539.555-1.043 1.462-1.694 2.72-1.955.238-.057.481-.102.731-.136.26-.045.532-.085.816-.119.294-.034.515-.062.663-.085.748-.113 1.337-.255 1.768-.425v1.173c-.306.193-.833.346-1.581.459l-.782.102c-.352.045-.646.085-.884.119-.465.057-.862.164-1.19.323-.318.147-.629.391-.935.731-.306.329-.55.81-.731 1.445-.182.635-.301 1.422-.357 2.363.238-.827.646-1.473 1.224-1.938.589-.465 1.314-.697 2.176-.697zm-.255 7.667c.838 0 1.501-.289 1.989-.867.487-.589.731-1.383.731-2.38 0-.997-.244-1.785-.731-2.363-.488-.589-1.151-.884-1.989-.884-.85 0-1.519.295-2.006.884-.488.578-.731 1.366-.731 2.363 0 .997.243 1.791.731 2.38.487.578 1.156.867 2.006.867zm11.314-7.939h1.598l-3.315 9.928c-.306.986-.668 1.66-1.088 2.023-.419.374-1.054.561-1.904.561-.283 0-.612-.017-.986-.051v-1.156c.408.023.709.034.901.034.465 0 .816-.113 1.054-.34.238-.227.459-.657.663-1.292l.255-.799h-.833l-3.366-8.908h1.632l2.924 8.313 2.465-8.313zm9.102 7.684h1.037v3.621h-1.411V586h-6.103v2.397h-1.411v-3.621h.663c.136-.295.25-.646.34-1.054.102-.419.187-1.065.255-1.938.08-.873.131-1.513.153-1.921.034-.419.091-1.343.17-2.771h6.307v7.684zm-1.496 0v-6.46h-3.519c-.204 2.913-.368 4.72-.493 5.423-.079.408-.17.754-.272 1.037h4.284zm2.87-3.23c0-1.519.379-2.675 1.139-3.468.77-.793 1.79-1.19 3.06-1.19 1.303 0 2.295.402 2.975 1.207.691.805 1.037 2.029 1.037 3.672v.204h-6.715c.056 1.02.334 1.802.833 2.346.51.533 1.173.799 1.989.799 1.156 0 1.943-.51 2.363-1.53l1.411.085c-.238.793-.68 1.417-1.326 1.87-.646.442-1.462.663-2.448.663-1.326 0-2.38-.391-3.162-1.173-.771-.793-1.156-1.955-1.156-3.485zm1.513-.561h5.219c-.012-.929-.25-1.66-.714-2.193-.454-.544-1.06-.816-1.819-.816-.748 0-1.366.261-1.853.782-.488.51-.765 1.252-.833 2.227zm6.751-2.669v-1.224h7.514v1.224h-3.009V586h-1.496v-7.684h-3.009zM177.791 586v-8.908h7.48V586h-1.479v-7.684h-4.505V586h-1.496zm9.267 3.4v-12.308h1.377v1.904c.272-.669.68-1.184 1.224-1.547.555-.374 1.19-.561 1.904-.561 1.11 0 2.006.414 2.686 1.241.68.827 1.02 1.966 1.02 3.417 0 1.451-.34 2.59-1.02 3.417-.68.827-1.576 1.241-2.686 1.241-.669 0-1.264-.164-1.785-.493-.522-.329-.93-.799-1.224-1.411v5.1h-1.496zm2.125-10.387c-.476.635-.714 1.479-.714 2.533 0 1.054.238 1.898.714 2.533.487.635 1.139.952 1.955.952.816 0 1.462-.317 1.938-.952s.714-1.479.714-2.533c0-1.054-.238-1.898-.714-2.533s-1.122-.952-1.938-.952c-.816 0-1.468.317-1.955.952zm7.987 5.95c-.76-.839-1.139-1.978-1.139-3.417 0-1.439.379-2.573 1.139-3.4.77-.839 1.796-1.258 3.077-1.258 1.28 0 2.3.419 3.06 1.258.759.827 1.139 1.961 1.139 3.4 0 1.439-.38 2.578-1.139 3.417-.76.827-1.78 1.241-3.06 1.241-1.281 0-2.307-.414-3.077-1.241zm1.071-5.95c-.488.635-.731 1.479-.731 2.533 0 1.054.243 1.898.731 2.533.498.635 1.167.952 2.006.952.827 0 1.484-.317 1.972-.952.498-.635.748-1.479.748-2.533 0-1.054-.25-1.898-.748-2.533-.488-.635-1.145-.952-1.972-.952-.839 0-1.508.317-2.006.952zM212.865 586h-1.819l-2.55-3.485-2.55 3.485h-1.734l3.417-4.488-3.264-4.42h1.802l2.363 3.366 2.363-3.366h1.734l-3.213 4.369 3.451 4.539zm.88-1.037c-.759-.839-1.139-1.978-1.139-3.417 0-1.439.38-2.573 1.139-3.4.771-.839 1.796-1.258 3.077-1.258s2.301.419 3.06 1.258c.759.827 1.139 1.961 1.139 3.4 0 1.439-.38 2.578-1.139 3.417-.759.827-1.779 1.241-3.06 1.241-1.281 0-2.306-.414-3.077-1.241zm1.071-5.95c-.487.635-.731 1.479-.731 2.533 0 1.054.244 1.898.731 2.533.499.635 1.167.952 2.006.952.827 0 1.485-.317 1.972-.952.499-.635.748-1.479.748-2.533 0-1.054-.249-1.898-.748-2.533-.487-.635-1.145-.952-1.972-.952-.839 0-1.507.317-2.006.952zm14.287 5.763h1.037v3.621h-1.411V586h-6.103v2.397h-1.411v-3.621h.663c.136-.295.249-.646.34-1.054.102-.419.187-1.065.255-1.938.079-.873.13-1.513.153-1.921.034-.419.09-1.343.17-2.771h6.307v7.684zm-1.496 0v-6.46h-3.519c-.204 2.913-.369 4.72-.493 5.423-.08.408-.17.754-.272 1.037h4.284zm9.072-7.684h2.227V586h-1.428v-7.837L233.33 586h-2.244v-8.908h1.445v7.837l4.148-7.837zm3.224 1.224v-1.224h7.514v1.224h-3.009V586h-1.496v-7.684h-3.009zm12.381 2.193c2.255 0 3.383.912 3.383 2.737 0 1.836-1.128 2.754-3.383 2.754h-3.859v-8.908h1.496v3.417h2.363zm-.119 4.352c1.348 0 2.023-.544 2.023-1.632 0-1.065-.675-1.598-2.023-1.598h-2.244v3.23h2.244zm8.317.102c-.759-.839-1.139-1.978-1.139-3.417 0-1.439.38-2.573 1.139-3.4.771-.839 1.797-1.258 3.077-1.258 1.281 0 2.301.419 3.06 1.258.76.827 1.139 1.961 1.139 3.4 0 1.439-.379 2.578-1.139 3.417-.759.827-1.779 1.241-3.06 1.241-1.28 0-2.306-.414-3.077-1.241zm1.071-5.95c-.487.635-.731 1.479-.731 2.533 0 1.054.244 1.898.731 2.533.499.635 1.168.952 2.006.952.828 0 1.485-.317 1.972-.952.499-.635.748-1.479.748-2.533 0-1.054-.249-1.898-.748-2.533-.487-.635-1.144-.952-1.972-.952-.838 0-1.507.317-2.006.952zm11.548-1.649c1.178 0 2.13.397 2.856 1.19.725.793 1.088 1.87 1.088 3.23 0 1.371-.38 2.454-1.139 3.247-.748.782-1.768 1.173-3.06 1.173-2.811 0-4.216-1.887-4.216-5.661 0-1.983.277-3.496.833-4.539.555-1.043 1.462-1.694 2.72-1.955.238-.057.481-.102.731-.136.26-.045.532-.085.816-.119.294-.034.515-.062.663-.085.748-.113 1.337-.255 1.768-.425v1.173c-.306.193-.833.346-1.581.459l-.782.102c-.352.045-.646.085-.884.119-.465.057-.862.164-1.19.323-.318.147-.629.391-.935.731-.306.329-.55.81-.731 1.445-.182.635-.301 1.422-.357 2.363.238-.827.646-1.473 1.224-1.938.589-.465 1.314-.697 2.176-.697zm-.255 7.667c.838 0 1.501-.289 1.989-.867.487-.589.731-1.383.731-2.38 0-.997-.244-1.785-.731-2.363-.488-.589-1.151-.884-1.989-.884-.85 0-1.519.295-2.006.884-.488.578-.731 1.366-.731 2.363 0 .997.243 1.791.731 2.38.487.578 1.156.867 2.006.867zm11.314-7.939h1.598l-3.315 9.928c-.306.986-.668 1.66-1.088 2.023-.419.374-1.054.561-1.904.561-.283 0-.612-.017-.986-.051v-1.156c.408.023.709.034.901.034.465 0 .816-.113 1.054-.34.238-.227.459-.657.663-1.292l.255-.799h-.833l-3.366-8.908h1.632l2.924 8.313 2.465-8.313zm8.09 0h1.479V586h-1.479v-3.706c-1.122.238-2.057.357-2.805.357-2.04 0-3.06-.997-3.06-2.992v-2.567h1.496v2.363c0 .703.165 1.207.493 1.513.34.306.867.459 1.581.459.612 0 1.377-.125 2.295-.374v-3.961zm2.751 4.454c0-1.519.379-2.675 1.139-3.468.77-.793 1.79-1.19 3.06-1.19 1.303 0 2.295.402 2.975 1.207.691.805 1.037 2.029 1.037 3.672v.204h-6.715c.056 1.02.334 1.802.833 2.346.51.533 1.173.799 1.989.799 1.156 0 1.943-.51 2.363-1.53l1.411.085c-.238.793-.68 1.417-1.326 1.87-.646.442-1.462.663-2.448.663-1.326 0-2.38-.391-3.162-1.173-.771-.793-1.156-1.955-1.156-3.485zm1.513-.561h5.219c-.012-.929-.25-1.66-.714-2.193-.454-.544-1.06-.816-1.819-.816-.748 0-1.366.261-1.853.782-.488.51-.765 1.252-.833 2.227zm7.932 5.015v-8.908h1.496v3.757h4.607v-3.757h1.479V586h-1.479v-3.927h-4.607V586h-1.496zm14.96-8.908h2.227V586h-1.428v-7.837L316.057 586h-2.244v-8.908h1.445v7.837l4.148-7.837zm3.496 4.454c0-1.519.379-2.675 1.139-3.468.77-.793 1.79-1.19 3.06-1.19 1.303 0 2.295.402 2.975 1.207.691.805 1.037 2.029 1.037 3.672v.204h-6.715c.056 1.02.334 1.802.833 2.346.51.533 1.173.799 1.989.799 1.156 0 1.943-.51 2.363-1.53l1.411.085c-.238.793-.68 1.417-1.326 1.87-.646.442-1.462.663-2.448.663-1.326 0-2.38-.391-3.162-1.173-.771-.793-1.156-1.955-1.156-3.485zm1.513-.561h5.219c-.012-.929-.25-1.66-.714-2.193-.454-.544-1.06-.816-1.819-.816-.748 0-1.366.261-1.853.782-.488.51-.765 1.252-.833 2.227z" fill="#fff"/><rect x="61.5" y="614.5" width="311" height="46" rx="23" stroke="#fff"/><rect x="81" y="635" width="6" height="6" rx="3" fill="#fff"/><path d="M110.965 643h-1.87l-4.199-5.406h-1.904V643h-1.564v-11.9h1.564v5.27h1.887l3.944-5.27h1.802l-4.522 5.78 4.862 6.12zm.145-2.329c0-1.598 1.167-2.51 3.502-2.737l2.652-.255v-.85c0-.555-.182-1.003-.544-1.343-.352-.351-.873-.521-1.564-.51-.635 0-1.156.147-1.564.442-.408.283-.629.714-.663 1.292h-1.377c.034-.963.379-1.672 1.037-2.125.657-.465 1.513-.697 2.567-.697 1.167 0 2.057.278 2.669.833.612.555.918 1.354.918 2.397V643h-1.36v-1.836a3.315 3.315 0 01-1.292 1.513c-.578.351-1.281.527-2.108.527-.952 0-1.672-.232-2.159-.697-.476-.476-.714-1.088-.714-1.836zm1.479-.051c0 .442.153.805.459 1.088.306.283.765.425 1.377.425.872 0 1.564-.272 2.074-.816.51-.555.765-1.269.765-2.142v-.544l-2.482.255c-1.462.136-2.193.714-2.193 1.734zm15.754 2.38h-1.853l-3.332-3.927h-1.224V643h-1.496v-8.908h1.496v3.808h1.258l3.145-3.808h1.802l-3.876 4.284 4.08 4.624zm8.683-4.59c1.745.159 2.618.884 2.618 2.176 0 .703-.255 1.281-.765 1.734-.51.453-1.326.68-2.448.68h-4.199v-8.908h3.995c1.031 0 1.813.204 2.346.612.532.408.799.952.799 1.632 0 1.156-.782 1.847-2.346 2.074zm-3.298-3.196v2.754h2.38c.6 0 1.042-.125 1.326-.374.294-.249.442-.584.442-1.003 0-.918-.618-1.377-1.853-1.377h-2.295zm2.533 6.664c1.258 0 1.887-.493 1.887-1.479 0-.963-.658-1.445-1.972-1.445h-2.448v2.924h2.533zm8.328-4.369c2.256 0 3.383.912 3.383 2.737 0 1.836-1.127 2.754-3.383 2.754h-3.655v-8.908h1.496v3.417h2.159zm4.794-3.417h1.496V643h-1.496v-8.908zm-4.913 7.769c1.349 0 2.023-.544 2.023-1.632 0-1.065-.674-1.598-2.023-1.598h-2.04v3.23h2.04zM165.001 643h-1.836l-2.992-3.927h-1.105V643h-1.462v-3.927h-1.105L153.509 643h-1.836l3.706-4.624-3.57-4.284h1.768l2.873 3.808h1.156v-3.808h1.462v3.808h1.156l2.873-3.808h1.768l-3.57 4.284 3.706 4.624zm.018-2.329c0-1.598 1.167-2.51 3.502-2.737l2.652-.255v-.85c0-.555-.181-1.003-.544-1.343-.351-.351-.873-.521-1.564-.51-.635 0-1.156.147-1.564.442-.408.283-.629.714-.663 1.292h-1.377c.034-.963.38-1.672 1.037-2.125.657-.465 1.513-.697 2.567-.697 1.167 0 2.057.278 2.669.833.612.555.918 1.354.918 2.397V643h-1.36v-1.836a3.31 3.31 0 01-1.292 1.513c-.578.351-1.281.527-2.108.527-.952 0-1.672-.232-2.159-.697-.476-.476-.714-1.088-.714-1.836zm1.479-.051c0 .442.153.805.459 1.088.306.283.765.425 1.377.425.873 0 1.564-.272 2.074-.816.51-.555.765-1.269.765-2.142v-.544l-2.482.255c-1.462.136-2.193.714-2.193 1.734zm6.801-5.304v-1.224h7.514v1.224h-3.009V643h-1.496v-7.684h-3.009zm12.381 2.193c2.256 0 3.383.912 3.383 2.737 0 1.836-1.127 2.754-3.383 2.754h-3.859v-8.908h1.496v3.417h2.363zm-.119 4.352c1.349 0 2.023-.544 2.023-1.632 0-1.065-.674-1.598-2.023-1.598h-2.244v3.23h2.244zm16.032-7.769h2.482V643h-1.445v-7.871L199.672 643h-1.87l-2.941-7.871V643h-1.445v-8.908h2.499l2.839 8.092 2.839-8.092zm3.785 6.579c0-1.598 1.167-2.51 3.502-2.737l2.652-.255v-.85c0-.555-.181-1.003-.544-1.343-.351-.351-.873-.521-1.564-.51-.635 0-1.156.147-1.564.442-.408.283-.629.714-.663 1.292h-1.377c.034-.963.38-1.672 1.037-2.125.657-.465 1.513-.697 2.567-.697 1.167 0 2.057.278 2.669.833.612.555.918 1.354.918 2.397V643h-1.36v-1.836a3.31 3.31 0 01-1.292 1.513c-.578.351-1.281.527-2.108.527-.952 0-1.672-.232-2.159-.697-.476-.476-.714-1.088-.714-1.836zm1.479-.051c0 .442.153.805.459 1.088.306.283.765.425 1.377.425.873 0 1.564-.272 2.074-.816.51-.555.765-1.269.765-2.142v-.544l-2.482.255c-1.462.136-2.193.714-2.193 1.734zm15.754 2.38h-1.853l-3.332-3.927h-1.224V643h-1.496v-8.908h1.496v3.808h1.258l3.145-3.808h1.802l-3.876 4.284 4.08 4.624zm-.326-4.454c0-1.485.368-2.629 1.105-3.434.736-.816 1.734-1.224 2.992-1.224 1.02 0 1.875.272 2.567.816.702.544 1.122 1.32 1.258 2.329l-1.428.136c-.114-.691-.391-1.213-.833-1.564-.431-.363-.952-.544-1.564-.544-.794 0-1.428.312-1.904.935-.476.612-.714 1.462-.714 2.55 0 1.088.238 1.944.714 2.567.487.612 1.133.918 1.938.918.634 0 1.167-.187 1.598-.561.442-.385.725-.929.85-1.632l1.428.119c-.136 1.031-.556 1.83-1.258 2.397-.703.567-1.576.85-2.618.85-1.281 0-2.29-.402-3.026-1.207-.737-.805-1.105-1.955-1.105-3.451zm14.755-4.454h2.227V643h-1.428v-7.837L233.691 643h-2.244v-8.908h1.445v7.837l4.148-7.837zm12.184 0h2.482V643h-1.445v-7.871L247.303 643h-1.87l-2.941-7.871V643h-1.445v-8.908h2.499l2.839 8.092 2.839-8.092zm10.432 0h1.598l-3.315 9.928c-.306.986-.669 1.66-1.088 2.023-.42.374-1.054.561-1.904.561-.284 0-.612-.017-.986-.051v-1.156c.408.023.708.034.901.034.464 0 .816-.113 1.054-.34.238-.227.459-.657.663-1.292l.255-.799h-.833l-3.366-8.908h1.632l2.924 8.313 2.465-8.313zm10.725 0h2.482V643h-1.445v-7.871L268.46 643h-1.87l-2.941-7.871V643h-1.445v-8.908h2.499l2.839 8.092 2.839-8.092zm13.36 0h2.227V643h-1.428v-7.837L280.392 643h-2.244v-8.908h1.445v7.837l4.148-7.837zm8.256 4.301c1.814.193 2.72.946 2.72 2.261 0 .759-.294 1.377-.884 1.853-.589.465-1.547.697-2.873.697-2.459 0-3.768-.969-3.927-2.907l1.428-.068c.114 1.224.947 1.836 2.499 1.836.748 0 1.309-.142 1.683-.425.386-.295.578-.691.578-1.19 0-.997-.81-1.496-2.431-1.496h-1.122v-.986h1.054c.748 0 1.304-.13 1.666-.391.374-.272.561-.623.561-1.054 0-.453-.181-.816-.544-1.088-.362-.272-.844-.408-1.445-.408-.612 0-1.122.147-1.53.442-.396.295-.623.731-.68 1.309l-1.445-.085c.068-.941.431-1.643 1.088-2.108.658-.465 1.513-.697 2.567-.697 1.134 0 1.995.215 2.584.646.601.419.901.986.901 1.7 0 1.213-.816 1.932-2.448 2.159zM307.413 643h-1.853l-3.332-3.927h-1.224V643h-1.496v-8.908h1.496v3.808h1.258l3.145-3.808h1.802l-3.876 4.284 4.08 4.624zm6.969-8.908h1.598l-3.315 9.928c-.306.986-.669 1.66-1.088 2.023-.419.374-1.054.561-1.904.561-.283 0-.612-.017-.986-.051v-1.156c.408.023.708.034.901.034.465 0 .816-.113 1.054-.34.238-.227.459-.657.663-1.292l.255-.799h-.833l-3.366-8.908h1.632l2.924 8.313 2.465-8.313zm2.548 12.308v-12.308h1.377v1.904c.272-.669.68-1.184 1.224-1.547.556-.374 1.19-.561 1.904-.561 1.111 0 2.006.414 2.686 1.241.68.827 1.02 1.966 1.02 3.417 0 1.451-.34 2.59-1.02 3.417-.68.827-1.575 1.241-2.686 1.241-.668 0-1.263-.164-1.785-.493-.521-.329-.929-.799-1.224-1.411v5.1h-1.496zm2.125-10.387c-.476.635-.714 1.479-.714 2.533 0 1.054.238 1.898.714 2.533.488.635 1.139.952 1.955.952.816 0 1.462-.317 1.938-.952s.714-1.479.714-2.533c0-1.054-.238-1.898-.714-2.533s-1.122-.952-1.938-.952c-.816 0-1.467.317-1.955.952zm6.848 2.533c0-1.485.369-2.629 1.105-3.434.737-.816 1.734-1.224 2.992-1.224 1.02 0 1.876.272 2.567.816.703.544 1.122 1.32 1.258 2.329l-1.428.136c-.113-.691-.391-1.213-.833-1.564-.43-.363-.952-.544-1.564-.544-.793 0-1.428.312-1.904.935-.476.612-.714 1.462-.714 2.55 0 1.088.238 1.944.714 2.567.488.612 1.134.918 1.938.918.635 0 1.168-.187 1.598-.561.442-.385.726-.929.85-1.632l1.428.119c-.136 1.031-.555 1.83-1.258 2.397-.702.567-1.575.85-2.618.85-1.28 0-2.289-.402-3.026-1.207-.736-.805-1.105-1.955-1.105-3.451zm8.687 2.125c0-1.598 1.167-2.51 3.502-2.737l2.652-.255v-.85c0-.555-.181-1.003-.544-1.343-.351-.351-.873-.521-1.564-.51-.635 0-1.156.147-1.564.442-.408.283-.629.714-.663 1.292h-1.377c.034-.963.38-1.672 1.037-2.125.657-.465 1.513-.697 2.567-.697 1.167 0 2.057.278 2.669.833.612.555.918 1.354.918 2.397V643h-1.36v-1.836a3.31 3.31 0 01-1.292 1.513c-.578.351-1.281.527-2.108.527-.952 0-1.672-.232-2.159-.697-.476-.476-.714-1.088-.714-1.836zm1.479-.051c0 .442.153.805.459 1.088.306.283.765.425 1.377.425.873 0 1.564-.272 2.074-.816.51-.555.765-1.269.765-2.142v-.544l-2.482.255c-1.462.136-2.193.714-2.193 1.734z" fill="#fff"/></svg>