<svg width="35" height="48" viewBox="0 0 35 48" fill="none" xmlns="http://www.w3.org/2000/svg">
<g clip-path="url(#clip0_1_195)">
<path d="M2.06625 -0.000244141C2.27715 7.47502 6.91742 11.8755 12.739 15.3617C15.8794 17.2423 19.2507 18.7393 22.456 20.5165C27.0622 23.0693 31.0777 26.2679 33.3999 31.1471C35.9958 36.6009 34.52 44.2104 30.0101 47.9997C30.1656 46.8665 30.3054 45.8967 30.4313 44.9253C31.0449 40.1851 29.4099 36.2981 25.54 33.5469C22.8278 31.6193 19.8111 30.1173 16.9807 28.3457C13.6976 26.2916 10.2629 24.4022 7.26786 21.9856C3.06917 18.5977 0.378038 14.1666 0.0317305 8.62245C-0.15783 5.57389 0.4905 2.69281 2.06625 -0.000244141Z" fill="white"/>
<path d="M9.25038 47.9339H0.0596924V37.302L9.25038 47.9339Z" fill="white"/>
<path d="M21.5753 -0.000244141H30.7666V10.632L21.5753 -0.000244141Z" fill="white"/>
</g>
<defs>
<clipPath id="clip0_1_195">
<rect width="34.6776" height="48" fill="white"/>
</clipPath>
</defs>
</svg>
