<svg width="37" height="53" viewBox="0 0 37 53" fill="none" xmlns="http://www.w3.org/2000/svg">
<g clip-path="url(#clip0_1_48)">
<path d="M2.20495 3.05176e-05C2.42998 8.25396 7.38102 13.1128 13.5925 16.9622C16.9432 19.0387 20.5403 20.6916 23.9603 22.6539C28.8749 25.4726 33.1594 29.0045 35.6371 34.3919C38.4068 40.4138 36.8323 48.816 32.0203 53C32.1862 51.7487 32.3354 50.6779 32.4697 49.6053C33.1244 44.3713 31.3799 40.0795 27.2508 37.0417C24.357 34.9132 21.1382 33.2548 18.1183 31.2987C14.6153 29.0306 10.9506 26.9444 7.75494 24.2761C3.27504 20.5352 0.403682 15.6425 0.0341812 9.52093C-0.168075 6.1548 0.523675 2.97361 2.20495 3.05176e-05Z" fill="white"/>
<path d="M9.8703 52.9282H0.0640869V41.1888L9.8703 52.9282Z" fill="white"/>
<path d="M23.0212 0H32.8281V11.7397L23.0212 0Z" fill="white"/>
</g>
<defs>
<clipPath id="clip0_1_48">
<rect width="37" height="53" fill="white"/>
</clipPath>
</defs>
</svg>
