<svg width="35" height="48" viewBox="0 0 35 48" fill="none" xmlns="http://www.w3.org/2000/svg"><g clip-path="url(#clip0_1_195)" fill="#fff"><path d="M2.066 0c.211 7.475 4.851 11.876 10.673 15.362 3.14 1.88 6.512 3.377 9.717 5.155 4.606 2.552 8.622 5.75 10.944 10.63C35.996 36.601 34.52 44.21 30.01 48c.156-1.133.295-2.103.421-3.075.614-4.74-1.021-8.627-4.891-11.378-2.712-1.928-5.729-3.43-8.56-5.201-3.282-2.054-6.717-3.944-9.712-6.36C3.069 18.598.378 14.166.032 8.622-.158 5.574.49 2.692 2.066 0zM9.25 47.934H.06V37.302l9.19 10.632zM21.575 0h9.192v10.632L21.575 0z"/></g><defs><clipPath id="clip0_1_195"><path fill="#fff" d="M0 0h34.678v48H0z"/></clipPath></defs></svg>