<svg width="331" height="623" viewBox="0 0 331 623" fill="none" xmlns="http://www.w3.org/2000/svg"><rect width="331" height="623" rx="23" fill="#162225"/><path d="M45.96 35h3.36v21h-3.36v-9.3H35.82V56h-3.36V35h3.36v8.94h10.14V35zm5.208 16.83c0-2.88 2.11-4.52 6.33-4.92l4.44-.42v-1.2c0-.92-.29-1.66-.87-2.22-.56-.56-1.41-.84-2.55-.84-1.02 0-1.86.24-2.52.72-.66.46-1.02 1.14-1.08 2.04h-2.94c.06-1.74.69-3.02 1.89-3.84 1.2-.82 2.75-1.23 4.65-1.23 2.14 0 3.78.51 4.92 1.53 1.14 1.02 1.71 2.52 1.71 4.5V56h-2.97v-3.06a5.622 5.622 0 01-2.25 2.52c-1 .6-2.21.9-3.63.9-1.7 0-2.98-.42-3.84-1.26-.86-.84-1.29-1.93-1.29-3.27zm3.18-.15c0 .72.24 1.31.72 1.77.5.44 1.24.66 2.22.66 1.42 0 2.55-.44 3.39-1.32.84-.9 1.26-2.05 1.26-3.45v-.84l-4.02.39c-2.38.24-3.57 1.17-3.57 2.79zm22.483-11.4h3.21V56h-3.21v-6.3c-1.82.4-3.42.6-4.8.6-3.66 0-5.49-1.83-5.49-5.49v-4.53h3.21v4.14c0 1.18.26 2.02.78 2.52.54.48 1.41.72 2.61.72 1.04 0 2.27-.2 3.69-.6v-6.78zm4.604 11.55c0-2.88 2.11-4.52 6.33-4.92l4.44-.42v-1.2c0-.92-.29-1.66-.87-2.22-.56-.56-1.41-.84-2.55-.84-1.02 0-1.86.24-2.52.72-.66.46-1.02 1.14-1.08 2.04h-2.94c.06-1.74.69-3.02 1.89-3.84 1.2-.82 2.75-1.23 4.65-1.23 2.14 0 3.78.51 4.92 1.53 1.14 1.02 1.71 2.52 1.71 4.5V56h-2.97v-3.06a5.622 5.622 0 01-2.25 2.52c-1 .6-2.21.9-3.63.9-1.7 0-2.98-.42-3.84-1.26-.86-.84-1.29-1.93-1.29-3.27zm3.18-.15c0 .72.24 1.31.72 1.77.5.44 1.24.66 2.22.66 1.42 0 2.55-.44 3.39-1.32.84-.9 1.26-2.05 1.26-3.45v-.84l-4.02.39c-2.38.24-3.57 1.17-3.57 2.79zm14.501-11.4h11.61V56h-3.21V42.92h-5.58c-.06.74-.13 1.77-.21 3.09-.06 1.12-.11 1.94-.15 2.46-.04.5-.1 1.17-.18 2.01-.08.82-.16 1.42-.24 1.8-.08.36-.2.82-.36 1.38-.14.54-.31.93-.51 1.17-.18.22-.41.46-.69.72-.28.26-.6.43-.96.51-.36.1-.77.15-1.23.15-.54 0-1.02-.04-1.44-.12v-2.58c.22.02.47.03.75.03.84 0 1.42-1.05 1.74-3.15.14-1 .34-3.95.6-8.85l.06-1.26zm15.006 13.89c-1.38-1.48-2.07-3.49-2.07-6.03s.69-4.54 2.07-6c1.4-1.48 3.27-2.22 5.61-2.22 2.36 0 4.23.74 5.61 2.22 1.4 1.46 2.1 3.46 2.1 6s-.7 4.55-2.1 6.03c-1.38 1.46-3.25 2.19-5.61 2.19-2.34 0-4.21-.73-5.61-2.19zm2.31-10.17c-.8 1.04-1.2 2.42-1.2 4.14 0 1.72.4 3.1 1.2 4.14.82 1.04 1.92 1.56 3.3 1.56s2.48-.52 3.3-1.56c.82-1.04 1.23-2.42 1.23-4.14 0-1.72-.41-3.1-1.23-4.14-.82-1.04-1.92-1.56-3.3-1.56s-2.48.52-3.3 1.56zm17.382 12V40.28h13.74V56h-3.21V42.92h-7.32V56h-3.21zm26.755-15.72h3.42l-5.58 17.31c-.52 1.82-1.19 3.07-2.01 3.75-.82.68-2.06 1.02-3.72 1.02-.62 0-1.26-.04-1.92-.12v-2.46c.8.04 1.37.06 1.71.06.84 0 1.48-.19 1.92-.57.44-.36.81-1.06 1.11-2.1l.36-1.17h-1.86l-5.73-15.72h3.45l4.86 14.43 3.99-14.43zm2.807 2.64v-2.64h13.77v2.64h-5.28V56h-3.21V42.92h-5.28zm24.298-2.64h4.77V56h-3.09V42.62l-6.6 13.38h-4.77V40.28h3.09v13.38l6.6-13.38zM194.522 56v-3.9h3.63V56h-3.63z" fill="#fff"/><rect x="30" y="337" width="271" height="256" rx="21.093" fill="#F4E107"/><path d="M65.602 364.886V379h-1.855v-12.602h-7.198V379h-1.855v-14.114h10.908zm3.165 12.884c-.9-.995-1.35-2.346-1.35-4.053 0-1.707.45-3.051 1.35-4.032.914-.995 2.13-1.492 3.65-1.492 1.519 0 2.728.497 3.629 1.492.9.981 1.35 2.325 1.35 4.032 0 1.707-.45 3.058-1.35 4.053-.9.981-2.11 1.472-3.63 1.472-1.518 0-2.735-.491-3.649-1.472zm1.27-7.057c-.578.753-.867 1.754-.867 3.004s.29 2.252.867 3.005c.592.752 1.385 1.129 2.38 1.129.98 0 1.76-.377 2.338-1.129.592-.753.888-1.755.888-3.005s-.296-2.251-.888-3.004c-.578-.753-1.357-1.129-2.338-1.129-.995 0-1.788.376-2.38 1.129zm9.749-2.278h7.42V379H85.43v-9.114h-4.073c-.04.578-.094 1.378-.16 2.4a70.701 70.701 0 01-.142 2.157c-.027.444-.08.995-.161 1.654-.081.658-.175 1.122-.283 1.391a6.808 6.808 0 01-.443.887c-.188.309-.417.517-.686.625a2.944 2.944 0 01-.968.141c-.201 0-.49-.027-.867-.081v-1.411c.135.014.296.02.484.02a.813.813 0 00.706-.383c.175-.255.316-.759.424-1.512.12-.766.201-1.438.241-2.016.04-.578.094-1.58.162-3.005.053-.994.094-1.767.12-2.318zm16.848 0h1.895l-3.932 11.775c-.363 1.169-.793 1.969-1.29 2.399-.498.444-1.25.666-2.258.666-.336 0-.726-.021-1.17-.061v-1.371c.484.027.84.04 1.069.04.55 0 .968-.134 1.25-.403.282-.269.544-.78.786-1.532l.303-.948h-.988l-3.993-10.565h1.936l3.468 9.859 2.924-9.859zm9.595 0h1.754V379h-1.754v-4.396c-1.33.283-2.439.424-3.327.424-2.419 0-3.629-1.183-3.629-3.549v-3.044h1.774v2.802c0 .834.195 1.432.585 1.795.403.363 1.028.544 1.875.544.726 0 1.633-.148 2.722-.443v-4.698zm10.501 0h2.641V379h-1.694v-9.295L112.758 379h-2.662v-10.565h1.714v9.295l4.92-9.295zM121.481 379v-10.565h1.734v9.113h4.618v-9.113h1.734v9.113h4.617v-9.113h1.734V379h-14.437zm21.121-6.513c2.675 0 4.013 1.082 4.013 3.247 0 2.177-1.338 3.266-4.013 3.266h-4.577v-10.565h1.775v4.052h2.802zm-.141 5.162c1.6 0 2.4-.645 2.4-1.936 0-1.263-.8-1.895-2.4-1.895H139.8v3.831h2.661zm9.316 1.351v-10.565h8.872V379h-1.754v-9.114h-5.343V379h-1.775zm11.738-1.23c-.901-.995-1.351-2.346-1.351-4.053 0-1.707.45-3.051 1.351-4.032.914-.995 2.13-1.492 3.649-1.492 1.519 0 2.729.497 3.63 1.492.9.981 1.351 2.325 1.351 4.032 0 1.707-.451 3.058-1.351 4.053-.901.981-2.111 1.472-3.63 1.472-1.519 0-2.735-.491-3.649-1.472zm1.27-7.057c-.578.753-.867 1.754-.867 3.004s.289 2.252.867 3.005c.591.752 1.385 1.129 2.379 1.129.982 0 1.761-.377 2.339-1.129.592-.753.887-1.755.887-3.005s-.295-2.251-.887-3.004c-.578-.753-1.357-1.129-2.339-1.129-.994 0-1.788.376-2.379 1.129zm8.877 8.287v-10.565h1.774v4.456h5.464v-4.456h1.754V379H180.9v-4.658h-5.464V379h-1.774zm17.743-10.565h2.641V379h-1.694v-9.295L187.433 379h-2.662v-10.565h1.714v9.295l4.92-9.295zm14.45 0h2.943V379h-1.713v-9.335L203.576 379h-2.218l-3.488-9.335V379h-1.714v-10.565h2.964l3.367 9.597 3.368-9.597zm4.489 7.803c0-1.896 1.384-2.978 4.153-3.247l3.146-.302v-1.008c0-.659-.215-1.19-.645-1.593-.417-.417-1.035-.618-1.855-.605-.753 0-1.371.175-1.855.524-.484.336-.746.847-.787 1.533h-1.633c.04-1.143.45-1.983 1.23-2.521.78-.551 1.795-.826 3.045-.826 1.384 0 2.439.329 3.165.988.726.658 1.089 1.606 1.089 2.843V379h-1.613v-2.178a3.924 3.924 0 01-1.532 1.795c-.686.417-1.519.625-2.501.625-1.129 0-1.982-.276-2.56-.827-.565-.564-.847-1.29-.847-2.177zm1.754-.061c0 .524.182.955.544 1.291.363.336.908.504 1.634.504 1.035 0 1.855-.323 2.46-.968.604-.659.907-1.506.907-2.541v-.645l-2.944.303c-1.734.161-2.601.846-2.601 2.056zm9.31 2.823v-10.565h1.774v4.456h5.464v-4.456h1.754V379h-1.754v-4.658h-5.464V379h-1.774zm17.743-10.565h2.641V379h-1.694v-9.295L235.179 379h-2.662v-10.565h1.714v9.295l4.92-9.295zm4.146 5.282c0-1.801.451-3.172 1.351-4.113.914-.941 2.124-1.411 3.63-1.411 1.545 0 2.722.477 3.528 1.431.82.955 1.23 2.406 1.23 4.355v.242h-7.964c.067 1.21.396 2.138.988 2.783.604.632 1.391.948 2.359.948 1.371 0 2.305-.605 2.802-1.815l1.674.101c-.282.941-.807 1.68-1.573 2.218-.766.524-1.734.786-2.903.786-1.573 0-2.823-.464-3.751-1.391-.914-.941-1.371-2.319-1.371-4.134zm1.795-.665h6.19c-.014-1.102-.296-1.969-.847-2.601-.538-.645-1.257-.968-2.157-.968-.888 0-1.62.309-2.198.928-.578.604-.908 1.485-.988 2.641zm9.307 8.267v-4.638h2.036v1.412l-1.23 3.226h-.806zM63.767 400h-2.198l-3.952-4.658h-1.451V400H54.39v-10.565h1.775v4.516h1.492l3.73-4.516h2.137l-4.597 5.081 4.84 5.484zm.027-2.762c0-1.896 1.385-2.978 4.154-3.247l3.145-.302v-1.008c0-.659-.215-1.19-.645-1.593-.417-.417-1.035-.618-1.855-.605-.753 0-1.371.175-1.855.524-.484.336-.746.847-.786 1.533h-1.634c.04-1.143.45-1.983 1.23-2.521.78-.551 1.795-.826 3.045-.826 1.384 0 2.44.329 3.165.988.726.658 1.09 1.606 1.09 2.843V400h-1.614v-2.178a3.923 3.923 0 01-1.532 1.795c-.686.417-1.52.625-2.5.625-1.13 0-1.983-.276-2.561-.827-.565-.564-.847-1.29-.847-2.177zm1.754-.061c0 .524.182.955.545 1.291.363.336.907.504 1.633.504 1.035 0 1.855-.323 2.46-.968.605-.659.907-1.506.907-2.541v-.645l-2.944.303c-1.734.161-2.6.846-2.6 2.056zM84.234 400h-2.198l-3.952-4.658h-1.452V400h-1.774v-10.565h1.774v4.516h1.492l3.73-4.516h2.138l-4.598 5.081 4.84 5.484zm4.612 0v-10.565h8.872V400h-1.754v-9.114H90.62V400h-1.775zm11.737-1.23c-.9-.995-1.35-2.346-1.35-4.053 0-1.707.45-3.051 1.35-4.032.915-.995 2.131-1.492 3.65-1.492 1.519 0 2.729.497 3.629 1.492.901.981 1.351 2.325 1.351 4.032 0 1.707-.45 3.058-1.351 4.053-.9.981-2.11 1.472-3.629 1.472-1.519 0-2.735-.491-3.65-1.472zm1.271-7.057c-.578.753-.867 1.754-.867 3.004s.289 2.252.867 3.005c.591.752 1.384 1.129 2.379 1.129.981 0 1.761-.377 2.339-1.129.591-.753.887-1.755.887-3.005s-.296-2.251-.887-3.004c-.578-.753-1.358-1.129-2.339-1.129-.995 0-1.788.376-2.379 1.129zm9.748-2.278h7.42V400h-1.774v-9.114h-4.073c-.041.578-.094 1.378-.162 2.4-.053.994-.1 1.714-.141 2.157-.027.444-.08.995-.161 1.654-.081.658-.175 1.122-.282 1.391a6.905 6.905 0 01-.444.887c-.188.309-.417.517-.685.625a2.947 2.947 0 01-.968.141c-.202 0-.491-.027-.867-.081v-1.411c.134.014.296.02.484.02a.812.812 0 00.705-.383c.175-.255.316-.759.424-1.512.121-.766.201-1.438.242-2.016.04-.578.094-1.58.161-3.005.054-.994.094-1.767.121-2.318zM121.131 400v-10.565h1.774v4.456h5.464v-4.456h1.755V400h-1.755v-4.658h-5.464V400h-1.774zm11.855-1.23c-.9-.995-1.35-2.346-1.35-4.053 0-1.707.45-3.051 1.35-4.032.915-.995 2.131-1.492 3.65-1.492 1.519 0 2.729.497 3.629 1.492.901.981 1.351 2.325 1.351 4.032 0 1.707-.45 3.058-1.351 4.053-.9.981-2.11 1.472-3.629 1.472-1.519 0-2.735-.491-3.65-1.472zm1.271-7.057c-.578.753-.867 1.754-.867 3.004s.289 2.252.867 3.005c.591.752 1.384 1.129 2.379 1.129.981 0 1.761-.377 2.339-1.129.591-.753.887-1.755.887-3.005s-.296-2.251-.887-3.004c-.578-.753-1.358-1.129-2.339-1.129-.995 0-1.788.376-2.379 1.129zm8.271 3.004c0-1.761.437-3.118 1.311-4.073.874-.967 2.057-1.451 3.549-1.451 1.209 0 2.224.322 3.044.967.834.646 1.331 1.566 1.492 2.763l-1.693.161c-.135-.82-.464-1.438-.988-1.855-.511-.43-1.129-.645-1.855-.645-.941 0-1.694.37-2.259 1.109-.564.726-.846 1.734-.846 3.024 0 1.291.282 2.306.846 3.045.578.726 1.345 1.089 2.299 1.089.753 0 1.385-.222 1.895-.666.525-.457.861-1.102 1.009-1.935l1.693.141c-.161 1.223-.658 2.171-1.492 2.843-.833.672-1.868 1.008-3.105 1.008-1.519 0-2.715-.477-3.589-1.432-.874-.954-1.311-2.318-1.311-4.093zm9.763-3.831v-1.451h8.912v1.451h-3.568V400h-1.775v-9.114h-3.569zm14.685 2.601c2.675 0 4.012 1.082 4.012 3.247 0 2.177-1.337 3.266-4.012 3.266h-4.577v-10.565h1.774v4.052h2.803zm-.141 5.162c1.599 0 2.399-.645 2.399-1.936 0-1.263-.8-1.895-2.399-1.895h-2.662v3.831h2.662zm14.401-9.456c1.505 0 2.688.484 3.549 1.451.873.955 1.31 2.312 1.31 4.073 0 1.761-.437 3.126-1.31 4.093-.861.955-2.044 1.432-3.549 1.432-1.411 0-2.547-.423-3.408-1.27-.86-.861-1.344-2.07-1.451-3.63h-2.158V400h-1.774v-10.565h1.774v4.456h2.178c.134-1.506.625-2.662 1.472-3.468.86-.82 1.982-1.23 3.367-1.23zm-2.278 8.569c.564.726 1.324 1.089 2.278 1.089s1.707-.363 2.258-1.089c.565-.739.847-1.754.847-3.045 0-1.29-.282-2.298-.847-3.024-.551-.739-1.304-1.109-2.258-1.109s-1.714.37-2.278 1.109c-.565.726-.847 1.734-.847 3.024 0 1.291.282 2.306.847 3.045zM191.572 400v-10.565h8.872V400h-1.754v-9.114h-5.343V400h-1.775zm10.992 4.033v-14.598h1.633v2.258c.323-.793.807-1.405 1.452-1.835.658-.444 1.411-.665 2.258-.665 1.317 0 2.379.49 3.186 1.472.806.981 1.21 2.332 1.21 4.052 0 1.721-.404 3.072-1.21 4.053-.807.981-1.869 1.472-3.186 1.472-.793 0-1.499-.195-2.117-.585-.618-.39-1.102-.947-1.452-1.673v6.049h-1.774zm2.52-12.32c-.564.753-.847 1.754-.847 3.004s.283 2.252.847 3.005c.578.752 1.351 1.129 2.319 1.129s1.734-.377 2.299-1.129c.564-.753.846-1.755.846-3.005s-.282-2.251-.846-3.004c-.565-.753-1.331-1.129-2.299-1.129s-1.741.376-2.319 1.129zm9.473 7.057c-.9-.995-1.351-2.346-1.351-4.053 0-1.707.451-3.051 1.351-4.032.914-.995 2.131-1.492 3.65-1.492 1.519 0 2.728.497 3.629 1.492.901.981 1.351 2.325 1.351 4.032 0 1.707-.45 3.058-1.351 4.053-.901.981-2.11 1.472-3.629 1.472-1.519 0-2.736-.491-3.65-1.472zm1.27-7.057c-.578.753-.867 1.754-.867 3.004s.289 2.252.867 3.005c.592.752 1.385 1.129 2.38 1.129.981 0 1.761-.377 2.339-1.129.591-.753.887-1.755.887-3.005s-.296-2.251-.887-3.004c-.578-.753-1.358-1.129-2.339-1.129-.995 0-1.788.376-2.38 1.129zm15.591-4.416c-.47.484-1.162.726-2.076.726-.915 0-1.607-.242-2.077-.726-.471-.497-.719-1.156-.746-1.976h1.189c.041.457.188.847.444 1.17.255.322.652.484 1.19.484.981 0 1.532-.551 1.653-1.654h1.189c-.026.82-.282 1.479-.766 1.976zm-.08 2.138h2.641V400h-1.694v-9.295L227.366 400h-2.662v-10.565h1.714v9.295l4.92-9.295zm3.824 1.451v-1.451h8.912v1.451h-3.569V400h-1.774v-9.114h-3.569zm16.741-1.451h2.641V400h-1.694v-9.295L247.931 400h-2.662v-10.565h1.714v9.295l4.92-9.295zM63.767 421h-2.198l-3.952-4.658h-1.451V421H54.39v-10.565h1.775v4.516h1.492l3.73-4.516h2.137l-4.597 5.081 4.84 5.484zm8.265-10.565h1.896l-3.932 11.775c-.363 1.169-.793 1.969-1.29 2.399-.498.444-1.25.666-2.259.666-.336 0-.726-.021-1.17-.061v-1.371c.485.027.84.04 1.07.04.55 0 .967-.134 1.25-.403.282-.269.544-.78.786-1.532l.302-.948h-.988l-3.992-10.565h1.936l3.468 9.859 2.923-9.859zm3.023 14.598v-14.598h1.633v2.258c.322-.793.806-1.405 1.452-1.835.658-.444 1.411-.665 2.258-.665 1.317 0 2.38.49 3.186 1.472.806.981 1.21 2.332 1.21 4.052 0 1.721-.404 3.072-1.21 4.053-.807.981-1.869 1.472-3.186 1.472-.793 0-1.499-.195-2.117-.585-.619-.39-1.103-.947-1.452-1.673v6.049h-1.774zm2.52-12.32c-.565.753-.847 1.754-.847 3.004s.282 2.252.847 3.005c.578.752 1.35 1.129 2.319 1.129.968 0 1.734-.377 2.298-1.129.565-.753.847-1.755.847-3.005s-.282-2.251-.847-3.004c-.564-.753-1.33-1.129-2.298-1.129s-1.741.376-2.319 1.129zm8.122 3.004c0-1.761.437-3.118 1.31-4.073.874-.967 2.057-1.451 3.55-1.451 1.21 0 2.224.322 3.044.967.833.646 1.33 1.566 1.492 2.763l-1.694.161c-.134-.82-.463-1.438-.988-1.855-.51-.43-1.129-.645-1.855-.645-.94 0-1.693.37-2.258 1.109-.564.726-.847 1.734-.847 3.024 0 1.291.283 2.306.847 3.045.578.726 1.344 1.089 2.299 1.089.752 0 1.384-.222 1.895-.666.524-.457.86-1.102 1.008-1.935l1.694.141c-.162 1.223-.659 2.171-1.492 2.843-.834.672-1.869 1.008-3.105 1.008-1.52 0-2.716-.477-3.59-1.432-.873-.954-1.31-2.318-1.31-4.093zm21.66-5.282h2.641V421h-1.693v-9.295l-4.92 9.295h-2.661v-10.565h1.713v9.295l4.92-9.295zm14.596 5.121c2.07.188 3.105 1.048 3.105 2.581 0 .833-.302 1.519-.907 2.056-.605.538-1.573.807-2.903.807h-4.981v-10.565h4.739c1.223 0 2.15.242 2.782.725.632.484.948 1.13.948 1.936 0 1.371-.928 2.191-2.783 2.46zm-3.911-3.791v3.267h2.823c.712 0 1.236-.148 1.572-.444.35-.296.525-.692.525-1.189 0-1.089-.733-1.634-2.198-1.634h-2.722zm3.004 7.904c1.492 0 2.238-.584 2.238-1.754 0-1.143-.779-1.714-2.339-1.714h-2.903v3.468h3.004zm9.878-5.182c2.675 0 4.013 1.082 4.013 3.247 0 2.177-1.338 3.266-4.013 3.266h-4.335v-10.565h1.775v4.052h2.56zm5.686-4.052h1.775V421h-1.775v-10.565zm-5.827 9.214c1.6 0 2.4-.645 2.4-1.936 0-1.263-.8-1.895-2.4-1.895h-2.419v3.831h2.419zm24.35 1.351h-2.177l-3.549-4.658h-1.311V421h-1.734v-4.658h-1.31L141.503 421h-2.178l4.396-5.484-4.234-5.081h2.097l3.407 4.516h1.371v-4.516h1.734v4.516h1.371l3.408-4.516h2.097l-4.234 5.081 4.395 5.484zm.022-2.762c0-1.896 1.385-2.978 4.154-3.247l3.145-.302v-1.008c0-.659-.215-1.19-.645-1.593-.417-.417-1.035-.618-1.855-.605-.753 0-1.371.175-1.855.524-.484.336-.746.847-.787 1.533h-1.633c.041-1.143.451-1.983 1.23-2.521.78-.551 1.795-.826 3.045-.826 1.384 0 2.44.329 3.165.988.726.658 1.089 1.606 1.089 2.843V421h-1.613v-2.178a3.924 3.924 0 01-1.532 1.795c-.686.417-1.519.625-2.5.625-1.13 0-1.983-.276-2.561-.827-.565-.564-.847-1.29-.847-2.177zm1.754-.061c0 .524.182.955.545 1.291.363.336.907.504 1.633.504 1.035 0 1.855-.323 2.46-.968.605-.659.907-1.506.907-2.541v-.645l-2.944.303c-1.734.161-2.601.846-2.601 2.056zm8.067-6.291v-1.451h8.912v1.451h-3.569V421h-1.774v-9.114h-3.569zm14.684 2.601c2.675 0 4.013 1.082 4.013 3.247 0 2.177-1.338 3.266-4.013 3.266h-4.577v-10.565h1.775v4.052h2.802zm-.141 5.162c1.6 0 2.4-.645 2.4-1.936 0-1.263-.8-1.895-2.4-1.895h-2.661v3.831h2.661zm15.95-9.214h2.641V421h-1.693v-9.295l-4.92 9.295h-2.661v-10.565h1.713v9.295l4.92-9.295zm9.792 5.101c2.151.228 3.226 1.122 3.226 2.682 0 .9-.349 1.633-1.048 2.197-.699.551-1.835.827-3.408.827-2.916 0-4.469-1.149-4.657-3.448l1.694-.081c.134 1.452 1.122 2.178 2.963 2.178.888 0 1.553-.168 1.997-.504.457-.35.685-.82.685-1.411 0-1.183-.961-1.775-2.883-1.775h-1.331v-1.169h1.25c.887 0 1.546-.155 1.976-.464.444-.323.666-.739.666-1.25 0-.538-.216-.968-.646-1.291-.43-.322-1.001-.483-1.714-.483-.725 0-1.33.174-1.814.524-.471.349-.74.867-.807 1.552l-1.714-.1c.081-1.116.511-1.95 1.291-2.501.779-.551 1.794-.826 3.044-.826 1.345 0 2.366.255 3.065.766.713.497 1.069 1.169 1.069 2.016 0 1.438-.968 2.292-2.904 2.561zM214.17 421v-10.565h1.774v4.456h5.464v-4.456h1.754V421h-1.754v-4.658h-5.464V421h-1.774zm10.504-5.283c0-1.801.451-3.172 1.351-4.113.914-.941 2.124-1.411 3.63-1.411 1.545 0 2.722.477 3.528 1.431.82.955 1.23 2.406 1.23 4.355v.242h-7.964c.067 1.21.396 2.138.988 2.783.604.632 1.391.948 2.359.948 1.371 0 2.305-.605 2.802-1.815l1.674.101c-.282.941-.807 1.68-1.573 2.218-.766.524-1.734.786-2.903.786-1.573 0-2.823-.464-3.751-1.391-.914-.941-1.371-2.319-1.371-4.134zm1.795-.665h6.19c-.014-1.102-.296-1.969-.847-2.601-.538-.645-1.257-.968-2.157-.968-.888 0-1.62.309-2.198.928-.578.604-.908 1.485-.988 2.641zm9.408 5.948v-10.565h6.976v1.451h-5.202V421h-1.774zm8.37-1.23c-.901-.995-1.351-2.346-1.351-4.053 0-1.707.45-3.051 1.351-4.032.914-.995 2.131-1.492 3.649-1.492 1.519 0 2.729.497 3.63 1.492.9.981 1.351 2.325 1.351 4.032 0 1.707-.451 3.058-1.351 4.053-.901.981-2.111 1.472-3.63 1.472-1.518 0-2.735-.491-3.649-1.472zm1.27-7.057c-.578.753-.867 1.754-.867 3.004s.289 2.252.867 3.005c.592.752 1.385 1.129 2.379 1.129.982 0 1.761-.377 2.339-1.129.592-.753.888-1.755.888-3.005s-.296-2.251-.888-3.004c-.578-.753-1.357-1.129-2.339-1.129-.994 0-1.787.376-2.379 1.129zM64.09 431.435h2.943V442H65.32v-9.335L61.81 442h-2.218l-3.488-9.335V442H54.39v-10.565h2.964l3.367 9.597 3.368-9.597zm4.489 7.803c0-1.896 1.384-2.978 4.154-3.247l3.145-.302v-1.008c0-.659-.215-1.19-.645-1.593-.417-.417-1.035-.618-1.855-.605-.753 0-1.371.175-1.855.524-.484.336-.746.847-.787 1.533h-1.633c.04-1.143.45-1.983 1.23-2.521.78-.551 1.795-.826 3.045-.826 1.384 0 2.44.329 3.165.988.726.658 1.09 1.606 1.09 2.843V442h-1.614v-2.178a3.921 3.921 0 01-1.532 1.795c-.686.417-1.52.625-2.5.625-1.13 0-1.983-.276-2.561-.827-.565-.564-.847-1.29-.847-2.177zm1.754-.061c0 .524.181.955.544 1.291.363.336.908.504 1.634.504 1.035 0 1.855-.323 2.46-.968.604-.659.907-1.506.907-2.541v-.645l-2.944.303c-1.734.161-2.6.846-2.6 2.056zM89.018 442H86.82l-3.951-4.658h-1.452V442h-1.775v-10.565h1.775v4.516h1.492l3.73-4.516h2.137l-4.597 5.081L89.02 442zm-.387-5.283c0-1.761.437-3.118 1.31-4.073.874-.967 2.057-1.451 3.55-1.451 1.209 0 2.224.322 3.044.967.833.646 1.33 1.566 1.492 2.763l-1.694.161c-.134-.82-.463-1.438-.988-1.855-.51-.43-1.129-.645-1.855-.645-.94 0-1.694.37-2.258 1.109-.565.726-.847 1.734-.847 3.024 0 1.291.282 2.306.847 3.045.578.726 1.344 1.089 2.299 1.089.752 0 1.384-.222 1.895-.666.524-.457.86-1.102 1.008-1.935l1.694.141c-.162 1.223-.659 2.171-1.492 2.843-.834.672-1.869 1.008-3.105 1.008-1.52 0-2.716-.477-3.59-1.432-.873-.954-1.31-2.318-1.31-4.093zm17.501-5.282h2.642V442h-1.694v-9.295L102.16 442h-2.661v-10.565h1.713v9.295l4.92-9.295zm14.45 0h2.944V442h-1.714v-9.335L118.304 442h-2.218l-3.488-9.335V442h-1.714v-10.565h2.964l3.367 9.597 3.367-9.597zm12.373 0h1.895l-3.931 11.775c-.363 1.169-.793 1.969-1.291 2.399-.497.444-1.25.666-2.258.666-.336 0-.726-.021-1.169-.061v-1.371c.483.027.84.04 1.068.04.551 0 .968-.134 1.25-.403.283-.269.545-.78.787-1.532l.302-.948h-.988l-3.992-10.565h1.935l3.468 9.859 2.924-9.859zm12.721 0h2.944V442h-1.714v-9.335L143.397 442h-2.217l-3.489-9.335V442h-1.713v-10.565h2.963l3.368 9.597 3.367-9.597zM154.888 442v-10.565h8.872V442h-1.754v-9.114h-5.343V442h-1.775zm11.738-1.23c-.901-.995-1.351-2.346-1.351-4.053 0-1.707.45-3.051 1.351-4.032.914-.995 2.13-1.492 3.649-1.492 1.519 0 2.729.497 3.63 1.492.9.981 1.351 2.325 1.351 4.032 0 1.707-.451 3.058-1.351 4.053-.901.981-2.111 1.472-3.63 1.472-1.519 0-2.735-.491-3.649-1.472zm1.27-7.057c-.578.753-.867 1.754-.867 3.004s.289 2.252.867 3.005c.592.752 1.385 1.129 2.379 1.129.982 0 1.761-.377 2.339-1.129.592-.753.887-1.755.887-3.005s-.295-2.251-.887-3.004c-.578-.753-1.357-1.129-2.339-1.129-.994 0-1.787.376-2.379 1.129zm9.748-2.278h7.42V442h-1.774v-9.114h-4.073c-.04.578-.094 1.378-.161 2.4a68.305 68.305 0 01-.141 2.157c-.027.444-.081.995-.162 1.654-.08.658-.174 1.122-.282 1.391a6.76 6.76 0 01-.443.887c-.189.309-.417.517-.686.625a2.943 2.943 0 01-.968.141c-.201 0-.49-.027-.867-.081v-1.411c.135.014.296.02.484.02a.813.813 0 00.706-.383c.175-.255.316-.759.423-1.512.121-.766.202-1.438.242-2.016.04-.578.094-1.58.161-3.005.054-.994.095-1.767.121-2.318zm14.106 4.052c2.675 0 4.013 1.082 4.013 3.247 0 2.177-1.338 3.266-4.013 3.266h-4.577v-10.565h1.775v4.052h2.802zm-.141 5.162c1.6 0 2.4-.645 2.4-1.936 0-1.263-.8-1.895-2.4-1.895h-2.661v3.831h2.661zm10.651-4.113c2.151.228 3.226 1.122 3.226 2.682 0 .9-.349 1.633-1.048 2.197-.699.551-1.835.827-3.408.827-2.917 0-4.469-1.149-4.657-3.448l1.693-.081c.135 1.452 1.123 2.178 2.964 2.178.888 0 1.553-.168 1.996-.504.457-.35.686-.82.686-1.411 0-1.183-.961-1.775-2.883-1.775h-1.331v-1.169h1.25c.887 0 1.546-.155 1.976-.464.444-.323.665-.739.665-1.25 0-.538-.215-.968-.645-1.291-.43-.322-1.001-.483-1.714-.483-.726 0-1.33.174-1.814.524-.471.349-.74.867-.807 1.552l-1.714-.1c.081-1.116.511-1.95 1.291-2.501.779-.551 1.794-.826 3.044-.826 1.345 0 2.366.255 3.065.766.713.497 1.069 1.169 1.069 2.016 0 1.438-.968 2.292-2.904 2.561zm9.085-1.049c2.675 0 4.012 1.082 4.012 3.247 0 2.177-1.337 3.266-4.012 3.266h-4.335v-10.565h1.774v4.052h2.561zm5.686-4.052h1.774V442h-1.774v-10.565zm-5.827 9.214c1.599 0 2.399-.645 2.399-1.936 0-1.263-.8-1.895-2.399-1.895h-2.42v3.831h2.42zm21.879-.101h1.23v4.295h-1.673V442h-7.239v2.843h-1.673v-4.295h.786c.162-.349.296-.766.403-1.25.121-.497.222-1.263.303-2.298a72.72 72.72 0 00.181-2.279c.041-.497.108-1.593.202-3.286h7.48v9.113zm-1.774 0v-7.662h-4.174c-.242 3.455-.436 5.599-.584 6.432a8.42 8.42 0 01-.323 1.23h5.081zm5.195-9.113h7.42V442h-1.774v-9.114h-4.073c-.041.578-.094 1.378-.162 2.4-.053.994-.1 1.714-.141 2.157-.027.444-.08.995-.161 1.654-.081.658-.175 1.122-.282 1.391a6.905 6.905 0 01-.444.887c-.188.309-.417.517-.686.625a2.937 2.937 0 01-.967.141c-.202 0-.491-.027-.867-.081v-1.411c.134.014.295.02.484.02a.812.812 0 00.705-.383c.175-.255.316-.759.424-1.512.121-.766.201-1.438.242-2.016.04-.578.094-1.58.161-3.005.054-.994.094-1.767.121-2.318zm12.997 0h4.758V442h-1.794v-4.355h-2.299L247.364 442h-2.118l3.166-4.436c-.901-.148-1.593-.477-2.077-.988-.484-.524-.726-1.203-.726-2.036 0-.995.336-1.761 1.009-2.299.685-.538 1.646-.806 2.883-.806zm2.964 5.04v-3.689h-2.742c-.74 0-1.318.168-1.734.504-.404.322-.605.773-.605 1.351 0 .564.201 1.014.605 1.35.416.323.994.484 1.734.484h2.742zM53.786 457.717c0-1.761.437-3.118 1.31-4.073.875-.967 2.058-1.451 3.55-1.451 1.21 0 2.224.322 3.044.967.834.646 1.331 1.566 1.492 2.763l-1.693.161c-.135-.82-.464-1.438-.988-1.855-.511-.43-1.13-.645-1.855-.645-.941 0-1.694.37-2.259 1.109-.564.726-.846 1.734-.846 3.024 0 1.291.282 2.306.846 3.045.578.726 1.345 1.089 2.299 1.089.753 0 1.385-.222 1.895-.666.524-.457.86-1.102 1.008-1.935l1.694.141c-.161 1.223-.659 2.171-1.492 2.843-.833.672-1.868 1.008-3.105 1.008-1.519 0-2.715-.477-3.59-1.432-.873-.954-1.31-2.318-1.31-4.093zm10.263 0c0-1.801.45-3.172 1.351-4.113.914-.941 2.124-1.411 3.63-1.411 1.545 0 2.721.477 3.528 1.431.82.955 1.23 2.406 1.23 4.355v.242h-7.965c.068 1.21.397 2.138.989 2.783.604.632 1.39.948 2.359.948 1.37 0 2.305-.605 2.802-1.815l1.674.101c-.283.941-.807 1.68-1.573 2.218-.766.524-1.734.786-2.903.786-1.573 0-2.823-.464-3.75-1.391-.915-.941-1.372-2.319-1.372-4.134zm1.795-.665h6.19c-.014-1.102-.296-1.969-.847-2.601-.538-.645-1.257-.968-2.158-.968-.887 0-1.62.309-2.197.928-.578.604-.908 1.485-.988 2.641zm14.227-4.295c1.398 0 2.527.471 3.387 1.412.86.941 1.29 2.218 1.29 3.831 0 1.626-.45 2.91-1.35 3.851-.888.927-2.097 1.391-3.63 1.391-3.334 0-5-2.238-5-6.714 0-2.353.329-4.147.988-5.384.658-1.236 1.734-2.009 3.226-2.319.282-.067.571-.121.867-.161.309-.054.632-.101.968-.141.349-.04.611-.074.786-.101.887-.134 1.586-.302 2.097-.504v1.391c-.363.229-.988.41-1.875.545l-.928.121a74.11 74.11 0 00-1.048.141c-.551.067-1.022.195-1.412.383-.376.175-.746.464-1.109.867-.363.39-.652.961-.867 1.714-.215.753-.356 1.687-.423 2.802.282-.981.766-1.747 1.452-2.298.699-.551 1.559-.827 2.58-.827zm-.303 9.094c.995 0 1.781-.343 2.36-1.029.577-.699.866-1.64.866-2.822 0-1.183-.289-2.118-.867-2.803-.578-.699-1.364-1.049-2.359-1.049-1.008 0-1.801.35-2.38 1.049-.577.685-.866 1.62-.866 2.803 0 1.182.289 2.123.867 2.822.578.686 1.37 1.029 2.38 1.029zm9.766-9.416h4.758V463h-1.794v-4.355h-2.299L87.396 463H85.28l3.166-4.436c-.9-.148-1.593-.477-2.077-.988-.484-.524-.726-1.203-.726-2.036 0-.995.336-1.761 1.008-2.299.686-.538 1.647-.806 2.884-.806zm2.964 5.04v-3.689h-2.743c-.739 0-1.317.168-1.733.504-.404.322-.605.773-.605 1.351 0 .564.201 1.014.605 1.35.416.323.994.484 1.733.484h2.743zM96.306 463v-2.319h2.037V463h-2.037zm19.413-14.114V463h-1.855v-12.602h-7.198V463h-1.855v-14.114h10.908zm3.165 12.884c-.901-.995-1.351-2.346-1.351-4.053 0-1.707.45-3.051 1.351-4.032.914-.995 2.131-1.492 3.65-1.492 1.518 0 2.728.497 3.629 1.492.901.981 1.351 2.325 1.351 4.032 0 1.707-.45 3.058-1.351 4.053-.901.981-2.111 1.472-3.629 1.472-1.519 0-2.736-.491-3.65-1.472zm1.27-7.057c-.578.753-.867 1.754-.867 3.004s.289 2.252.867 3.005c.592.752 1.385 1.129 2.38 1.129.981 0 1.76-.377 2.338-1.129.592-.753.888-1.755.888-3.005s-.296-2.251-.888-3.004c-.578-.753-1.357-1.129-2.338-1.129-.995 0-1.788.376-2.38 1.129zm8.272 3.004c0-1.761.437-3.118 1.311-4.073.873-.967 2.056-1.451 3.548-1.451 1.21 0 2.225.322 3.045.967.833.646 1.331 1.566 1.492 2.763l-1.694.161c-.134-.82-.463-1.438-.988-1.855-.511-.43-1.129-.645-1.855-.645-.941 0-1.693.37-2.258 1.109-.565.726-.847 1.734-.847 3.024 0 1.291.282 2.306.847 3.045.578.726 1.344 1.089 2.299 1.089.752 0 1.384-.222 1.895-.666.524-.457.86-1.102 1.008-1.935l1.694.141c-.162 1.223-.659 2.171-1.492 2.843-.834.672-1.869 1.008-3.105 1.008-1.519 0-2.716-.477-3.589-1.432-.874-.954-1.311-2.318-1.311-4.093zm9.763-3.831v-1.451h8.912v1.451h-3.569V463h-1.774v-9.114h-3.569zm9.09 6.352c0-1.896 1.384-2.978 4.153-3.247l3.146-.302v-1.008c0-.659-.215-1.19-.645-1.593-.417-.417-1.035-.618-1.855-.605-.753 0-1.371.175-1.855.524-.484.336-.746.847-.787 1.533h-1.633c.04-1.143.45-1.983 1.23-2.521.78-.551 1.795-.826 3.045-.826 1.384 0 2.439.329 3.165.988.726.658 1.089 1.606 1.089 2.843V463h-1.613v-2.178a3.924 3.924 0 01-1.532 1.795c-.686.417-1.519.625-2.501.625-1.129 0-1.982-.276-2.56-.827-.565-.564-.847-1.29-.847-2.177zm1.754-.061c0 .524.182.955.544 1.291.363.336.908.504 1.634.504 1.035 0 1.855-.323 2.46-.968.604-.659.907-1.506.907-2.541v-.645l-2.944.303c-1.734.161-2.601.846-2.601 2.056zm14.995-2.621c2.071.188 3.106 1.048 3.106 2.581 0 .833-.303 1.519-.908 2.056-.605.538-1.572.807-2.903.807h-4.98v-10.565h4.738c1.223 0 2.151.242 2.782.725.632.484.948 1.13.948 1.936 0 1.371-.928 2.191-2.783 2.46zm-3.911-3.791v3.267h2.823c.712 0 1.236-.148 1.572-.444.35-.296.525-.692.525-1.189 0-1.089-.733-1.634-2.198-1.634h-2.722zm3.004 7.904c1.492 0 2.238-.584 2.238-1.754 0-1.143-.779-1.714-2.339-1.714h-2.903v3.468h3.004zm12.177-9.234h2.641V463h-1.693v-9.295l-4.92 9.295h-2.662v-10.565h1.714v9.295l4.92-9.295zM180.05 463v-10.565h1.734v9.113h4.617v-9.113h1.734v9.113h4.617v-9.113h1.734V463H180.05zm21.121-6.513c2.674 0 4.012 1.082 4.012 3.247 0 2.177-1.338 3.266-4.012 3.266h-4.577v-10.565h1.774v4.052h2.803zm-.142 5.162c1.6 0 2.4-.645 2.4-1.936 0-1.263-.8-1.895-2.4-1.895h-2.661v3.831h2.661zm9.317 1.351v-10.565h1.774v9.113h5.343v-9.113h1.754v9.113h1.25v4.295h-1.673V463h-8.448zm10.524-5.283c0-1.801.45-3.172 1.351-4.113.914-.941 2.124-1.411 3.629-1.411 1.546 0 2.722.477 3.529 1.431.82.955 1.23 2.406 1.23 4.355v.242h-7.965c.067 1.21.397 2.138.988 2.783.605.632 1.391.948 2.359.948 1.371 0 2.306-.605 2.803-1.815l1.673.101c-.282.941-.806 1.68-1.572 2.218-.766.524-1.734.786-2.904.786-1.572 0-2.823-.464-3.75-1.391-.914-.941-1.371-2.319-1.371-4.134zm1.794-.665h6.19c-.013-1.102-.295-1.969-.846-2.601-.538-.645-1.257-.968-2.158-.968-.887 0-1.62.309-2.198.928-.578.604-.907 1.485-.988 2.641zm10.3-4.617h7.42V463h-1.775v-9.114h-4.073c-.04.578-.094 1.378-.161 2.4a68.305 68.305 0 01-.141 2.157c-.027.444-.081.995-.161 1.654-.081.658-.175 1.122-.283 1.391a6.76 6.76 0 01-.443.887c-.188.309-.417.517-.686.625a2.943 2.943 0 01-.968.141c-.201 0-.49-.027-.867-.081v-1.411c.135.014.296.02.484.02a.813.813 0 00.706-.383c.175-.255.316-.759.424-1.512.12-.766.201-1.438.241-2.016.041-.578.095-1.58.162-3.005.054-.994.094-1.767.121-2.318zm16.162 0h2.642V463h-1.694v-9.295l-4.92 9.295h-2.661v-10.565h1.713v9.295l4.92-9.295zM253.777 463v-2.319h2.036V463h-2.036zM65.602 490.886V505h-1.855v-12.602h-7.198V505h-1.855v-14.114h10.908zm3.165 12.884c-.9-.995-1.35-2.346-1.35-4.053 0-1.707.45-3.051 1.35-4.032.914-.995 2.13-1.492 3.65-1.492 1.519 0 2.728.497 3.629 1.492.9.981 1.35 2.325 1.35 4.032 0 1.707-.45 3.058-1.35 4.053-.9.981-2.11 1.472-3.63 1.472-1.518 0-2.735-.491-3.649-1.472zm1.27-7.057c-.578.753-.867 1.754-.867 3.004s.29 2.252.867 3.005c.592.752 1.385 1.129 2.38 1.129.98 0 1.76-.377 2.338-1.129.592-.753.888-1.755.888-3.005s-.296-2.251-.888-3.004c-.578-.753-1.357-1.129-2.338-1.129-.995 0-1.788.376-2.38 1.129zm16.945 6.835h1.23v4.295H86.54V505H79.3v2.843h-1.673v-4.295h.786c.162-.349.296-.766.404-1.25.12-.497.221-1.263.302-2.298a72.72 72.72 0 00.181-2.279c.04-.497.108-1.593.202-3.286h7.48v9.113zm-1.774 0v-7.662h-4.174c-.242 3.455-.437 5.599-.584 6.432a8.45 8.45 0 01-.323 1.23h5.081zM89.334 505v-10.565h6.977v1.451h-5.202V505h-1.775zm8.37-1.23c-.9-.995-1.35-2.346-1.35-4.053 0-1.707.45-3.051 1.35-4.032.915-.995 2.131-1.492 3.65-1.492 1.519 0 2.729.497 3.629 1.492.901.981 1.351 2.325 1.351 4.032 0 1.707-.45 3.058-1.351 4.053-.9.981-2.11 1.472-3.629 1.472-1.519 0-2.735-.491-3.65-1.472zm1.27-7.057c-.577.753-.866 1.754-.866 3.004s.289 2.252.867 3.005c.591.752 1.384 1.129 2.379 1.129.981 0 1.761-.377 2.339-1.129.591-.753.887-1.755.887-3.005s-.296-2.251-.887-3.004c-.578-.753-1.358-1.129-2.339-1.129-.995 0-1.788.376-2.38 1.129zm7.418-.827v-1.451h8.912v1.451h-3.568V505h-1.775v-9.114h-3.569zm10.342 7.884c-.901-.995-1.351-2.346-1.351-4.053 0-1.707.45-3.051 1.351-4.032.914-.995 2.13-1.492 3.649-1.492 1.519 0 2.729.497 3.63 1.492.9.981 1.35 2.325 1.35 4.032 0 1.707-.45 3.058-1.35 4.053-.901.981-2.111 1.472-3.63 1.472-1.519 0-2.735-.491-3.649-1.472zm1.27-7.057c-.578.753-.867 1.754-.867 3.004s.289 2.252.867 3.005c.591.752 1.385 1.129 2.379 1.129.981 0 1.761-.377 2.339-1.129.592-.753.887-1.755.887-3.005s-.295-2.251-.887-3.004c-.578-.753-1.358-1.129-2.339-1.129-.994 0-1.788.376-2.379 1.129zm14.563 2.843c2.07.188 3.105 1.048 3.105 2.581 0 .833-.303 1.519-.908 2.056-.605.538-1.572.807-2.903.807h-4.98v-10.565h4.738c1.223 0 2.151.242 2.782.725.632.484.948 1.13.948 1.936 0 1.371-.927 2.191-2.782 2.46zm-3.912-3.791v3.267h2.823c.712 0 1.236-.148 1.572-.444.35-.296.525-.692.525-1.189 0-1.089-.733-1.634-2.198-1.634h-2.722zm3.004 7.904c1.492 0 2.238-.584 2.238-1.754 0-1.143-.779-1.714-2.339-1.714h-2.903v3.468h3.004zm12.177-9.234h2.641V505h-1.693v-9.295l-4.92 9.295h-2.662v-10.565h1.714v9.295l4.92-9.295zM148.588 505v-10.565h1.734v9.113h4.617v-9.113h1.734v9.113h4.617v-9.113h1.734V505h-14.436zm21.121-6.513c2.675 0 4.012 1.082 4.012 3.247 0 2.177-1.337 3.266-4.012 3.266h-4.577v-10.565h1.774v4.052h2.803zm-.142 5.162c1.6 0 2.4-.645 2.4-1.936 0-1.263-.8-1.895-2.4-1.895h-2.661v3.831h2.661zm9.317 1.351v-10.565h6.976v1.451h-5.202V505h-1.774zm8.254 4.033v-14.598h1.633v2.258c.323-.793.807-1.405 1.452-1.835.659-.444 1.411-.665 2.258-.665 1.318 0 2.379.49 3.186 1.472.807.981 1.21 2.332 1.21 4.052 0 1.721-.403 3.072-1.21 4.053-.807.981-1.868 1.472-3.186 1.472-.793 0-1.499-.195-2.117-.585-.618-.39-1.102-.947-1.452-1.673v6.049h-1.774zm2.52-12.32c-.564.753-.846 1.754-.846 3.004s.282 2.252.846 3.005c.578.752 1.351 1.129 2.319 1.129s1.734-.377 2.299-1.129c.564-.753.847-1.755.847-3.005s-.283-2.251-.847-3.004c-.565-.753-1.331-1.129-2.299-1.129s-1.741.376-2.319 1.129zm8.064 5.525c0-1.896 1.385-2.978 4.154-3.247l3.145-.302v-1.008c0-.659-.215-1.19-.645-1.593-.417-.417-1.035-.618-1.855-.605-.753 0-1.371.175-1.855.524-.484.336-.746.847-.786 1.533h-1.633c.04-1.143.45-1.983 1.23-2.521.779-.551 1.794-.826 3.044-.826 1.385 0 2.44.329 3.166.988.726.658 1.089 1.606 1.089 2.843V505h-1.614v-2.178a3.918 3.918 0 01-1.532 1.795c-.685.417-1.519.625-2.5.625-1.129 0-1.983-.276-2.561-.827-.564-.564-.847-1.29-.847-2.177zm1.755-.061c0 .524.181.955.544 1.291.363.336.907.504 1.633.504 1.035 0 1.855-.323 2.46-.968.605-.659.907-1.506.907-2.541v-.645l-2.943.303c-1.734.161-2.601.846-2.601 2.056zm16.205-7.984c1.693 0 3.024.49 3.992 1.472.968.967 1.452 2.318 1.452 4.052 0 1.734-.484 3.092-1.452 4.073-.968.968-2.299 1.452-3.992 1.452h-.141v3.791h-1.714v-3.791h-.121c-1.707 0-3.052-.484-4.033-1.452-.981-.981-1.472-2.339-1.472-4.073 0-1.734.491-3.085 1.472-4.052.981-.982 2.326-1.472 4.033-1.472h.121v-4.033h1.714v4.033h.141zm-1.936 9.658h.081v-8.267h-.081c-1.169 0-2.097.363-2.782 1.089-.686.726-1.029 1.74-1.029 3.044s.343 2.319 1.029 3.045c.685.726 1.613 1.089 2.782 1.089zm1.875 0c1.17 0 2.09-.363 2.763-1.089.685-.726 1.028-1.741 1.028-3.045 0-1.304-.343-2.318-1.028-3.044-.673-.726-1.593-1.089-2.763-1.089h-.08v8.267h.08zm13.684-9.416h2.642V505h-1.694v-9.295l-4.92 9.295h-2.661v-10.565h1.714v9.295l4.919-9.295zM243.433 505h-2.198l-3.952-4.658h-1.452V505h-1.774v-10.565h1.774v4.516h1.492l3.731-4.516h2.137l-4.597 5.081 4.839 5.484zM61.025 515.435h2.641V526h-1.694v-9.295L57.052 526h-2.66v-10.565h1.713v9.295l4.92-9.295zm8.91 14.598v-14.598h1.633v2.258c.323-.793.807-1.405 1.452-1.835.659-.444 1.412-.665 2.258-.665 1.318 0 2.38.49 3.186 1.472.807.981 1.21 2.332 1.21 4.052 0 1.721-.403 3.072-1.21 4.053-.806.981-1.868 1.472-3.186 1.472-.793 0-1.498-.195-2.117-.585-.618-.39-1.102-.947-1.451-1.673v6.049h-1.775zm2.52-12.32c-.564.753-.846 1.754-.846 3.004s.282 2.252.847 3.005c.578.752 1.35 1.129 2.318 1.129s1.734-.377 2.299-1.129c.564-.753.847-1.755.847-3.005s-.283-2.251-.847-3.004c-.565-.753-1.33-1.129-2.299-1.129-.968 0-1.74.376-2.319 1.129zm8.064 5.525c0-1.896 1.385-2.978 4.154-3.247l3.145-.302v-1.008c0-.659-.215-1.19-.645-1.593-.416-.417-1.035-.618-1.855-.605-.752 0-1.37.175-1.855.524-.484.336-.746.847-.786 1.533h-1.633c.04-1.143.45-1.983 1.23-2.521.78-.551 1.794-.826 3.044-.826 1.385 0 2.44.329 3.166.988.726.658 1.089 1.606 1.089 2.843V526H87.96v-2.178a3.923 3.923 0 01-1.533 1.795c-.685.417-1.519.625-2.5.625-1.13 0-1.983-.276-2.56-.827-.565-.564-.848-1.29-.848-2.177zm1.755-.061c0 .524.181.955.544 1.291.363.336.907.504 1.633.504 1.035 0 1.855-.323 2.46-.968.605-.659.907-1.506.907-2.541v-.645l-2.943.303c-1.734.161-2.601.846-2.601 2.056zm14.128-7.42c1.398 0 2.527.471 3.387 1.412.861.941 1.291 2.218 1.291 3.831 0 1.626-.45 2.91-1.351 3.851-.887.927-2.097 1.391-3.63 1.391-3.333 0-5-2.238-5-6.714 0-2.353.33-4.147.988-5.384.659-1.236 1.734-2.009 3.226-2.319.282-.067.572-.121.867-.161.31-.054.632-.101.968-.141.35-.04.612-.074.786-.101.888-.134 1.587-.302 2.097-.504v1.391c-.363.229-.988.41-1.875.545l-.927.121c-.417.053-.766.101-1.049.141-.55.067-1.021.195-1.411.383-.377.175-.746.464-1.11.867-.362.39-.651.961-.866 1.714-.215.753-.356 1.687-.424 2.802.283-.981.767-1.747 1.452-2.298.7-.551 1.56-.827 2.581-.827zm-.302 9.094c.994 0 1.78-.343 2.359-1.029.578-.699.867-1.64.867-2.822 0-1.183-.29-2.118-.867-2.803-.578-.699-1.365-1.049-2.36-1.049-1.008 0-1.8.35-2.379 1.049-.578.685-.867 1.62-.867 2.803 0 1.182.29 2.123.867 2.822.578.686 1.371 1.029 2.38 1.029zm7.24-.081c-.9-.995-1.351-2.346-1.351-4.053 0-1.707.451-3.051 1.351-4.032.914-.995 2.131-1.492 3.65-1.492 1.519 0 2.728.497 3.629 1.492.901.981 1.351 2.325 1.351 4.032 0 1.707-.45 3.058-1.351 4.053-.901.981-2.11 1.472-3.629 1.472-1.519 0-2.736-.491-3.65-1.472zm1.27-7.057c-.578.753-.867 1.754-.867 3.004s.289 2.252.867 3.005c.592.752 1.385 1.129 2.38 1.129.981 0 1.761-.377 2.339-1.129.591-.753.887-1.755.887-3.005s-.296-2.251-.887-3.004c-.578-.753-1.358-1.129-2.339-1.129-.995 0-1.788.376-2.38 1.129zm15.332-2.278h1.754V526h-1.754v-4.396c-1.331.283-2.44.424-3.327.424-2.419 0-3.629-1.183-3.629-3.549v-3.044h1.774v2.802c0 .834.195 1.432.585 1.795.403.363 1.028.544 1.875.544.726 0 1.633-.148 2.722-.443v-4.698zm3.262 5.282c0-1.801.45-3.172 1.351-4.113.914-.941 2.124-1.411 3.629-1.411 1.546 0 2.722.477 3.529 1.431.82.955 1.23 2.406 1.23 4.355v.242h-7.965c.068 1.21.397 2.138.988 2.783.605.632 1.392.948 2.359.948 1.371 0 2.306-.605 2.803-1.815l1.674.101c-.283.941-.807 1.68-1.573 2.218-.766.524-1.734.786-2.904.786-1.572 0-2.822-.464-3.75-1.391-.914-.941-1.371-2.319-1.371-4.134zm1.794-.665h6.191c-.014-1.102-.296-1.969-.847-2.601-.538-.645-1.257-.968-2.158-.968-.887 0-1.62.309-2.198.928-.578.604-.907 1.485-.988 2.641zm8.803.665c0-1.801.451-3.172 1.351-4.113.914-.941 2.124-1.411 3.63-1.411 1.546 0 2.722.477 3.528 1.431.82.955 1.23 2.406 1.23 4.355v.242h-7.964c.067 1.21.396 2.138.988 2.783.605.632 1.391.948 2.359.948 1.371 0 2.305-.605 2.803-1.815l1.673.101c-.282.941-.806 1.68-1.573 2.218-.766.524-1.734.786-2.903.786-1.573 0-2.823-.464-3.75-1.391-.914-.941-1.372-2.319-1.372-4.134zm1.795-.665h6.19c-.013-1.102-.296-1.969-.847-2.601-.537-.645-1.257-.968-2.157-.968-.887 0-1.62.309-2.198.928-.578.604-.907 1.485-.988 2.641zM149.163 526v-10.565h8.871V526h-1.754v-9.114h-5.343V526h-1.774zm10.991 4.033v-14.598h1.633v2.258c.323-.793.807-1.405 1.452-1.835.659-.444 1.411-.665 2.258-.665 1.318 0 2.379.49 3.186 1.472.806.981 1.21 2.332 1.21 4.052 0 1.721-.404 3.072-1.21 4.053-.807.981-1.868 1.472-3.186 1.472-.793 0-1.499-.195-2.117-.585-.618-.39-1.102-.947-1.452-1.673v6.049h-1.774zm2.52-12.32c-.564.753-.846 1.754-.846 3.004s.282 2.252.846 3.005c.578.752 1.351 1.129 2.319 1.129s1.734-.377 2.299-1.129c.564-.753.847-1.755.847-3.005s-.283-2.251-.847-3.004c-.565-.753-1.331-1.129-2.299-1.129s-1.741.376-2.319 1.129zm9.473 7.057c-.9-.995-1.351-2.346-1.351-4.053 0-1.707.451-3.051 1.351-4.032.914-.995 2.131-1.492 3.65-1.492 1.519 0 2.729.497 3.629 1.492.901.981 1.351 2.325 1.351 4.032 0 1.707-.45 3.058-1.351 4.053-.9.981-2.11 1.472-3.629 1.472-1.519 0-2.736-.491-3.65-1.472zm1.271-7.057c-.578.753-.867 1.754-.867 3.004s.289 2.252.867 3.005c.591.752 1.384 1.129 2.379 1.129.981 0 1.761-.377 2.339-1.129.591-.753.887-1.755.887-3.005s-.296-2.251-.887-3.004c-.578-.753-1.358-1.129-2.339-1.129-.995 0-1.788.376-2.379 1.129zm8.271 3.004c0-1.761.437-3.118 1.311-4.073.874-.967 2.057-1.451 3.549-1.451 1.209 0 2.224.322 3.044.967.834.646 1.331 1.566 1.492 2.763l-1.693.161c-.135-.82-.464-1.438-.988-1.855-.511-.43-1.13-.645-1.855-.645-.941 0-1.694.37-2.259 1.109-.564.726-.846 1.734-.846 3.024 0 1.291.282 2.306.846 3.045.578.726 1.345 1.089 2.299 1.089.753 0 1.384-.222 1.895-.666.524-.457.861-1.102 1.008-1.935l1.694.141c-.161 1.223-.659 2.171-1.492 2.843-.833.672-1.868 1.008-3.105 1.008-1.519 0-2.715-.477-3.589-1.432-.874-.954-1.311-2.318-1.311-4.093zm9.763-3.831v-1.451h8.912v1.451h-3.569V526h-1.774v-9.114h-3.569zm10.108 13.147v-14.598h1.633v2.258c.322-.793.806-1.405 1.452-1.835.658-.444 1.411-.665 2.258-.665 1.317 0 2.379.49 3.186 1.472.806.981 1.209 2.332 1.209 4.052 0 1.721-.403 3.072-1.209 4.053-.807.981-1.869 1.472-3.186 1.472-.793 0-1.499-.195-2.117-.585-.619-.39-1.103-.947-1.452-1.673v6.049h-1.774zm2.52-12.32c-.565.753-.847 1.754-.847 3.004s.282 2.252.847 3.005c.578.752 1.351 1.129 2.319 1.129s1.734-.377 2.298-1.129c.565-.753.847-1.755.847-3.005s-.282-2.251-.847-3.004c-.564-.753-1.33-1.129-2.298-1.129s-1.741.376-2.319 1.129zm8.064 5.525c0-1.896 1.384-2.978 4.153-3.247l3.146-.302v-1.008c0-.659-.215-1.19-.645-1.593-.417-.417-1.035-.618-1.855-.605-.753 0-1.371.175-1.855.524-.484.336-.746.847-.787 1.533h-1.633c.04-1.143.45-1.983 1.23-2.521.78-.551 1.795-.826 3.045-.826 1.384 0 2.439.329 3.165.988.726.658 1.089 1.606 1.089 2.843V526h-1.613v-2.178a3.924 3.924 0 01-1.532 1.795c-.686.417-1.519.625-2.501.625-1.129 0-1.982-.276-2.56-.827-.565-.564-.847-1.29-.847-2.177zm1.754-.061c0 .524.182.955.544 1.291.363.336.908.504 1.634.504 1.035 0 1.855-.323 2.46-.968.604-.659.907-1.506.907-2.541v-.645l-2.944.303c-1.734.161-2.601.846-2.601 2.056zm9.31 2.823v-10.565h1.774v4.456h5.464v-4.456h1.754V526h-1.754v-4.658h-5.464V526h-1.774zm10.504-5.283c0-1.761.437-3.118 1.311-4.073.873-.967 2.056-1.451 3.548-1.451 1.21 0 2.225.322 3.045.967.833.646 1.331 1.566 1.492 2.763l-1.694.161c-.134-.82-.463-1.438-.988-1.855-.51-.43-1.129-.645-1.855-.645-.941 0-1.693.37-2.258 1.109-.564.726-.847 1.734-.847 3.024 0 1.291.283 2.306.847 3.045.578.726 1.344 1.089 2.299 1.089.752 0 1.384-.222 1.895-.666.524-.457.86-1.102 1.008-1.935l1.694.141c-.161 1.223-.659 2.171-1.492 2.843-.834.672-1.869 1.008-3.105 1.008-1.519 0-2.716-.477-3.589-1.432-.874-.954-1.311-2.318-1.311-4.093zm9.763-3.831v-1.451h8.912v1.451h-3.569V526h-1.774v-9.114h-3.569zm15.793 3.67c2.07.188 3.105 1.048 3.105 2.581 0 .833-.302 1.519-.907 2.056-.605.538-1.573.807-2.903.807h-4.981v-10.565h4.739c1.223 0 2.15.242 2.782.725.632.484.948 1.13.948 1.936 0 1.371-.928 2.191-2.783 2.46zm-3.911-3.791v3.267h2.823c.712 0 1.236-.148 1.572-.444.35-.296.525-.692.525-1.189 0-1.089-.733-1.634-2.198-1.634h-2.722zm3.004 7.904c1.492 0 2.238-.584 2.238-1.754 0-1.143-.78-1.714-2.339-1.714h-2.903v3.468h3.004zm6.289.101c-.9-.995-1.351-2.346-1.351-4.053 0-1.707.451-3.051 1.351-4.032.914-.995 2.131-1.492 3.65-1.492 1.519 0 2.729.497 3.629 1.492.901.981 1.351 2.325 1.351 4.032 0 1.707-.45 3.058-1.351 4.053-.9.981-2.11 1.472-3.629 1.472-1.519 0-2.736-.491-3.65-1.472zm1.271-7.057c-.578.753-.867 1.754-.867 3.004s.289 2.252.867 3.005c.591.752 1.384 1.129 2.379 1.129.981 0 1.761-.377 2.339-1.129.591-.753.887-1.755.887-3.005s-.296-2.251-.887-3.004c-.578-.753-1.358-1.129-2.339-1.129-.995 0-1.788.376-2.379 1.129zM62.598 545.548h1.23v4.295h-1.674V547h-7.239v2.843h-1.673v-4.295h.786c.162-.349.296-.766.404-1.25.12-.497.221-1.263.302-2.298a69.72 69.72 0 00.181-2.279c.04-.497.108-1.593.202-3.286h7.48v9.113zm-1.775 0v-7.662H56.65c-.242 3.455-.437 5.599-.585 6.432a8.45 8.45 0 01-.323 1.23h5.081zm5.195-9.113h7.42V547h-1.774v-9.114H67.59l-.162 2.4c-.053.994-.1 1.714-.14 2.157-.028.444-.081.995-.162 1.654-.08.658-.175 1.122-.282 1.391a6.808 6.808 0 01-.444.887c-.188.309-.417.517-.685.625a2.944 2.944 0 01-.968.141c-.202 0-.49-.027-.867-.081v-1.411c.134.014.296.02.484.02.295 0 .53-.127.705-.383.175-.255.316-.759.424-1.512.12-.766.201-1.438.242-2.016.04-.578.094-1.58.161-3.005.054-.994.094-1.767.121-2.318zm12.997 0h4.758V547H81.98v-4.355h-2.3L76.878 547H74.76l3.165-4.436c-.9-.148-1.593-.477-2.077-.988-.484-.524-.725-1.203-.725-2.036 0-.995.336-1.761 1.008-2.299.685-.538 1.646-.806 2.883-.806zm2.964 5.04v-3.689h-2.742c-.74 0-1.318.168-1.734.504-.403.322-.605.773-.605 1.351 0 .564.202 1.014.605 1.35.416.323.994.484 1.734.484h2.742zm11.94-5.282c1.492 0 2.668.484 3.528 1.451.874.955 1.31 2.312 1.31 4.073 0 1.775-.436 3.139-1.31 4.093-.874.955-2.07 1.432-3.589 1.432-1.196 0-2.204-.316-3.024-.948-.82-.631-1.331-1.532-1.533-2.702l1.714-.121c.175.78.51 1.378 1.008 1.795.511.417 1.123.625 1.835.625.9 0 1.626-.323 2.178-.968.564-.645.887-1.546.968-2.702H92.89v-1.209h4.093c-.094-1.103-.416-1.956-.968-2.561-.55-.605-1.25-.907-2.097-.907-.685 0-1.283.201-1.794.604-.51.39-.847.955-1.008 1.694l-1.714-.121c.202-1.129.712-1.996 1.532-2.601.82-.618 1.815-.927 2.984-.927zm13.247 0c1.694 0 3.025.49 3.993 1.472.967.967 1.451 2.318 1.451 4.052 0 1.734-.484 3.092-1.451 4.073-.968.968-2.299 1.452-3.993 1.452h-.141v3.791h-1.714v-3.791h-.121c-1.707 0-3.051-.484-4.032-1.452-.981-.981-1.472-2.339-1.472-4.073 0-1.734.491-3.085 1.472-4.052.981-.982 2.325-1.472 4.032-1.472h.121v-4.033h1.714v4.033h.141zm-1.935 9.658h.08v-8.267h-.08c-1.17 0-2.097.363-2.783 1.089-.685.726-1.028 1.74-1.028 3.044s.343 2.319 1.028 3.045c.686.726 1.613 1.089 2.783 1.089zm1.875 0c1.169 0 2.09-.363 2.762-1.089.686-.726 1.029-1.741 1.029-3.045 0-1.304-.343-2.318-1.029-3.044-.672-.726-1.593-1.089-2.762-1.089h-.081v8.267h.081zm13.946-9.658c1.694 0 3.025.49 3.992 1.472.968.967 1.452 2.318 1.452 4.052 0 1.734-.484 3.092-1.452 4.073-.967.968-2.298 1.452-3.992 1.452h-.141v3.791h-1.714v-3.791h-.121c-1.707 0-3.051-.484-4.032-1.452-.982-.981-1.472-2.339-1.472-4.073 0-1.734.49-3.085 1.472-4.052.981-.982 2.325-1.472 4.032-1.472h.121v-4.033h1.714v4.033h.141zm-1.935 9.658h.08v-8.267h-.08c-1.17 0-2.097.363-2.783 1.089-.685.726-1.028 1.74-1.028 3.044s.343 2.319 1.028 3.045c.686.726 1.613 1.089 2.783 1.089zm1.875 0c1.169 0 2.09-.363 2.762-1.089.686-.726 1.028-1.741 1.028-3.045 0-1.304-.342-2.318-1.028-3.044-.672-.726-1.593-1.089-2.762-1.089h-.081v8.267h.081zm6.445-4.134c0-1.801.451-3.172 1.351-4.113.914-.941 2.124-1.411 3.63-1.411 1.545 0 2.722.477 3.528 1.431.82.955 1.23 2.406 1.23 4.355v.242h-7.964c.067 1.21.396 2.138.988 2.783.605.632 1.391.948 2.359.948 1.371 0 2.305-.605 2.802-1.815l1.674.101c-.282.941-.807 1.68-1.573 2.218-.766.524-1.734.786-2.903.786-1.573 0-2.823-.464-3.751-1.391-.914-.941-1.371-2.319-1.371-4.134zm1.795-.665h6.19c-.013-1.102-.296-1.969-.847-2.601-.538-.645-1.257-.968-2.157-.968-.888 0-1.62.309-2.198.928-.578.604-.907 1.485-.988 2.641zM148.016 547h-2.198l-3.952-4.658h-1.452V547h-1.774v-10.565h1.774v4.516h1.492l3.73-4.516h2.138l-4.598 5.081 4.84 5.484zm-.08-9.114v-1.451h8.912v1.451h-3.569V547h-1.774v-9.114h-3.569zm16.741-1.451h2.641V547h-1.694v-9.295L160.705 547h-2.662v-10.565h1.714v9.295l4.92-9.295zm10.437 5.121c2.07.188 3.105 1.048 3.105 2.581 0 .833-.302 1.519-.907 2.056-.605.538-1.573.807-2.904.807h-4.98v-10.565h4.738c1.224 0 2.151.242 2.783.725.632.484.948 1.13.948 1.936 0 1.371-.928 2.191-2.783 2.46zm-3.911-3.791v3.267h2.822c.713 0 1.237-.148 1.573-.444.35-.296.524-.692.524-1.189 0-1.089-.732-1.634-2.197-1.634h-2.722zm3.004 7.904c1.492 0 2.238-.584 2.238-1.754 0-1.143-.78-1.714-2.339-1.714h-2.903v3.468h3.004zM179.75 547v-10.565h1.774v4.456h5.465v-4.456h1.754V547h-1.754v-4.658h-5.465V547h-1.774zm11.856-1.23c-.901-.995-1.351-2.346-1.351-4.053 0-1.707.45-3.051 1.351-4.032.914-.995 2.13-1.492 3.649-1.492 1.519 0 2.729.497 3.629 1.492.901.981 1.351 2.325 1.351 4.032 0 1.707-.45 3.058-1.351 4.053-.9.981-2.11 1.472-3.629 1.472-1.519 0-2.735-.491-3.649-1.472zm1.27-7.057c-.578.753-.867 1.754-.867 3.004s.289 2.252.867 3.005c.591.752 1.384 1.129 2.379 1.129.981 0 1.761-.377 2.339-1.129.591-.753.887-1.755.887-3.005s-.296-2.251-.887-3.004c-.578-.753-1.358-1.129-2.339-1.129-.995 0-1.788.376-2.379 1.129zm8.876 8.287v-10.565h6.977v1.451h-5.202V547h-1.775zm8.371-1.23c-.901-.995-1.351-2.346-1.351-4.053 0-1.707.45-3.051 1.351-4.032.914-.995 2.13-1.492 3.649-1.492 1.519 0 2.729.497 3.63 1.492.9.981 1.35 2.325 1.35 4.032 0 1.707-.45 3.058-1.35 4.053-.901.981-2.111 1.472-3.63 1.472-1.519 0-2.735-.491-3.649-1.472zm1.27-7.057c-.578.753-.867 1.754-.867 3.004s.289 2.252.867 3.005c.591.752 1.385 1.129 2.379 1.129.981 0 1.761-.377 2.339-1.129.592-.753.887-1.755.887-3.005s-.295-2.251-.887-3.004c-.578-.753-1.358-1.129-2.339-1.129-.994 0-1.788.376-2.379 1.129zM55.137 566.77c-.9-.995-1.35-2.346-1.35-4.053 0-1.707.45-3.051 1.35-4.032.914-.995 2.13-1.492 3.65-1.492 1.519 0 2.729.497 3.63 1.492.9.981 1.35 2.325 1.35 4.032 0 1.707-.45 3.058-1.35 4.053-.901.981-2.111 1.472-3.63 1.472-1.52 0-2.736-.491-3.65-1.472zm1.27-7.057c-.577.753-.866 1.754-.866 3.004s.289 2.252.867 3.005c.591.752 1.384 1.129 2.379 1.129.981 0 1.76-.377 2.339-1.129.591-.753.887-1.755.887-3.005s-.296-2.251-.887-3.004c-.578-.753-1.358-1.129-2.34-1.129-.994 0-1.787.376-2.379 1.129zm13.696-1.956c1.398 0 2.527.471 3.388 1.412.86.941 1.29 2.218 1.29 3.831 0 1.626-.45 2.91-1.351 3.851-.887.927-2.097 1.391-3.63 1.391-3.333 0-5-2.238-5-6.714 0-2.353.33-4.147.988-5.384.659-1.236 1.734-2.009 3.226-2.319.283-.067.572-.121.867-.161.31-.054.632-.101.968-.141.35-.04.612-.074.786-.101.888-.134 1.587-.302 2.097-.504v1.391c-.362.229-.988.41-1.875.545l-.927.121c-.417.053-.766.101-1.049.141-.55.067-1.021.195-1.411.383-.376.175-.746.464-1.11.867-.362.39-.651.961-.866 1.714-.215.753-.356 1.687-.424 2.802.283-.981.767-1.747 1.452-2.298.7-.551 1.56-.827 2.581-.827zm-.302 9.094c.994 0 1.78-.343 2.359-1.029.578-.699.867-1.64.867-2.822 0-1.183-.29-2.118-.867-2.803-.578-.699-1.365-1.049-2.36-1.049-1.007 0-1.8.35-2.379 1.049-.578.685-.867 1.62-.867 2.803 0 1.182.29 2.123.867 2.822.578.686 1.371 1.029 2.38 1.029zm13.42-9.416h1.895l-3.932 11.775c-.363 1.169-.793 1.969-1.29 2.399-.498.444-1.25.666-2.259.666-.336 0-.726-.021-1.17-.061v-1.371c.485.027.841.04 1.07.04.55 0 .967-.134 1.25-.403.282-.269.544-.78.786-1.532l.302-.948h-.988l-3.992-10.565h1.936l3.468 9.859 2.924-9.859zm9.595 0h1.754V568h-1.754v-4.396c-1.33.283-2.44.424-3.327.424-2.42 0-3.63-1.183-3.63-3.549v-3.044h1.775v2.802c0 .834.195 1.432.585 1.795.403.363 1.028.544 1.875.544.726 0 1.633-.148 2.722-.443v-4.698zm3.262 5.282c0-1.801.45-3.172 1.35-4.113.915-.941 2.125-1.411 3.63-1.411 1.546 0 2.722.477 3.529 1.431.82.955 1.23 2.406 1.23 4.355v.242h-7.965c.068 1.21.397 2.138.988 2.783.605.632 1.392.948 2.359.948 1.371 0 2.306-.605 2.803-1.815l1.674.101c-.283.941-.807 1.68-1.573 2.218-.766.524-1.734.786-2.904.786-1.572 0-2.822-.464-3.75-1.391-.914-.941-1.371-2.319-1.371-4.134zm1.794-.665h6.191c-.014-1.102-.296-1.969-.847-2.601-.538-.645-1.257-.968-2.158-.968-.887 0-1.62.309-2.198.928-.578.604-.907 1.485-.987 2.641zM107.28 568v-10.565h1.775v4.456h5.464v-4.456h1.754V568h-1.754v-4.658h-5.464V568h-1.775zm17.744-10.565h2.641V568h-1.694v-9.295l-4.92 9.295h-2.661v-10.565h1.714v9.295l4.92-9.295zm8.219 0h4.759V568h-1.795v-4.355h-2.299L131.106 568h-2.117l3.165-4.436c-.9-.148-1.593-.477-2.076-.988-.484-.524-.726-1.203-.726-2.036 0-.995.336-1.761 1.008-2.299.685-.538 1.646-.806 2.883-.806zm2.964 5.04v-3.689h-2.742c-.739 0-1.317.168-1.734.504-.403.322-.605.773-.605 1.351 0 .564.202 1.014.605 1.35.417.323.995.484 1.734.484h2.742zm3.809 5.525v-2.319h2.036V568h-2.036z" fill="#000"/><rect x="30" y="284" width="119.22" height="43.102" rx="21.551" fill="#F4E107"/><path d="M54.26 312v-10.5h4.17c1.02 0 1.865.26 2.535.78.67.52 1.005 1.32 1.005 2.4 0 1.07-.33 1.86-.99 2.37-.65.5-1.49.75-2.52.75h-2.82v4.2h-1.38zm1.38-5.265h2.64c.71 0 1.27-.17 1.68-.51.42-.34.63-.855.63-1.545s-.21-1.205-.63-1.545c-.41-.34-.97-.51-1.68-.51h-2.64v4.11zm6.722 1.335c0-1.34.335-2.36 1.005-3.06.68-.7 1.58-1.05 2.7-1.05 1.15 0 2.026.355 2.626 1.065.61.71.915 1.79.915 3.24v.18h-5.926c.05.9.295 1.59.736 2.07.45.47 1.034.705 1.754.705 1.02 0 1.716-.45 2.085-1.35l1.245.075c-.21.7-.6 1.25-1.17 1.65-.57.39-1.29.585-2.16.585-1.17 0-2.1-.345-2.79-1.035-.68-.7-1.02-1.725-1.02-3.075zm1.335-.495h4.605c-.01-.82-.22-1.465-.63-1.935-.4-.48-.934-.72-1.605-.72-.66 0-1.204.23-1.634.69-.43.45-.676 1.105-.736 1.965zm10.69.36c1.6.17 2.4.835 2.4 1.995 0 .67-.26 1.215-.78 1.635-.52.41-1.364.615-2.534.615-2.17 0-3.325-.855-3.465-2.565l1.26-.06c.1 1.08.835 1.62 2.205 1.62.66 0 1.155-.125 1.485-.375.34-.26.51-.61.51-1.05 0-.88-.715-1.32-2.145-1.32h-.99v-.87h.93c.66 0 1.15-.115 1.47-.345.33-.24.495-.55.495-.93 0-.4-.16-.72-.48-.96-.32-.24-.745-.36-1.275-.36-.54 0-.99.13-1.35.39-.35.26-.55.645-.6 1.155l-1.275-.075c.06-.83.38-1.45.96-1.86.58-.41 1.335-.615 2.265-.615 1 0 1.76.19 2.28.57.53.37.795.87.795 1.5 0 1.07-.72 1.705-2.16 1.905zm8.745-3.795h1.41l-2.925 8.76c-.27.87-.59 1.465-.96 1.785-.37.33-.93.495-1.68.495-.25 0-.54-.015-.87-.045v-1.02c.36.02.625.03.795.03.41 0 .72-.1.93-.3.21-.2.405-.58.585-1.14l.225-.705h-.735l-2.97-7.86h1.44l2.58 7.335 2.175-7.335zm2.516 0h5.52V312h-1.32v-6.78h-3.03c-.03.43-.07 1.025-.12 1.785a49.5 49.5 0 01-.105 1.605c-.02.33-.06.74-.12 1.23s-.13.835-.21 1.035c-.08.2-.19.42-.33.66-.14.23-.31.385-.51.465-.2.07-.44.105-.72.105-.15 0-.365-.02-.645-.06v-1.05c.1.01.22.015.36.015.22 0 .395-.095.525-.285.13-.19.235-.565.315-1.125.09-.57.15-1.07.18-1.5.03-.43.07-1.175.12-2.235.04-.74.07-1.315.09-1.725zm10.494 3.015c1.99 0 2.985.805 2.985 2.415 0 1.62-.995 2.43-2.985 2.43h-3.405v-7.86h1.32v3.015h2.085zm-.105 3.84c1.19 0 1.785-.48 1.785-1.44 0-.94-.595-1.41-1.785-1.41h-1.98v2.85h1.98zm2.356-5.775v-1.08h6.63v1.08h-2.655V312h-1.32v-6.78h-2.655zm6.762 4.725c0-1.41 1.03-2.215 3.09-2.415l2.34-.225v-.75c0-.49-.16-.885-.48-1.185-.31-.31-.77-.46-1.38-.45-.56 0-1.02.13-1.38.39-.36.25-.555.63-.585 1.14h-1.215c.03-.85.335-1.475.915-1.875.58-.41 1.335-.615 2.265-.615 1.03 0 1.815.245 2.355.735s.81 1.195.81 2.115V312h-1.2v-1.62a2.92 2.92 0 01-1.14 1.335c-.51.31-1.13.465-1.86.465-.84 0-1.475-.205-1.905-.615-.42-.42-.63-.96-.63-1.62zm1.305-.045c0 .39.135.71.405.96s.675.375 1.215.375c.77 0 1.38-.24 1.83-.72.45-.49.675-1.12.675-1.89v-.48l-2.19.225c-1.29.12-1.935.63-1.935 1.53zm6.001-4.68v-1.08h6.63v1.08h-2.655V312h-1.32v-6.78h-2.655zm7.444.825v-1.725h1.515v1.725h-1.515zm0 5.955v-1.725h1.515V312h-1.515z" fill="#000"/><rect opacity=".1" x="30" y="97" width="146.511" height="41.482" rx="20.741" fill="#fff"/><path d="M58.86 111.856h1.515l-3.3 8.055c-.39.97-.79 1.635-1.2 1.995-.41.36-.925.54-1.545.54-.34 0-.755-.03-1.245-.09v-1.065c.36.04.675.06.945.06.36 0 .655-.09.885-.27.24-.18.465-.535.675-1.065l.18-.45h-.6l-3.825-7.71h1.56l3.3 7.005 2.655-7.005zm1.498 13.5v-10.86h1.215v1.68c.24-.59.6-1.045 1.08-1.365.49-.33 1.05-.495 1.68-.495.98 0 1.77.365 2.37 1.095.6.73.9 1.735.9 3.015s-.3 2.285-.9 3.015c-.6.73-1.39 1.095-2.37 1.095a2.89 2.89 0 01-1.575-.435c-.46-.29-.82-.705-1.08-1.245v4.5h-1.32zm1.875-9.165c-.42.56-.63 1.305-.63 2.235 0 .93.21 1.675.63 2.235.43.56 1.005.84 1.725.84.72 0 1.29-.28 1.71-.84.42-.56.63-1.305.63-2.235 0-.93-.21-1.675-.63-2.235-.42-.56-.99-.84-1.71-.84s-1.295.28-1.725.84zm7.048 5.25c-.67-.74-1.005-1.745-1.005-3.015s.335-2.27 1.005-3c.68-.74 1.585-1.11 2.715-1.11s2.03.37 2.7 1.11c.67.73 1.005 1.73 1.005 3s-.335 2.275-1.005 3.015c-.67.73-1.57 1.095-2.7 1.095-1.13 0-2.035-.365-2.715-1.095zm.945-5.25c-.43.56-.645 1.305-.645 2.235 0 .93.215 1.675.645 2.235.44.56 1.03.84 1.77.84.73 0 1.31-.28 1.74-.84.44-.56.66-1.305.66-2.235 0-.93-.22-1.675-.66-2.235-.43-.56-1.01-.84-1.74-.84-.74 0-1.33.28-1.77.84zm13.578 6.165H82.17l-2.94-3.465h-1.08v3.465h-1.32v-7.86h1.32v3.36h1.11l2.775-3.36h1.59l-3.42 3.78 3.6 4.08zm5.64-7.86h1.964v7.86h-1.26v-6.915l-3.66 6.915h-1.98v-7.86h1.275v6.915l3.66-6.915zm13.843 0h2.19v7.86h-1.275v-6.945l-2.61 6.945h-1.65l-2.595-6.945v6.945h-1.275v-7.86h2.205l2.505 7.14 2.505-7.14zm4.315 6.945c-.67-.74-1.005-1.745-1.005-3.015s.335-2.27 1.005-3c.68-.74 1.585-1.11 2.715-1.11s2.03.37 2.7 1.11c.67.73 1.005 1.73 1.005 3s-.335 2.275-1.005 3.015c-.67.73-1.57 1.095-2.7 1.095-1.13 0-2.035-.365-2.715-1.095zm.945-5.25c-.43.56-.645 1.305-.645 2.235 0 .93.215 1.675.645 2.235.44.56 1.03.84 1.77.84.73 0 1.31-.28 1.74-.84.44-.56.66-1.305.66-2.235 0-.93-.22-1.675-.66-2.235-.43-.56-1.01-.84-1.74-.84-.74 0-1.33.28-1.77.84zm12.606 5.085h.915v3.195h-1.245v-2.115h-5.385v2.115h-1.245v-3.195h.585c.12-.26.22-.57.3-.93.09-.37.165-.94.225-1.71.07-.77.115-1.335.135-1.695.03-.37.08-1.185.15-2.445h5.565v6.78zm-1.32 0v-5.7h-3.105c-.18 2.57-.325 4.165-.435 4.785-.07.36-.15.665-.24.915h3.78zm8.368-6.78h1.41l-2.925 8.76c-.27.87-.59 1.465-.96 1.785-.37.33-.93.495-1.68.495-.25 0-.54-.015-.87-.045v-1.02c.36.02.625.03.795.03.41 0 .72-.1.93-.3.21-.2.405-.58.585-1.14l.225-.705h-.735l-2.97-7.86h1.44l2.58 7.335 2.175-7.335zm2.516 0h5.52v7.86h-1.32v-6.78h-3.03c-.03.43-.07 1.025-.12 1.785a49.5 49.5 0 01-.105 1.605c-.02.33-.06.74-.12 1.23s-.13.835-.21 1.035c-.08.2-.19.42-.33.66-.14.23-.31.385-.51.465-.2.07-.44.105-.72.105-.15 0-.365-.02-.645-.06v-1.05c.1.01.22.015.36.015.22 0 .395-.095.525-.285.13-.19.235-.565.315-1.125.09-.57.15-1.07.18-1.5.03-.43.07-1.175.12-2.235.04-.74.07-1.315.09-1.725zm9.669 0h3.54v7.86h-1.335v-3.24h-1.71l-2.085 3.24h-1.575l2.355-3.3c-.67-.11-1.185-.355-1.545-.735-.36-.39-.54-.895-.54-1.515 0-.74.25-1.31.75-1.71.51-.4 1.225-.6 2.145-.6zm2.205 3.75v-2.745h-2.04c-.55 0-.98.125-1.29.375-.3.24-.45.575-.45 1.005 0 .42.15.755.45 1.005.31.24.74.36 1.29.36h2.04zm2.833-1.845v-1.725h1.515v1.725h-1.515zm0 5.955v-1.725h1.515v1.725h-1.515z" fill="#fff"/><rect x="30.5" y="148.982" width="269" height="43" rx="21.5" stroke="#fff"/><rect x="47.652" y="167.482" width="5.296" height="5.296" rx="2.648" fill="#fff"/><path d="M75.678 174.482h-1.65l-3.707-4.771h-1.68v4.771h-1.38v-10.503h1.38v4.651h1.665l3.481-4.651h1.59l-3.99 5.101 4.29 5.402zm.127-2.056c0-1.41 1.03-2.215 3.091-2.415l2.34-.225v-.751c0-.49-.16-.885-.48-1.185-.31-.31-.77-.46-1.38-.45-.56 0-1.02.13-1.38.39-.36.25-.555.63-.585 1.14h-1.216c.03-.85.336-1.475.916-1.875.58-.41 1.335-.615 2.265-.615 1.03 0 1.816.245 2.356.735.54.49.81 1.195.81 2.116v5.191h-1.2v-1.621a2.917 2.917 0 01-1.14 1.336c-.51.31-1.13.465-1.861.465-.84 0-1.475-.205-1.905-.615-.42-.42-.63-.96-.63-1.621zm1.306-.045c0 .39.135.711.405.961s.675.375 1.215.375c.77 0 1.38-.24 1.83-.72.45-.491.676-1.121.676-1.891v-.48l-2.19.225c-1.291.12-1.936.63-1.936 1.53zm13.904 2.101H89.38l-2.941-3.466h-1.08v3.466h-1.32v-7.862h1.32v3.361h1.11l2.776-3.361h1.59l-3.42 3.781 3.6 4.081zm7.019-7.622c1.04 0 1.88.35 2.52 1.05.64.7.961 1.651.961 2.851 0 1.21-.336 2.166-1.006 2.866-.66.69-1.56 1.035-2.7 1.035-2.481 0-3.721-1.665-3.721-4.996 0-1.751.245-3.086.735-4.006.49-.921 1.29-1.496 2.4-1.726.21-.05.425-.09.645-.12.23-.04.47-.075.72-.105.26-.03.456-.055.586-.075.66-.1 1.18-.225 1.56-.375v1.035c-.27.17-.735.305-1.395.405l-.69.09c-.31.04-.57.075-.78.105-.41.05-.76.145-1.05.285-.28.13-.556.345-.826.646-.27.29-.485.715-.645 1.275-.16.56-.265 1.255-.315 2.085.21-.73.57-1.3 1.08-1.71.52-.41 1.16-.615 1.92-.615zm-.226 6.767c.74 0 1.326-.255 1.756-.766.43-.52.645-1.22.645-2.1 0-.88-.215-1.576-.645-2.086-.43-.52-1.015-.78-1.755-.78-.75 0-1.34.26-1.771.78-.43.51-.645 1.206-.645 2.086 0 .88.215 1.58.645 2.1.43.511 1.02.766 1.77.766zm9.987-7.007h1.41l-2.926 8.762c-.27.87-.59 1.466-.96 1.786-.37.33-.93.495-1.68.495-.25 0-.54-.015-.871-.045v-1.02c.361.02.626.03.796.03.41 0 .72-.101.93-.301.21-.2.405-.58.585-1.14l.225-.705h-.735l-2.971-7.862h1.44l2.581 7.337 2.176-7.337zm8.033 6.782h.915v3.196h-1.245v-2.116h-5.386v2.116h-1.246v-3.196h.585c.12-.26.221-.571.301-.931.09-.37.165-.94.225-1.71.07-.77.115-1.335.135-1.696.03-.37.08-1.185.15-2.445h5.566v6.782zm-1.32 0V167.7h-3.106c-.18 2.571-.325 4.166-.435 4.786-.07.36-.15.666-.24.916h3.781zm2.532-2.851c0-1.341.335-2.361 1.006-3.061.68-.7 1.58-1.05 2.7-1.05 1.151 0 2.026.355 2.626 1.065.61.71.915 1.791.915 3.241v.18h-5.926c.05.9.295 1.59.735 2.071.45.47 1.035.705 1.755.705 1.021 0 1.716-.45 2.086-1.351l1.245.075c-.21.701-.6 1.251-1.17 1.651-.57.39-1.29.585-2.161.585-1.17 0-2.1-.345-2.79-1.035-.681-.7-1.021-1.726-1.021-3.076zm1.336-.495h4.606c-.01-.821-.22-1.466-.63-1.936-.4-.48-.936-.72-1.606-.72-.66 0-1.205.23-1.635.69-.43.45-.675 1.105-.735 1.966zm5.959-2.356v-1.08h6.631v1.08h-2.655v6.782h-1.321V167.7h-2.655zm10.323 6.782v-7.862h6.601v7.862h-1.305V167.7h-3.976v6.782h-1.32zm8.179 3.001V166.62h1.215v1.68c.24-.59.6-1.045 1.08-1.365a2.94 2.94 0 011.681-.495c.98 0 1.77.365 2.37 1.095.601.73.901 1.736.901 3.016s-.3 2.285-.901 3.016c-.6.73-1.39 1.095-2.37 1.095-.59 0-1.116-.145-1.576-.435-.46-.29-.82-.705-1.08-1.245v4.501h-1.32zm1.875-9.168c-.42.56-.63 1.306-.63 2.236 0 .93.21 1.675.63 2.235.43.561 1.005.841 1.726.841.72 0 1.29-.28 1.71-.841.42-.56.63-1.305.63-2.235 0-.93-.21-1.676-.63-2.236-.42-.56-.99-.84-1.71-.84-.721 0-1.296.28-1.726.84zm7.049 5.252c-.67-.741-1.005-1.746-1.005-3.016s.335-2.271 1.005-3.001c.681-.74 1.586-1.11 2.716-1.11 1.13 0 2.031.37 2.701 1.11.67.73 1.005 1.731 1.005 3.001 0 1.27-.335 2.275-1.005 3.016-.67.73-1.571 1.095-2.701 1.095-1.13 0-2.035-.365-2.716-1.095zm.946-5.252c-.43.56-.645 1.306-.645 2.236 0 .93.215 1.675.645 2.235.44.561 1.03.841 1.77.841.73 0 1.311-.28 1.741-.841.44-.56.66-1.305.66-2.235 0-.93-.22-1.676-.66-2.236-.43-.56-1.011-.84-1.741-.84-.74 0-1.33.28-1.77.84zm12.907 6.167h-1.605l-2.251-3.076-2.25 3.076h-1.531l3.016-3.961-2.881-3.901h1.591l2.085 2.971 2.086-2.971h1.53l-2.835 3.856 3.045 4.006zm.777-.915c-.67-.741-1.006-1.746-1.006-3.016s.336-2.271 1.006-3.001c.68-.74 1.585-1.11 2.715-1.11 1.131 0 2.031.37 2.701 1.11.67.73 1.005 1.731 1.005 3.001 0 1.27-.335 2.275-1.005 3.016-.67.73-1.57 1.095-2.701 1.095-1.13 0-2.035-.365-2.715-1.095zm.945-5.252c-.43.56-.645 1.306-.645 2.236 0 .93.215 1.675.645 2.235.44.561 1.03.841 1.77.841.731 0 1.311-.28 1.741-.841.44-.56.66-1.305.66-2.235 0-.93-.22-1.676-.66-2.236-.43-.56-1.01-.84-1.741-.84-.74 0-1.33.28-1.77.84zm12.61 5.087h.915v3.196h-1.246v-2.116h-5.386v2.116h-1.245v-3.196h.585c.12-.26.22-.571.3-.931.09-.37.165-.94.225-1.71.07-.77.115-1.335.135-1.696.03-.37.08-1.185.15-2.445h5.567v6.782zm-1.321 0V167.7h-3.106c-.18 2.571-.325 4.166-.435 4.786-.07.36-.15.666-.24.916h3.781zm8.007-6.782h1.965v7.862h-1.26v-6.917l-3.661 6.917h-1.98v-7.862h1.275v6.917l3.661-6.917zm2.846 1.08v-1.08h6.631v1.08h-2.655v6.782h-1.321V167.7h-2.655zm10.927 1.936c1.99 0 2.986.805 2.986 2.415 0 1.621-.996 2.431-2.986 2.431h-3.406v-7.862h1.32v3.016h2.086zm-.105 3.841c1.19 0 1.785-.48 1.785-1.441 0-.94-.595-1.41-1.785-1.41h-1.981v2.851h1.981zm7.341.09c-.67-.741-1.005-1.746-1.005-3.016s.335-2.271 1.005-3.001c.68-.74 1.585-1.11 2.716-1.11 1.13 0 2.03.37 2.7 1.11.671.73 1.006 1.731 1.006 3.001 0 1.27-.335 2.275-1.006 3.016-.67.73-1.57 1.095-2.7 1.095-1.131 0-2.036-.365-2.716-1.095zm.945-5.252c-.43.56-.645 1.306-.645 2.236 0 .93.215 1.675.645 2.235.44.561 1.031.841 1.771.841.73 0 1.31-.28 1.74-.841.44-.56.66-1.305.66-2.235 0-.93-.22-1.676-.66-2.236-.43-.56-1.01-.84-1.74-.84-.74 0-1.331.28-1.771.84zm10.192-1.455c1.04 0 1.88.35 2.52 1.05.641.7.961 1.651.961 2.851 0 1.21-.335 2.166-1.006 2.866-.66.69-1.56 1.035-2.7 1.035-2.481 0-3.721-1.665-3.721-4.996 0-1.751.245-3.086.735-4.006.49-.921 1.29-1.496 2.4-1.726.211-.05.426-.09.646-.12.23-.04.47-.075.72-.105.26-.03.455-.055.585-.075.66-.1 1.18-.225 1.56-.375v1.035c-.27.17-.735.305-1.395.405l-.69.09c-.31.04-.57.075-.78.105-.41.05-.761.145-1.051.285-.28.13-.555.345-.825.646-.27.29-.485.715-.645 1.275-.16.56-.265 1.255-.315 2.085.21-.73.57-1.3 1.08-1.71.52-.41 1.16-.615 1.921-.615zm-.225 6.767c.74 0 1.325-.255 1.755-.766.43-.52.645-1.22.645-2.1 0-.88-.215-1.576-.645-2.086-.43-.52-1.015-.78-1.755-.78-.751 0-1.341.26-1.771.78-.43.51-.645 1.206-.645 2.086 0 .88.215 1.58.645 2.1.43.511 1.02.766 1.771.766zm9.986-7.007h1.41l-2.925 8.762c-.271.87-.591 1.466-.961 1.786-.37.33-.93.495-1.68.495-.25 0-.54-.015-.87-.045v-1.02c.36.02.625.03.795.03.41 0 .72-.101.93-.301.21-.2.405-.58.585-1.14l.225-.705h-.735l-2.971-7.862h1.441l2.58 7.337 2.176-7.337zm7.14 0h1.306v7.862h-1.306v-3.271c-.99.21-1.815.315-2.475.315-1.801 0-2.701-.88-2.701-2.641v-2.265h1.32v2.085c0 .621.145 1.066.435 1.336.301.27.766.405 1.396.405.54 0 1.215-.11 2.025-.33v-3.496zm2.428 3.931c0-1.341.335-2.361 1.005-3.061.68-.7 1.58-1.05 2.701-1.05 1.15 0 2.025.355 2.625 1.065.611.71.916 1.791.916 3.241v.18h-5.927c.05.9.295 1.59.735 2.071.45.47 1.036.705 1.756.705 1.02 0 1.715-.45 2.085-1.351l1.246.075c-.21.701-.6 1.251-1.171 1.651-.57.39-1.29.585-2.16.585-1.171 0-2.101-.345-2.791-1.035-.68-.7-1.02-1.726-1.02-3.076zm1.335-.495h4.606c-.01-.821-.22-1.466-.63-1.936-.4-.48-.935-.72-1.605-.72-.66 0-1.206.23-1.636.69-.43.45-.675 1.105-.735 1.966zm7.001 4.426v-7.862h1.32v3.316h4.066v-3.316h1.306v7.862h-1.306v-3.466h-4.066v3.466h-1.32zm13.203-7.862h1.966v7.862h-1.26v-6.917l-3.661 6.917h-1.981v-7.862h1.275v6.917l3.661-6.917zm3.086 3.931c0-1.341.335-2.361 1.005-3.061.68-.7 1.581-1.05 2.701-1.05 1.15 0 2.026.355 2.626 1.065.61.71.915 1.791.915 3.241v.18h-5.927c.05.9.295 1.59.736 2.071.45.47 1.035.705 1.755.705 1.02 0 1.716-.45 2.086-1.351l1.245.075c-.21.701-.6 1.251-1.17 1.651-.57.39-1.291.585-2.161.585-1.17 0-2.101-.345-2.791-1.035-.68-.7-1.02-1.726-1.02-3.076zm1.335-.495h4.607c-.01-.821-.22-1.466-.631-1.936-.4-.48-.935-.72-1.605-.72-.66 0-1.205.23-1.635.69-.431.45-.676 1.105-.736 1.966z" fill="#fff"/><rect x="30.5" y="200.5" width="269" height="43" rx="21.5" stroke="#fff"/><rect x="47.652" y="219" width="5.296" height="5.296" rx="2.648" fill="#fff"/><path d="M75.678 226h-1.65l-3.707-4.771h-1.68V226h-1.38v-10.503h1.38v4.651h1.665l3.481-4.651h1.59l-3.99 5.102 4.29 5.401zm.127-2.056c0-1.41 1.03-2.215 3.091-2.415l2.34-.225v-.75c0-.491-.16-.886-.48-1.186-.31-.31-.77-.46-1.38-.45-.56 0-1.02.13-1.38.39-.36.25-.555.63-.585 1.14h-1.216c.03-.85.336-1.475.916-1.875.58-.41 1.335-.615 2.265-.615 1.03 0 1.816.245 2.356.735.54.49.81 1.195.81 2.116V226h-1.2v-1.62a2.92 2.92 0 01-1.14 1.335c-.51.31-1.13.465-1.861.465-.84 0-1.475-.205-1.905-.615-.42-.42-.63-.96-.63-1.621zm1.306-.045c0 .391.135.711.405.961s.675.375 1.215.375c.77 0 1.38-.24 1.83-.72.45-.491.676-1.121.676-1.891v-.48l-2.19.225c-1.291.12-1.936.63-1.936 1.53zM91.015 226H89.38l-2.941-3.466h-1.08V226h-1.32v-7.862h1.32v3.361h1.11l2.776-3.361h1.59l-3.42 3.781 3.6 4.081zm7.664-4.051c1.54.14 2.31.78 2.31 1.92 0 .621-.225 1.131-.675 1.531-.45.4-1.17.6-2.16.6h-3.706v-7.862h3.526c.91 0 1.6.18 2.07.54.47.36.705.84.705 1.44 0 1.021-.69 1.631-2.07 1.831zm-2.911-2.821v2.431h2.1c.53 0 .92-.11 1.17-.33.26-.22.39-.515.39-.886 0-.81-.544-1.215-1.635-1.215h-2.025zm2.236 5.882c1.11 0 1.665-.435 1.665-1.306 0-.85-.58-1.275-1.74-1.275h-2.161v2.581h2.236zm7.35-3.856c1.991 0 2.986.805 2.986 2.415 0 1.621-.995 2.431-2.986 2.431h-3.225v-7.862h1.32v3.016h1.905zm4.232-3.016h1.32V226h-1.32v-7.862zm-4.337 6.857c1.191 0 1.786-.48 1.786-1.441 0-.94-.595-1.41-1.786-1.41h-1.8v2.851h1.8zm18.12 1.005h-1.62l-2.641-3.466h-.975V226h-1.291v-3.466h-.975L113.226 226h-1.62l3.271-4.081-3.151-3.781h1.56l2.536 3.361h1.02v-3.361h1.291v3.361h1.02l2.536-3.361h1.56l-3.151 3.781 3.271 4.081zm.016-2.056c0-1.41 1.031-2.215 3.091-2.415l2.341-.225v-.75c0-.491-.16-.886-.48-1.186-.31-.31-.77-.46-1.381-.45-.56 0-1.02.13-1.38.39-.36.25-.555.63-.585 1.14h-1.215c.03-.85.335-1.475.915-1.875.58-.41 1.335-.615 2.265-.615 1.031 0 1.816.245 2.356.735.54.49.81 1.195.81 2.116V226h-1.2v-1.62a2.92 2.92 0 01-1.14 1.335c-.51.31-1.131.465-1.861.465-.84 0-1.475-.205-1.905-.615-.42-.42-.631-.96-.631-1.621zm1.306-.045c0 .391.135.711.405.961s.675.375 1.215.375c.771 0 1.381-.24 1.831-.72.45-.491.675-1.121.675-1.891v-.48l-2.191.225c-1.29.12-1.935.63-1.935 1.53zm6.003-4.681v-1.08h6.632v1.08h-2.656V226h-1.32v-6.782h-2.656zm10.927 1.936c1.991 0 2.986.805 2.986 2.415 0 1.621-.995 2.431-2.986 2.431h-3.406v-7.862h1.32v3.016h2.086zm-.105 3.841c1.19 0 1.785-.48 1.785-1.441 0-.94-.595-1.41-1.785-1.41h-1.981v2.851h1.981zm14.15-6.857h2.19V226h-1.275v-6.947L153.97 226h-1.65l-2.596-6.947V226h-1.275v-7.862h2.205l2.506 7.142 2.506-7.142zm3.34 5.806c0-1.41 1.03-2.215 3.091-2.415l2.341-.225v-.75c0-.491-.16-.886-.48-1.186-.311-.31-.771-.46-1.381-.45-.56 0-1.02.13-1.38.39-.36.25-.555.63-.585 1.14h-1.216c.03-.85.335-1.475.916-1.875.58-.41 1.335-.615 2.265-.615 1.03 0 1.816.245 2.356.735.54.49.81 1.195.81 2.116V226h-1.2v-1.62c-.25.57-.63 1.015-1.141 1.335-.51.31-1.13.465-1.86.465-.84 0-1.476-.205-1.906-.615-.42-.42-.63-.96-.63-1.621zm1.306-.045c0 .391.135.711.405.961s.675.375 1.215.375c.77 0 1.38-.24 1.831-.72.45-.491.675-1.121.675-1.891v-.48l-2.191.225c-1.29.12-1.935.63-1.935 1.53zM174.216 226h-1.635l-2.941-3.466h-1.081V226h-1.32v-7.862h1.32v3.361h1.111l2.776-3.361h1.59l-3.421 3.781 3.601 4.081zm-.288-3.931c0-1.31.325-2.321.975-3.031.65-.72 1.53-1.08 2.641-1.08.9 0 1.655.24 2.265.72.621.48.991 1.165 1.111 2.056l-1.261.12c-.1-.611-.345-1.071-.735-1.381-.38-.32-.84-.48-1.38-.48-.7 0-1.261.275-1.681.825-.42.54-.63 1.291-.63 2.251s.21 1.715.63 2.266c.43.54 1.001.81 1.711.81.56 0 1.03-.165 1.41-.495.39-.34.64-.821.75-1.441l1.261.105c-.12.911-.49 1.616-1.111 2.116-.62.5-1.39.75-2.31.75-1.131 0-2.021-.355-2.671-1.065-.65-.71-.975-1.726-.975-3.046zm13.023-3.931h1.966V226h-1.261v-6.917L183.995 226h-1.98v-7.862h1.275v6.917l3.661-6.917zm10.753 0h2.191V226h-1.276v-6.947l-2.61 6.947h-1.651l-2.596-6.947V226h-1.275v-7.862h2.206l2.505 7.142 2.506-7.142zm9.207 0h1.411l-2.926 8.762c-.27.87-.59 1.466-.96 1.786-.37.33-.931.495-1.681.495-.25 0-.54-.015-.87-.045v-1.02c.36.02.625.03.795.03.41 0 .72-.1.93-.3.21-.201.406-.581.586-1.141l.225-.705h-.736l-2.97-7.862h1.44l2.581 7.337 2.175-7.337zm9.466 0h2.191V226h-1.275v-6.947L214.682 226h-1.651l-2.595-6.947V226h-1.276v-7.862h2.206l2.506 7.142 2.505-7.142zm11.792 0h1.966V226h-1.261v-6.917L225.213 226h-1.98v-7.862h1.275v6.917l3.661-6.917zm7.287 3.796c1.601.17 2.401.835 2.401 1.995 0 .671-.26 1.216-.78 1.636-.521.41-1.366.615-2.536.615-2.171 0-3.326-.855-3.466-2.566l1.26-.06c.1 1.081.835 1.621 2.206 1.621.66 0 1.155-.125 1.485-.375.34-.26.51-.61.51-1.051 0-.88-.715-1.32-2.145-1.32h-.99v-.87h.93c.66 0 1.15-.115 1.47-.345.33-.24.495-.55.495-.931 0-.4-.16-.72-.48-.96-.32-.24-.745-.36-1.275-.36-.54 0-.99.13-1.351.39-.35.26-.55.645-.6 1.155l-1.275-.075c.06-.83.38-1.45.96-1.86.58-.41 1.336-.615 2.266-.615 1 0 1.76.19 2.28.57.531.37.796.87.796 1.5 0 1.071-.721 1.706-2.161 1.906zM249.062 226h-1.635l-2.941-3.466h-1.081V226h-1.32v-7.862h1.32v3.361h1.111l2.776-3.361h1.59l-3.421 3.781 3.601 4.081zm6.151-7.862h1.41l-2.926 8.762c-.27.87-.59 1.466-.96 1.786-.37.33-.93.495-1.681.495-.25 0-.54-.015-.87-.045v-1.02c.36.02.625.03.795.03.41 0 .721-.1.931-.3.21-.201.405-.581.585-1.141l.225-.705h-.735l-2.971-7.862h1.44l2.581 7.337 2.176-7.337zm2.249 10.863v-10.863h1.215v1.68c.24-.59.6-1.045 1.08-1.365a2.94 2.94 0 011.681-.495c.98 0 1.77.365 2.37 1.095.601.73.901 1.736.901 3.016s-.3 2.286-.901 3.016c-.6.73-1.39 1.095-2.37 1.095-.59 0-1.116-.145-1.576-.435-.46-.29-.82-.705-1.08-1.245v4.501h-1.32zm1.875-9.168c-.42.56-.63 1.306-.63 2.236 0 .93.21 1.675.63 2.236.43.56 1.005.84 1.726.84.72 0 1.29-.28 1.71-.84.42-.561.63-1.306.63-2.236 0-.93-.21-1.676-.63-2.236-.42-.56-.99-.84-1.71-.84-.721 0-1.296.28-1.726.84zm6.044 2.236c0-1.31.325-2.321.975-3.031.651-.72 1.531-1.08 2.641-1.08.9 0 1.656.24 2.266.72.62.48.99 1.165 1.11 2.056l-1.26.12c-.1-.611-.345-1.071-.736-1.381-.38-.32-.84-.48-1.38-.48-.7 0-1.26.275-1.68.825-.421.54-.631 1.291-.631 2.251s.21 1.715.631 2.266c.43.54 1 .81 1.71.81.56 0 1.03-.165 1.41-.495.391-.34.641-.821.751-1.441l1.26.105c-.12.911-.49 1.616-1.11 2.116-.62.5-1.391.75-2.311.75-1.13 0-2.02-.355-2.671-1.065-.65-.71-.975-1.726-.975-3.046zm7.667 1.875c0-1.41 1.03-2.215 3.091-2.415l2.341-.225v-.75c0-.491-.16-.886-.481-1.186-.31-.31-.77-.46-1.38-.45-.56 0-1.02.13-1.38.39-.36.25-.555.63-.585 1.14h-1.216c.03-.85.335-1.475.915-1.875.581-.41 1.336-.615 2.266-.615 1.03 0 1.816.245 2.356.735.54.49.81 1.195.81 2.116V226h-1.2v-1.62a2.922 2.922 0 01-1.141 1.335c-.51.31-1.13.465-1.86.465-.84 0-1.476-.205-1.906-.615-.42-.42-.63-.96-.63-1.621zm1.305-.045c0 .391.135.711.406.961.27.25.675.375 1.215.375.77 0 1.38-.24 1.83-.72.45-.491.676-1.121.676-1.891v-.48l-2.191.225c-1.29.12-1.936.63-1.936 1.53z" fill="#fff"/></svg>